<?xml version="1.0" encoding="UTF-8" standalone="no"?>
<!-- Created with Inkscape (http://www.inkscape.org/) -->

<svg
   xmlns:dc="http://purl.org/dc/elements/1.1/"
   xmlns:cc="http://creativecommons.org/ns#"
   xmlns:rdf="http://www.w3.org/1999/02/22-rdf-syntax-ns#"
   xmlns:svg="http://www.w3.org/2000/svg"
   xmlns="http://www.w3.org/2000/svg"
   xmlns:sodipodi="http://sodipodi.sourceforge.net/DTD/sodipodi-0.dtd"
   xmlns:inkscape="http://www.inkscape.org/namespaces/inkscape"
   id="svg2897"
   version="1.1"
   inkscape:version="0.47 r22583"
   width="1241.25"
   height="1241.25"
   xml:space="preserve"
   sodipodi:docname="foaming_cuke_3975520_illustration.svg"><metadata
     id="metadata2903"><rdf:RDF><cc:Work
         rdf:about=""><dc:format>image/svg+xml</dc:format><dc:type
           rdf:resource="http://purl.org/dc/dcmitype/StillImage" /><dc:title></dc:title></cc:Work></rdf:RDF></metadata><defs
     id="defs2901"><inkscape:perspective
       sodipodi:type="inkscape:persp3d"
       inkscape:vp_x="0 : 0.5 : 1"
       inkscape:vp_y="0 : 1000 : 0"
       inkscape:vp_z="1 : 0.5 : 1"
       inkscape:persp3d-origin="0.5 : 0.33333333 : 1"
       id="perspective2905" /><clipPath
       clipPathUnits="userSpaceOnUse"
       id="clipPath2915"><path
         d="M 0,0 993,0 993,993 0,993 0,0 z"
         id="path2917" /></clipPath></defs><sodipodi:namedview
     pagecolor="#ffffff"
     bordercolor="#666666"
     borderopacity="1"
     objecttolerance="10"
     gridtolerance="10"
     guidetolerance="10"
     inkscape:pageopacity="0"
     inkscape:pageshadow="2"
     inkscape:window-width="1228"
     inkscape:window-height="744"
     id="namedview2899"
     showgrid="false"
     inkscape:zoom="0.19013092"
     inkscape:cx="620.625"
     inkscape:cy="620.625"
     inkscape:window-x="0"
     inkscape:window-y="0"
     inkscape:window-maximized="0"
     inkscape:current-layer="g2907" /><g
     id="g2907"
     inkscape:groupmode="layer"
     inkscape:label="foaming_cuke_3975520_illustration"
     transform="matrix(1.25,0,0,-1.25,0,1241.25)"><g
       id="g2909" /><path
       d="m 0.06,0.1489868 992.066,0 0,992.1260032 -992.066,0 0,-992.1260032 z"
       style="fill:#f9df0f;fill-opacity:1;fill-rule:nonzero;stroke:none"
       id="path2919" /><path
       d="m 196,0.149 588.804,0 -0.099,691.332 c 0,138.3081 -0.767,221.6441 -139.081,221.6441 l -318.04,10.0899 c -138.32,0 -133.512,-93.4259 -133.512,-231.734 L 196,0.149"
       style="fill:#83cb39;fill-opacity:1;fill-rule:nonzero;stroke:none"
       id="path2921" /><path
       d="m 438.248,626.011 c 0,-17.321 -13.993,-31.335 -31.371,-31.335 -17.301,0 -31.354,14.014 -31.354,31.335 0,17.269 14.053,31.375 31.354,31.375 17.378,0 31.371,-14.106 31.371,-31.375"
       style="fill:#905440;fill-opacity:1;fill-rule:nonzero;stroke:none"
       id="path2923" /><path
       d="m 697.0261,624.681 c 0,-17.301 -14.0021,-31.3239 -31.367,-31.3239 -17.3051,0 -31.3561,14.0229 -31.3561,31.3239 0,17.277 14.051,31.391 31.3561,31.391 17.3649,0 31.367,-14.114 31.367,-31.391"
       style="fill:#905440;fill-opacity:1;fill-rule:nonzero;stroke:none"
       id="path2925" /><path
       d="m 359.06,423.845 c 0,0 -11.517,99.346 95.018,100.78 0,0 116.617,0 154.051,0 0,0 109.416,12.955 113.738,-80.633 0,0 0,-51.81 -11.522,-69.097 0,0 -20.157,-43.194 -77.7429,-43.194 0,0 -145.4011,0 -178.5241,2.883 0,0 -90.694,-5.76 -95.018,89.261"
       style="fill:#ef2c3b;fill-opacity:1;fill-rule:nonzero;stroke:none"
       id="path2927" /><path
       d="m 607.182,543.334 c -1.867,0 -153.104,0 -153.104,0 -38.35,-0.51 -67.803,-12.3049 -87.794,-35.057 -23.067,-26.235 -26.29,-59.694 -26.29,-76.303 0,-5.953 0.419,-9.729 0.485,-10.291 l -0.112,1.308 c 1.54,-33.966 12.994,-60.76 34.055,-79.646 30.567,-27.391 70.872,-27.742 79.27,-27.488 35.491,-2.832 173.005,-2.869 178.9101,-2.869 65.9409,0 91.5219,47.577 94.3889,53.367 12.5511,21.164 13.589,64.53 13.589,77.637 l 0,0.453 -0.0149,0.421 c -1.4091,30.419 -12.453,54.608 -32.8161,71.889 -36.912,31.304 -91.689,27.448 -100.567,26.579 z m 2.006,-37.422 1.093,0.125 c 0.462,0.046 46.532,4.964 73.363,-17.922 12.165,-10.378 18.539,-25.026 19.496,-44.713 -0.081,-22.251 -3.424,-50.709 -8.3639,-58.12 l -0.6721,-1.005 -0.633,-1.29 c -0.658,-1.325 -16.5929,-32.572 -60.8689,-32.572 -1.4411,0 -144.9681,0.052 -176.8941,2.816 l -1.309,0.116 -1.415,-0.086 c -0.312,-0.008 -32.133,-1.473 -53.794,18.139 -13.157,11.927 -20.36,29.855 -21.431,53.302 l -0.031,0.567 -0.066,0.651 c -0.032,0.343 -3.442,34.895 16.919,57.851 12.705,14.327 32.812,21.774 59.754,22.141 l 154.853,0"
       style="fill:#ffffff;fill-opacity:1;fill-rule:nonzero;stroke:none"
       id="path2929" /><path
       d="m 666.736,490.493 c 0,-18.185 -13.492,-32.928 -30.123,-32.928 -16.646,0 -30.134,14.743 -30.134,32.928 0,-18.185 -13.481,-32.928 -30.126,-32.928 -16.632,0 -30.12,14.743 -30.12,32.928 0,-18.185 -13.493,-32.928 -30.123,-32.928 -16.646,0 -30.126,14.743 -30.126,32.928 0,-18.185 -13.484,-32.928 -30.126,-32.928 -16.646,0 -30.126,14.743 -30.126,32.928 0,-18.185 -13.497,-32.928 -30.125,-32.928 -11.046,0 -20.681,6.521 -25.918,16.202 -5.216,-12.546 -6.739,-25.661 -6.739,-36.304 0,-26.077 -6.313,-63.483 34.338,-78.676 30.721,-11.498 102.11,-4.226 144.66,-4.226 40.986,0 111.65,-5.701 141.816,5.025 42.608,15.164 37.174,51.065 37.174,77.877 0,8.899 -1.0339,18.794 -3.915,28.624 -5.334,-5.282 -12.396,-8.522 -20.173,-8.522 -16.633,0 -30.114,14.743 -30.114,32.928"
       style="fill:#ef2e4b;fill-opacity:1;fill-rule:nonzero;stroke:none"
       id="path2931" /><path
       d="m 666.736,517.142 c -29.594,10.0121 -85.333,3.217 -124.788,3.217 -44.668,0 -92.434,2.494 -124.828,-6.344 -26.438,-7.24 -40.354,-23.197 -47.431,-40.248 5.237,-9.681 14.872,-16.202 25.918,-16.202 16.628,0 30.125,14.743 30.125,32.928 0,-18.185 13.48,-32.928 30.126,-32.928 16.642,0 30.126,14.743 30.126,32.928 0,-18.185 13.48,-32.928 30.126,-32.928 16.63,0 30.123,14.743 30.123,32.928 0,-18.185 13.488,-32.928 30.12,-32.928 16.645,0 30.126,14.743 30.126,32.928 0,-18.185 13.488,-32.928 30.134,-32.928 16.631,0 30.123,14.743 30.123,32.928 0,-18.185 13.481,-32.928 30.114,-32.928 7.777,0 14.839,3.24 20.173,8.522 -6.0099,20.569 -20.1579,40.849 -50.287,51.055"
       style="fill:#f3f6a2;fill-opacity:1;fill-rule:nonzero;stroke:none"
       id="path2933" /><path
       d="m 666.736,338.43 c -29.594,-10.024 -85.333,-3.226 -124.788,-3.226 -44.668,0 -92.434,-2.491 -124.828,6.36 -26.438,7.222 -40.354,23.181 -47.431,40.224 5.237,9.686 14.872,16.223 25.918,16.223 16.628,0 30.125,-14.764 30.125,-32.933 0,18.169 13.48,32.933 30.126,32.933 16.642,0 30.126,-14.764 30.126,-32.933 0,18.169 13.48,32.933 30.126,32.933 16.63,0 30.123,-14.764 30.123,-32.933 0,18.169 13.488,32.933 30.12,32.933 16.645,0 30.126,-14.764 30.126,-32.933 0,18.169 13.488,32.933 30.134,32.933 16.631,0 30.123,-14.764 30.123,-32.933 0,18.169 13.481,32.933 30.114,32.933 7.777,0 14.839,-3.255 20.173,-8.537 -6.0099,-20.573 -20.1579,-40.833 -50.287,-51.044"
       style="fill:#f3f6a2;fill-opacity:1;fill-rule:nonzero;stroke:none"
       id="path2935" /><path
       d="m 258.439,886.054 13.917,-14.966 c 8.767,6.509 19.666,12.7481 33.116,17.853 l -4.69,16.548 c -17.902,-4.776 -31.757,-11.8979 -42.343,-19.435 z m -2.764,-2.0409 c -21.121,-16.0371 -28.004,-33.148 -28.004,-33.148 l 17.851,-8.162 c 4.735,7.4489 12.347,17.0379 24.107,26.305 l -13.954,15.005 z m 34.856,-32.4721 c 11.606,8.7981 22.081,12.2221 22.081,12.2221 l -6.246,22.031 C 293.492,880.86 283.056,874.864 274.642,868.627 l 15.889,-17.086 z m -41.828,-10.289 22.608,-10.336 c 4.867,7.668 10.748,13.755 16.524,18.5061 L 271.918,866.541 C 260.59,857.6121 253.26,848.3931 248.703,841.252"
       style="fill:#fefeed;fill-opacity:1;fill-rule:nonzero;stroke:none"
       id="path2937" /><path
       d="m 408.896,321.976 c 0,-5.309 -4.302,-9.61 -9.61,-9.61 -5.308,0 -9.611,4.301 -9.611,9.61 0,5.309 4.303,9.611 9.611,9.611 5.308,0 9.61,-4.302 9.61,-9.611"
       style="fill:#ffffff;fill-opacity:1;fill-rule:nonzero;stroke:none"
       id="path2939" /><path
       d="m 428.116,304.129 c 0,-5.309 -4.301,-9.61 -9.61,-9.61 -5.308,0 -9.61,4.301 -9.61,9.61 0,5.31 4.302,9.61 9.61,9.61 5.309,0 9.61,-4.3 9.61,-9.61"
       style="fill:#ffffff;fill-opacity:1;fill-rule:nonzero;stroke:none"
       id="path2941" /><path
       d="m 504.998,313.739 c 0,-5.309 -4.301,-9.61 -9.61,-9.61 -5.31,0 -9.611,4.301 -9.611,9.61 0,5.309 4.301,9.61 9.611,9.61 5.309,0 9.61,-4.301 9.61,-9.61"
       style="fill:#ffffff;fill-opacity:1;fill-rule:nonzero;stroke:none"
       id="path2943" /><path
       d="m 547.558,308.247 c 0,-5.31 -4.301,-9.61 -9.611,-9.61 -5.308,0 -9.609,4.3 -9.609,9.61 0,5.31 4.301,9.611 9.609,9.611 5.31,0 9.611,-4.301 9.611,-9.611"
       style="fill:#ffffff;fill-opacity:1;fill-rule:nonzero;stroke:none"
       id="path2945" /><path
       d="m 535.201,301.383 c 0,-5.309 -4.301,-9.61 -9.609,-9.61 -5.31,0 -9.611,4.301 -9.611,9.61 0,5.309 4.301,9.61 9.611,9.61 5.308,0 9.609,-4.301 9.609,-9.61"
       style="fill:#ffffff;fill-opacity:1;fill-rule:nonzero;stroke:none"
       id="path2947" /><path
       d="m 528.338,309.62 c 0,-5.31 -4.302,-9.61 -9.6109,-9.61 -5.31,0 -9.6111,4.3 -9.6111,9.61 0,5.31 4.3011,9.611 9.6111,9.611 5.3089,0 9.6109,-4.301 9.6109,-9.611"
       style="fill:#ffffff;fill-opacity:1;fill-rule:nonzero;stroke:none"
       id="path2949" /><path
       d="m 517.354,305.502 c 0,-5.309 -4.301,-9.61 -9.61,-9.61 -5.309,0 -9.61,4.301 -9.61,9.61 0,5.31 4.301,9.61 9.61,9.61 5.309,0 9.61,-4.3 9.61,-9.61"
       style="fill:#ffffff;fill-opacity:1;fill-rule:nonzero;stroke:none"
       id="path2951" /><path
       d="m 517.354,279.416 c 0,-5.309 -4.301,-9.609 -9.61,-9.609 -5.309,0 -9.61,4.3 -9.61,9.609 0,5.31 4.301,9.611 9.61,9.611 5.309,0 9.61,-4.301 9.61,-9.611"
       style="fill:#ffffff;fill-opacity:1;fill-rule:nonzero;stroke:none"
       id="path2953" /><path
       d="m 517.354,254.704 c 0,-5.309 -4.301,-9.609 -9.61,-9.609 -5.309,0 -9.61,4.3 -9.61,9.609 0,5.31 4.301,9.611 9.61,9.611 5.309,0 9.61,-4.301 9.61,-9.611"
       style="fill:#ffffff;fill-opacity:1;fill-rule:nonzero;stroke:none"
       id="path2955" /><path
       d="m 445.964,295.892 c 0,-5.31 -4.301,-9.611 -9.611,-9.611 -5.309,0 -9.61,4.301 -9.61,9.611 0,5.308 4.301,9.61 9.61,9.61 5.31,0 9.611,-4.302 9.611,-9.61"
       style="fill:#ffffff;fill-opacity:1;fill-rule:nonzero;stroke:none"
       id="path2957" /><path
       d="m 585.998,304.129 c 0,-5.309 -4.301,-9.61 -9.61,-9.61 -5.309,0 -9.61,4.301 -9.61,9.61 0,5.31 4.301,9.61 9.61,9.61 5.309,0 9.61,-4.3 9.61,-9.61"
       style="fill:#ffffff;fill-opacity:1;fill-rule:nonzero;stroke:none"
       id="path2959" /><path
       d="m 596.981,188.806 c 0,-5.309 -4.299,-9.61 -9.61,-9.61 -5.309,0 -9.609,4.301 -9.609,9.61 0,5.309 4.3,9.61 9.609,9.61 5.311,0 9.61,-4.301 9.61,-9.61"
       style="fill:#ffffff;fill-opacity:1;fill-rule:nonzero;stroke:none"
       id="path2961" /><path
       d="m 640.915,293.146 c 0,-5.31 -4.302,-9.611 -9.611,-9.611 -5.3089,0 -9.61,4.301 -9.61,9.611 0,5.308 4.3011,9.61 9.61,9.61 5.309,0 9.611,-4.302 9.611,-9.61"
       style="fill:#ffffff;fill-opacity:1;fill-rule:nonzero;stroke:none"
       id="path2963" /><path
       d="m 623.915,294.146 c 0,-5.31 -4.302,-9.611 -9.611,-9.611 -5.3089,0 -9.61,4.301 -9.61,9.611 0,5.308 4.3011,9.61 9.61,9.61 5.309,0 9.611,-4.302 9.611,-9.61"
       style="fill:#ffffff;fill-opacity:1;fill-rule:nonzero;stroke:none"
       id="path2965" /><path
       d="m 639.915,282.146 c 0,-5.31 -4.302,-9.611 -9.611,-9.611 -5.3089,0 -9.61,4.301 -9.61,9.611 0,5.308 4.3011,9.61 9.61,9.61 5.309,0 9.611,-4.302 9.611,-9.61"
       style="fill:#ffffff;fill-opacity:1;fill-rule:nonzero;stroke:none"
       id="path2967" /><path
       d="m 647.915,293.146 c 0,-5.31 -4.302,-9.611 -9.611,-9.611 -5.3089,0 -9.61,4.301 -9.61,9.611 0,5.308 4.3011,9.61 9.61,9.61 5.309,0 9.611,-4.302 9.611,-9.61"
       style="fill:#ffffff;fill-opacity:1;fill-rule:nonzero;stroke:none"
       id="path2969" /><path
       d="m 653.915,277.146 c 0,-5.31 -4.302,-9.611 -9.611,-9.611 -5.3089,0 -9.61,4.301 -9.61,9.611 0,5.308 4.3011,9.61 9.61,9.61 5.309,0 9.611,-4.302 9.611,-9.61"
       style="fill:#ffffff;fill-opacity:1;fill-rule:nonzero;stroke:none"
       id="path2971" /><path
       d="m 608.915,290.146 c 0,-5.31 -4.302,-9.611 -9.611,-9.611 -5.3089,0 -9.61,4.301 -9.61,9.611 0,5.308 4.3011,9.61 9.61,9.61 5.309,0 9.611,-4.302 9.611,-9.61"
       style="fill:#ffffff;fill-opacity:1;fill-rule:nonzero;stroke:none"
       id="path2973" /><path
       d="m 560.915,295.146 c 0,-5.31 -4.302,-9.611 -9.611,-9.611 -5.3089,0 -9.61,4.301 -9.61,9.611 0,5.308 4.3011,9.61 9.61,9.61 5.309,0 9.611,-4.302 9.611,-9.61"
       style="fill:#ffffff;fill-opacity:1;fill-rule:nonzero;stroke:none"
       id="path2975" /><path
       d="m 560.915,281.146 c 0,-5.31 -4.302,-9.611 -9.611,-9.611 -5.3089,0 -9.61,4.301 -9.61,9.611 0,5.308 4.3011,9.61 9.61,9.61 5.309,0 9.611,-4.302 9.611,-9.61"
       style="fill:#ffffff;fill-opacity:1;fill-rule:nonzero;stroke:none"
       id="path2977" /><path
       d="m 564.915,236.146 c 0,-5.31 -4.302,-9.611 -9.611,-9.611 -5.3089,0 -9.61,4.301 -9.61,9.611 0,5.308 4.3011,9.61 9.61,9.61 5.309,0 9.611,-4.302 9.611,-9.61"
       style="fill:#ffffff;fill-opacity:1;fill-rule:nonzero;stroke:none"
       id="path2979" /><path
       d="m 491.915,276.146 c 0,-5.31 -4.302,-9.611 -9.611,-9.611 -5.309,0 -9.61,4.301 -9.61,9.611 0,5.308 4.301,9.61 9.61,9.61 5.309,0 9.611,-4.302 9.611,-9.61"
       style="fill:#ffffff;fill-opacity:1;fill-rule:nonzero;stroke:none"
       id="path2981" /><path
       d="m 661.915,298.146 c 0,-5.31 -4.302,-9.611 -9.611,-9.611 -5.3089,0 -9.61,4.301 -9.61,9.611 0,5.308 4.3011,9.61 9.61,9.61 5.309,0 9.611,-4.302 9.611,-9.61"
       style="fill:#ffffff;fill-opacity:1;fill-rule:nonzero;stroke:none"
       id="path2983" /><path
       d="m 573.643,305.502 c 0,-5.309 -4.301,-9.61 -9.611,-9.61 -5.308,0 -9.609,4.301 -9.609,9.61 0,5.31 4.301,9.61 9.609,9.61 5.31,0 9.611,-4.3 9.611,-9.61"
       style="fill:#ffffff;fill-opacity:1;fill-rule:nonzero;stroke:none"
       id="path2985" /><path
       d="m 362.217,363.163 c 0,-5.309 -4.301,-9.61 -9.61,-9.61 -5.309,0 -9.61,4.301 -9.61,9.61 0,5.31 4.301,9.61 9.61,9.61 5.309,0 9.61,-4.3 9.61,-9.61"
       style="fill:#ffffff;fill-opacity:1;fill-rule:nonzero;stroke:none"
       id="path2987" /><path
       d="m 353.98,381.011 c 0,-5.31 -4.301,-9.611 -9.61,-9.611 -5.31,0 -9.611,4.301 -9.611,9.611 0,5.308 4.301,9.61 9.611,9.61 5.309,0 9.61,-4.302 9.61,-9.61"
       style="fill:#ffffff;fill-opacity:1;fill-rule:nonzero;stroke:none"
       id="path2989" /><path
       d="m 349.861,397.485 c 0,-5.309 -4.301,-9.61 -9.61,-9.61 -5.309,0 -9.61,4.301 -9.61,9.61 0,5.31 4.301,9.611 9.61,9.611 5.309,0 9.61,-4.301 9.61,-9.611"
       style="fill:#ffffff;fill-opacity:1;fill-rule:nonzero;stroke:none"
       id="path2991" /><path
       d="m 340.861,399.485 c 0,-5.309 -4.301,-9.61 -9.61,-9.61 -5.309,0 -9.61,4.301 -9.61,9.61 0,5.31 4.301,9.611 9.61,9.611 5.309,0 9.61,-4.301 9.61,-9.611"
       style="fill:#ffffff;fill-opacity:1;fill-rule:nonzero;stroke:none"
       id="path2993" /><path
       d="m 348.489,413.96 c 0,-5.309 -4.302,-9.609 -9.611,-9.609 -5.309,0 -9.61,4.3 -9.61,9.609 0,5.31 4.301,9.61 9.61,9.61 5.309,0 9.611,-4.3 9.611,-9.61"
       style="fill:#ffffff;fill-opacity:1;fill-rule:nonzero;stroke:none"
       id="path2995" /><path
       d="m 344.37,429.063 c 0,-5.31 -4.301,-9.612 -9.611,-9.612 -5.309,0 -9.61,4.302 -9.61,9.612 0,5.308 4.301,9.609 9.61,9.609 5.31,0 9.611,-4.301 9.611,-9.609"
       style="fill:#ffffff;fill-opacity:1;fill-rule:nonzero;stroke:none"
       id="path2997" /><path
       d="m 345.743,445.537 c 0,-5.309 -4.301,-9.611 -9.611,-9.611 -5.309,0 -9.61,4.302 -9.61,9.611 0,5.31 4.301,9.61 9.61,9.61 5.31,0 9.611,-4.3 9.611,-9.61"
       style="fill:#ffffff;fill-opacity:1;fill-rule:nonzero;stroke:none"
       id="path2999" /><path
       d="m 347.116,459.266 c 0,-5.309 -4.301,-9.611 -9.611,-9.611 -5.309,0 -9.61,4.302 -9.61,9.611 0,5.309 4.301,9.61 9.61,9.61 5.31,0 9.611,-4.301 9.611,-9.61"
       style="fill:#ffffff;fill-opacity:1;fill-rule:nonzero;stroke:none"
       id="path3001" /><path
       d="m 351.234,474.368 c 0,-5.309 -4.301,-9.611 -9.61,-9.611 -5.309,0 -9.61,4.302 -9.61,9.611 0,5.309 4.301,9.61 9.61,9.61 5.309,0 9.61,-4.301 9.61,-9.61"
       style="fill:#ffffff;fill-opacity:1;fill-rule:nonzero;stroke:none"
       id="path3003" /><path
       d="m 358.098,485.351 c 0,-5.309 -4.301,-9.611 -9.609,-9.611 -5.31,0 -9.611,4.302 -9.611,9.611 0,5.309 4.301,9.61 9.611,9.61 5.308,0 9.609,-4.301 9.609,-9.61"
       style="fill:#ffffff;fill-opacity:1;fill-rule:nonzero;stroke:none"
       id="path3005" /><path
       d="m 364.963,499.08 c 0,-5.309 -4.301,-9.611 -9.61,-9.611 -5.309,0 -9.61,4.302 -9.61,9.611 0,5.309 4.301,9.61 9.61,9.61 5.309,0 9.61,-4.301 9.61,-9.61"
       style="fill:#ffffff;fill-opacity:1;fill-rule:nonzero;stroke:none"
       id="path3007" /><path
       d="m 373.2,511.435 c 0,-5.309 -4.301,-9.61 -9.61,-9.61 -5.309,0 -9.61,4.301 -9.61,9.61 0,5.31 4.301,9.61 9.61,9.61 5.309,0 9.61,-4.3 9.61,-9.61"
       style="fill:#ffffff;fill-opacity:1;fill-rule:nonzero;stroke:none"
       id="path3009" /><path
       d="m 382.811,521.045 c 0,-5.309 -4.302,-9.61 -9.611,-9.61 -5.309,0 -9.61,4.301 -9.61,9.61 0,5.31 4.301,9.611 9.61,9.611 5.309,0 9.611,-4.301 9.611,-9.611"
       style="fill:#ffffff;fill-opacity:1;fill-rule:nonzero;stroke:none"
       id="path3011" /><path
       d="m 396.54,529.283 c 0,-5.309 -4.302,-9.61 -9.611,-9.61 -5.309,0 -9.61,4.301 -9.61,9.61 0,5.309 4.301,9.611 9.61,9.611 5.309,0 9.611,-4.302 9.611,-9.611"
       style="fill:#ffffff;fill-opacity:1;fill-rule:nonzero;stroke:none"
       id="path3013" /><path
       d="m 408.896,537.521 c 0,-5.31 -4.301,-9.611 -9.61,-9.611 -5.309,0 -9.611,4.301 -9.611,9.611 0,5.309 4.302,9.61 9.611,9.61 5.309,0 9.61,-4.301 9.61,-9.61"
       style="fill:#ffffff;fill-opacity:1;fill-rule:nonzero;stroke:none"
       id="path3015" /><path
       d="m 421.251,537.521 c 0,-5.31 -4.3,-9.611 -9.609,-9.611 -5.31,0 -9.611,4.301 -9.611,9.611 0,5.309 4.301,9.61 9.611,9.61 5.309,0 9.609,-4.301 9.609,-9.61"
       style="fill:#ffffff;fill-opacity:1;fill-rule:nonzero;stroke:none"
       id="path3017" /><path
       d="m 434.981,541.639 c 0,-5.309 -4.301,-9.6099 -9.611,-9.6099 -5.309,0 -9.61,4.3009 -9.61,9.6099 0,5.309 4.301,9.61 9.61,9.61 5.31,0 9.611,-4.301 9.611,-9.61"
       style="fill:#ffffff;fill-opacity:1;fill-rule:nonzero;stroke:none"
       id="path3019" /><path
       d="m 448.709,541.639 c 0,-5.309 -4.301,-9.6099 -9.61,-9.6099 -5.309,0 -9.61,4.3009 -9.61,9.6099 0,5.309 4.301,9.61 9.61,9.61 5.309,0 9.61,-4.301 9.61,-9.61"
       style="fill:#ffffff;fill-opacity:1;fill-rule:nonzero;stroke:none"
       id="path3021" /><path
       d="m 462.439,544.385 c 0,-5.309 -4.302,-9.611 -9.611,-9.611 -5.309,0 -9.61,4.302 -9.61,9.611 0,5.309 4.301,9.6101 9.61,9.6101 5.309,0 9.611,-4.3011 9.611,-9.6101"
       style="fill:#ffffff;fill-opacity:1;fill-rule:nonzero;stroke:none"
       id="path3023" /><path
       d="m 476.168,547.131 c 0,-5.309 -4.302,-9.61 -9.611,-9.61 -5.309,0 -9.61,4.301 -9.61,9.61 0,5.309 4.301,9.61 9.61,9.61 5.309,0 9.611,-4.301 9.611,-9.61"
       style="fill:#ffffff;fill-opacity:1;fill-rule:nonzero;stroke:none"
       id="path3025" /><path
       d="m 489.897,549.877 c 0,-5.31 -4.301,-9.6109 -9.611,-9.6109 -5.309,0 -9.611,4.3009 -9.611,9.6109 0,5.308 4.302,9.61 9.611,9.61 5.31,0 9.611,-4.302 9.611,-9.61"
       style="fill:#ffffff;fill-opacity:1;fill-rule:nonzero;stroke:none"
       id="path3027" /><path
       d="m 502.252,547.131 c 0,-5.309 -4.301,-9.61 -9.61,-9.61 -5.309,0 -9.61,4.301 -9.61,9.61 0,5.309 4.301,9.61 9.61,9.61 5.309,0 9.61,-4.301 9.61,-9.61"
       style="fill:#ffffff;fill-opacity:1;fill-rule:nonzero;stroke:none"
       id="path3029" /><path
       d="m 515.981,547.131 c 0,-5.309 -4.301,-9.61 -9.61,-9.61 -5.31,0 -9.61,4.301 -9.61,9.61 0,5.309 4.3,9.61 9.61,9.61 5.309,0 9.61,-4.301 9.61,-9.61"
       style="fill:#ffffff;fill-opacity:1;fill-rule:nonzero;stroke:none"
       id="path3031" /><path
       d="m 529.709,547.131 c 0,-5.309 -4.301,-9.61 -9.609,-9.61 -5.309,0 -9.61,4.301 -9.61,9.61 0,5.309 4.301,9.61 9.61,9.61 5.308,0 9.609,-4.301 9.609,-9.61"
       style="fill:#ffffff;fill-opacity:1;fill-rule:nonzero;stroke:none"
       id="path3033" /><path
       d="m 543.44,547.131 c 0,-5.309 -4.302,-9.61 -9.611,-9.61 -5.309,0 -9.6099,4.301 -9.6099,9.61 0,5.309 4.3009,9.61 9.6099,9.61 5.309,0 9.611,-4.301 9.611,-9.61"
       style="fill:#ffffff;fill-opacity:1;fill-rule:nonzero;stroke:none"
       id="path3035" /><path
       d="m 557.169,547.131 c 0,-5.309 -4.302,-9.61 -9.611,-9.61 -5.31,0 -9.611,4.301 -9.611,9.61 0,5.309 4.301,9.61 9.611,9.61 5.309,0 9.611,-4.301 9.611,-9.61"
       style="fill:#ffffff;fill-opacity:1;fill-rule:nonzero;stroke:none"
       id="path3037" /><path
       d="m 573.643,560.86 c 0,-5.31 -4.301,-9.611 -9.611,-9.611 -5.308,0 -9.609,4.301 -9.609,9.611 0,5.309 4.301,9.61 9.609,9.61 5.31,0 9.611,-4.301 9.611,-9.61"
       style="fill:#ffffff;fill-opacity:1;fill-rule:nonzero;stroke:none"
       id="path3039" /><path
       d="m 543.44,560.86 c 0,-5.31 -4.302,-9.611 -9.611,-9.611 -5.309,0 -9.6099,4.301 -9.6099,9.611 0,5.309 4.3009,9.61 9.6099,9.61 5.309,0 9.611,-4.301 9.611,-9.61"
       style="fill:#ffffff;fill-opacity:1;fill-rule:nonzero;stroke:none"
       id="path3041" /><path
       d="m 534.44,556.86 c 0,-5.31 -4.302,-9.611 -9.611,-9.611 -5.309,0 -9.61,4.301 -9.61,9.611 0,5.309 4.301,9.61 9.61,9.61 5.309,0 9.611,-4.301 9.611,-9.61"
       style="fill:#ffffff;fill-opacity:1;fill-rule:nonzero;stroke:none"
       id="path3043" /><path
       d="m 510.49,560.86 c 0,-5.31 -4.3,-9.611 -9.61,-9.611 -5.31,0 -9.61,4.301 -9.61,9.611 0,5.309 4.3,9.61 9.61,9.61 5.31,0 9.61,-4.301 9.61,-9.61"
       style="fill:#ffffff;fill-opacity:1;fill-rule:nonzero;stroke:none"
       id="path3045" /><path
       d="m 524.2191,555.368 c 0,-5.309 -4.3011,-9.61 -9.6111,-9.61 -5.308,0 -9.61,4.301 -9.61,9.61 0,5.309 4.302,9.61 9.61,9.61 5.31,0 9.6111,-4.301 9.6111,-9.61"
       style="fill:#ffffff;fill-opacity:1;fill-rule:nonzero;stroke:none"
       id="path3047" /><path
       d="m 467.219,561.368 c 0,-5.309 -4.301,-9.6099 -9.611,-9.6099 -5.308,0 -9.61,4.3009 -9.61,9.6099 0,5.309 4.302,9.61 9.61,9.61 5.31,0 9.611,-4.301 9.611,-9.61"
       style="fill:#ffffff;fill-opacity:1;fill-rule:nonzero;stroke:none"
       id="path3049" /><path
       d="m 642.287,555.368 c 0,-5.309 -4.301,-9.61 -9.61,-9.61 -5.31,0 -9.611,4.301 -9.611,9.61 0,5.309 4.301,9.61 9.611,9.61 5.309,0 9.61,-4.301 9.61,-9.61"
       style="fill:#ffffff;fill-opacity:1;fill-rule:nonzero;stroke:none"
       id="path3051" /><path
       d="m 617.575,558.114 c 0,-5.3089 -4.301,-9.61 -9.61,-9.61 -5.309,0 -9.609,4.3011 -9.609,9.61 0,5.309 4.3,9.61 9.609,9.61 5.309,0 9.61,-4.301 9.61,-9.61"
       style="fill:#ffffff;fill-opacity:1;fill-rule:nonzero;stroke:none"
       id="path3053" /><path
       d="m 601.101,555.368 c 0,-5.309 -4.301,-9.61 -9.611,-9.61 -5.309,0 -9.61,4.301 -9.61,9.61 0,5.309 4.301,9.61 9.61,9.61 5.31,0 9.611,-4.301 9.611,-9.61"
       style="fill:#ffffff;fill-opacity:1;fill-rule:nonzero;stroke:none"
       id="path3055" /><path
       d="m 463.811,552.622 c 0,-5.309 -4.301,-9.61 -9.61,-9.61 -5.309,0 -9.61,4.301 -9.61,9.61 0,5.31 4.301,9.611 9.61,9.611 5.309,0 9.61,-4.301 9.61,-9.611"
       style="fill:#ffffff;fill-opacity:1;fill-rule:nonzero;stroke:none"
       id="path3057" /><path
       d="m 439.099,558.114 c 0,-5.3089 -4.301,-9.61 -9.61,-9.61 -5.309,0 -9.61,4.3011 -9.61,9.61 0,5.309 4.301,9.61 9.61,9.61 5.309,0 9.61,-4.301 9.61,-9.61"
       style="fill:#ffffff;fill-opacity:1;fill-rule:nonzero;stroke:none"
       id="path3059" /><path
       d="m 451.099,554.114 c 0,-5.3089 -4.301,-9.61 -9.61,-9.61 -5.309,0 -9.61,4.3011 -9.61,9.61 0,5.309 4.301,9.61 9.61,9.61 5.309,0 9.61,-4.301 9.61,-9.61"
       style="fill:#ffffff;fill-opacity:1;fill-rule:nonzero;stroke:none"
       id="path3061" /><path
       d="m 481.1,559.114 c 0,-5.3089 -4.302,-9.61 -9.611,-9.61 -5.309,0 -9.61,4.3011 -9.61,9.61 0,5.309 4.301,9.61 9.61,9.61 5.309,0 9.611,-4.301 9.611,-9.61"
       style="fill:#ffffff;fill-opacity:1;fill-rule:nonzero;stroke:none"
       id="path3063" /><path
       d="m 557.1,557.114 c 0,-5.3089 -4.301,-9.61 -9.612,-9.61 -5.308,0 -9.609,4.3011 -9.609,9.61 0,5.309 4.301,9.61 9.609,9.61 5.311,0 9.612,-4.301 9.612,-9.61"
       style="fill:#ffffff;fill-opacity:1;fill-rule:nonzero;stroke:none"
       id="path3065" /><path
       d="m 587.1,554.114 c 0,-5.3089 -4.301,-9.61 -9.612,-9.61 -5.308,0 -9.609,4.3011 -9.609,9.61 0,5.309 4.301,9.61 9.609,9.61 5.311,0 9.612,-4.301 9.612,-9.61"
       style="fill:#ffffff;fill-opacity:1;fill-rule:nonzero;stroke:none"
       id="path3067" /><path
       d="m 411.642,547.131 c 0,-5.309 -4.302,-9.61 -9.611,-9.61 -5.309,0 -9.61,4.301 -9.61,9.61 0,5.309 4.301,9.61 9.61,9.61 5.309,0 9.611,-4.301 9.611,-9.61"
       style="fill:#ffffff;fill-opacity:1;fill-rule:nonzero;stroke:none"
       id="path3069" /><path
       d="m 433.608,547.131 c 0,-5.309 -4.301,-9.61 -9.61,-9.61 -5.309,0 -9.611,4.301 -9.611,9.61 0,5.309 4.302,9.61 9.611,9.61 5.309,0 9.61,-4.301 9.61,-9.61"
       style="fill:#ffffff;fill-opacity:1;fill-rule:nonzero;stroke:none"
       id="path3071" /><path
       d="m 425.37,547.131 c 0,-5.309 -4.301,-9.61 -9.61,-9.61 -5.309,0 -9.61,4.301 -9.61,9.61 0,5.309 4.301,9.61 9.61,9.61 5.309,0 9.61,-4.301 9.61,-9.61"
       style="fill:#ffffff;fill-opacity:1;fill-rule:nonzero;stroke:none"
       id="path3073" /><path
       d="m 392.421,533.402 c 0,-5.309 -4.301,-9.6099 -9.61,-9.6099 -5.309,0 -9.611,4.3009 -9.611,9.6099 0,5.309 4.302,9.61 9.611,9.61 5.309,0 9.61,-4.301 9.61,-9.61"
       style="fill:#ffffff;fill-opacity:1;fill-rule:nonzero;stroke:none"
       id="path3075" /><path
       d="m 373.2,527.91 c 0,-5.309 -4.301,-9.61 -9.61,-9.61 -5.309,0 -9.61,4.301 -9.61,9.61 0,5.31 4.301,9.611 9.61,9.611 5.309,0 9.61,-4.301 9.61,-9.611"
       style="fill:#ffffff;fill-opacity:1;fill-rule:nonzero;stroke:none"
       id="path3077" /><path
       d="m 353.98,497.707 c 0,-5.31 -4.301,-9.611 -9.61,-9.611 -5.31,0 -9.611,4.301 -9.611,9.611 0,5.309 4.301,9.609 9.611,9.609 5.309,0 9.61,-4.3 9.61,-9.609"
       style="fill:#ffffff;fill-opacity:1;fill-rule:nonzero;stroke:none"
       id="path3079" /><path
       d="m 342.997,475.74 c 0,-5.309 -4.301,-9.61 -9.61,-9.61 -5.309,0 -9.611,4.301 -9.611,9.61 0,5.309 4.302,9.611 9.611,9.611 5.309,0 9.61,-4.302 9.61,-9.611"
       style="fill:#ffffff;fill-opacity:1;fill-rule:nonzero;stroke:none"
       id="path3081" /><path
       d="m 362.217,514.181 c 0,-5.309 -4.301,-9.61 -9.61,-9.61 -5.309,0 -9.61,4.301 -9.61,9.61 0,5.31 4.301,9.6111 9.61,9.6111 5.309,0 9.61,-4.3011 9.61,-9.6111"
       style="fill:#ffffff;fill-opacity:1;fill-rule:nonzero;stroke:none"
       id="path3083" /><path
       d="m 669.7451,552.622 c 0,-5.309 -4.302,-9.61 -9.6101,-9.61 -5.31,0 -9.611,4.301 -9.611,9.61 0,5.31 4.301,9.611 9.611,9.611 5.3081,0 9.6101,-4.301 9.6101,-9.611"
       style="fill:#ffffff;fill-opacity:1;fill-rule:nonzero;stroke:none"
       id="path3085" /><path
       d="m 688.966,541.639 c 0,-5.309 -4.301,-9.6099 -9.61,-9.6099 -5.31,0 -9.6109,4.3009 -9.6109,9.6099 0,5.309 4.3009,9.61 9.6109,9.61 5.309,0 9.61,-4.301 9.61,-9.61"
       style="fill:#ffffff;fill-opacity:1;fill-rule:nonzero;stroke:none"
       id="path3087" /><path
       d="m 679.966,546.639 c 0,-5.309 -4.301,-9.6099 -9.61,-9.6099 -5.31,0 -9.6109,4.3009 -9.6109,9.6099 0,5.309 4.3009,9.61 9.6109,9.61 5.309,0 9.61,-4.301 9.61,-9.61"
       style="fill:#ffffff;fill-opacity:1;fill-rule:nonzero;stroke:none"
       id="path3089" /><path
       d="m 570.898,547.131 c 0,-5.309 -4.302,-9.61 -9.612,-9.61 -5.308,0 -9.609,4.301 -9.609,9.61 0,5.309 4.301,9.61 9.609,9.61 5.31,0 9.612,-4.301 9.612,-9.61"
       style="fill:#ffffff;fill-opacity:1;fill-rule:nonzero;stroke:none"
       id="path3091" /><path
       d="m 584.626,547.131 c 0,-5.309 -4.302,-9.61 -9.6099,-9.61 -5.31,0 -9.6111,4.301 -9.6111,9.61 0,5.309 4.3011,9.61 9.6111,9.61 5.3079,0 9.6099,-4.301 9.6099,-9.61"
       style="fill:#ffffff;fill-opacity:1;fill-rule:nonzero;stroke:none"
       id="path3093" /><path
       d="m 598.356,547.131 c 0,-5.309 -4.302,-9.61 -9.612,-9.61 -5.309,0 -9.61,4.301 -9.61,9.61 0,5.309 4.301,9.61 9.61,9.61 5.31,0 9.612,-4.301 9.612,-9.61"
       style="fill:#ffffff;fill-opacity:1;fill-rule:nonzero;stroke:none"
       id="path3095" /><path
       d="m 612.084,547.131 c 0,-5.309 -4.302,-9.61 -9.611,-9.61 -5.309,0 -9.61,4.301 -9.61,9.61 0,5.309 4.301,9.61 9.61,9.61 5.309,0 9.611,-4.301 9.611,-9.61"
       style="fill:#ffffff;fill-opacity:1;fill-rule:nonzero;stroke:none"
       id="path3097" /><path
       d="m 625.812,547.131 c 0,-5.309 -4.301,-9.61 -9.61,-9.61 -5.309,0 -9.61,4.301 -9.61,9.61 0,5.309 4.301,9.61 9.61,9.61 5.309,0 9.61,-4.301 9.61,-9.61"
       style="fill:#ffffff;fill-opacity:1;fill-rule:nonzero;stroke:none"
       id="path3099" /><path
       d="m 639.5421,547.131 c 0,-5.309 -4.3021,-9.61 -9.6111,-9.61 -5.309,0 -9.611,4.301 -9.611,9.61 0,5.309 4.302,9.61 9.611,9.61 5.309,0 9.6111,-4.301 9.6111,-9.61"
       style="fill:#ffffff;fill-opacity:1;fill-rule:nonzero;stroke:none"
       id="path3101" /><path
       d="m 629.5421,555.131 c 0,-5.309 -4.3021,-9.61 -9.6111,-9.61 -5.309,0 -9.611,4.301 -9.611,9.61 0,5.309 4.302,9.61 9.611,9.61 5.309,0 9.6111,-4.301 9.6111,-9.61"
       style="fill:#ffffff;fill-opacity:1;fill-rule:nonzero;stroke:none"
       id="path3103" /><path
       d="m 495.542,560.131 c 0,-5.309 -4.302,-9.61 -9.611,-9.61 -5.309,0 -9.611,4.301 -9.611,9.61 0,5.309 4.302,9.61 9.611,9.61 5.309,0 9.611,-4.301 9.611,-9.61"
       style="fill:#ffffff;fill-opacity:1;fill-rule:nonzero;stroke:none"
       id="path3105" /><path
       d="m 653.2711,547.131 c 0,-5.309 -4.302,-9.61 -9.6111,-9.61 -5.309,0 -9.61,4.301 -9.61,9.61 0,5.309 4.301,9.61 9.61,9.61 5.3091,0 9.6111,-4.301 9.6111,-9.61"
       style="fill:#ffffff;fill-opacity:1;fill-rule:nonzero;stroke:none"
       id="path3107" /><path
       d="m 668.373,540.2661 c 0,-5.3091 -4.302,-9.6101 -9.611,-9.6101 -5.31,0 -9.611,4.301 -9.611,9.6101 0,5.3099 4.301,9.6109 9.611,9.6109 5.309,0 9.611,-4.301 9.611,-9.6109"
       style="fill:#ffffff;fill-opacity:1;fill-rule:nonzero;stroke:none"
       id="path3109" /><path
       d="m 680.729,536.147 c 0,-5.309 -4.301,-9.609 -9.612,-9.609 -5.308,0 -9.6089,4.3 -9.6089,9.609 0,5.31 4.3009,9.611 9.6089,9.611 5.311,0 9.612,-4.301 9.612,-9.611"
       style="fill:#ffffff;fill-opacity:1;fill-rule:nonzero;stroke:none"
       id="path3111" /><path
       d="m 699.9481,532.0291 c 0,-5.3091 -4.3001,-9.6101 -9.6101,-9.6101 -5.3089,0 -9.609,4.301 -9.609,9.6101 0,5.3089 4.3001,9.6099 9.609,9.6099 5.31,0 9.6101,-4.301 9.6101,-9.6099"
       style="fill:#ffffff;fill-opacity:1;fill-rule:nonzero;stroke:none"
       id="path3113" /><path
       d="m 712.306,525.165 c 0,-5.31 -4.302,-9.611 -9.612,-9.611 -5.309,0 -9.61,4.301 -9.61,9.611 0,5.309 4.301,9.609 9.61,9.609 5.31,0 9.612,-4.3 9.612,-9.609"
       style="fill:#ffffff;fill-opacity:1;fill-rule:nonzero;stroke:none"
       id="path3115" /><path
       d="m 726.661,518.809 c 0,-5.309 -4.302,-9.611 -9.611,-9.611 -5.309,0 -9.61,4.302 -9.61,9.611 0,5.309 4.301,9.61 9.61,9.61 5.309,0 9.611,-4.301 9.611,-9.61"
       style="fill:#ffffff;fill-opacity:1;fill-rule:nonzero;stroke:none"
       id="path3117" /><path
       d="m 736.272,504.707 c 0,-5.31 -4.301,-9.611 -9.611,-9.611 -5.3089,0 -9.611,4.301 -9.611,9.611 0,5.309 4.3021,9.609 9.611,9.609 5.31,0 9.611,-4.3 9.611,-9.609"
       style="fill:#ffffff;fill-opacity:1;fill-rule:nonzero;stroke:none"
       id="path3119" /><path
       d="m 742.39,490.351 c 0,-5.309 -4.302,-9.611 -9.6109,-9.611 -5.3091,0 -9.6101,4.302 -9.6101,9.611 0,5.309 4.301,9.61 9.6101,9.61 5.3089,0 9.6109,-4.301 9.6109,-9.61"
       style="fill:#ffffff;fill-opacity:1;fill-rule:nonzero;stroke:none"
       id="path3121" /><path
       d="m 747.135,477.74 c 0,-5.309 -4.301,-9.61 -9.61,-9.61 -5.3089,0 -9.61,4.301 -9.61,9.61 0,5.309 4.3011,9.611 9.61,9.611 5.309,0 9.61,-4.302 9.61,-9.611"
       style="fill:#ffffff;fill-opacity:1;fill-rule:nonzero;stroke:none"
       id="path3123" /><path
       d="m 743.881,463.384 c 0,-5.309 -4.301,-9.61 -9.6099,-9.61 -5.3091,0 -9.6101,4.301 -9.6101,9.61 0,5.309 4.301,9.611 9.6101,9.611 5.3089,0 9.6099,-4.302 9.6099,-9.611"
       style="fill:#ffffff;fill-opacity:1;fill-rule:nonzero;stroke:none"
       id="path3125" /><path
       d="m 750.881,451.655 c 0,-5.309 -4.301,-9.61 -9.6099,-9.61 -5.3091,0 -9.6101,4.301 -9.6101,9.61 0,5.309 4.301,9.611 9.6101,9.611 5.3089,0 9.6099,-4.302 9.6099,-9.611"
       style="fill:#ffffff;fill-opacity:1;fill-rule:nonzero;stroke:none"
       id="path3127" /><path
       d="m 746,437.18 c 0,-5.309 -4.301,-9.61 -9.61,-9.61 -5.3089,0 -9.6109,4.301 -9.6109,9.61 0,5.31 4.302,9.611 9.6109,9.611 5.309,0 9.61,-4.301 9.61,-9.611"
       style="fill:#ffffff;fill-opacity:1;fill-rule:nonzero;stroke:none"
       id="path3129" /><path
       d="m 750.627,423.197 c 0,-5.309 -4.301,-9.61 -9.61,-9.61 -5.309,0 -9.611,4.301 -9.611,9.61 0,5.31 4.302,9.612 9.611,9.612 5.309,0 9.61,-4.302 9.61,-9.612"
       style="fill:#ffffff;fill-opacity:1;fill-rule:nonzero;stroke:none"
       id="path3131" /><path
       d="m 745.254,412.587 c 0,-5.309 -4.3009,-9.609 -9.609,-9.609 -5.31,0 -9.6109,4.3 -9.6109,9.609 0,5.31 4.3009,9.61 9.6109,9.61 5.3081,0 9.609,-4.3 9.609,-9.61"
       style="fill:#ffffff;fill-opacity:1;fill-rule:nonzero;stroke:none"
       id="path3133" /><path
       d="m 756.254,410.587 c 0,-5.309 -4.3009,-9.609 -9.609,-9.609 -5.31,0 -9.6109,4.3 -9.6109,9.609 0,5.309 4.3009,9.61 9.6109,9.61 5.3081,0 9.609,-4.301 9.609,-9.61"
       style="fill:#ffffff;fill-opacity:1;fill-rule:nonzero;stroke:none"
       id="path3135" /><path
       d="m 756.254,436.587 c 0,-5.309 -4.3009,-9.609 -9.609,-9.609 -5.31,0 -9.6109,4.3 -9.6109,9.609 0,5.31 4.3009,9.61 9.6109,9.61 5.3081,0 9.609,-4.3 9.609,-9.61"
       style="fill:#ffffff;fill-opacity:1;fill-rule:nonzero;stroke:none"
       id="path3137" /><path
       d="m 758.254,465.587 c 0,-5.309 -4.3009,-9.609 -9.61,-9.609 -5.309,0 -9.6099,4.3 -9.6099,9.609 0,5.31 4.3009,9.61 9.6099,9.61 5.3091,0 9.61,-4.3 9.61,-9.61"
       style="fill:#ffffff;fill-opacity:1;fill-rule:nonzero;stroke:none"
       id="path3139" /><path
       d="m 716.254,532.587 c 0,-5.309 -4.3009,-9.609 -9.61,-9.609 -5.309,0 -9.6099,4.3 -9.6099,9.609 0,5.309 4.3009,9.61 9.6099,9.61 5.3091,0 9.61,-4.301 9.61,-9.61"
       style="fill:#ffffff;fill-opacity:1;fill-rule:nonzero;stroke:none"
       id="path3141" /><path
       d="m 749.5081,396.858 c 0,-5.309 -4.3011,-9.61 -9.6101,-9.61 -5.3089,0 -9.61,4.301 -9.61,9.61 0,5.31 4.3011,9.611 9.61,9.611 5.309,0 9.6101,-4.301 9.6101,-9.611"
       style="fill:#ffffff;fill-opacity:1;fill-rule:nonzero;stroke:none"
       id="path3143" /><path
       d="m 748.7631,382.13 c 0,-5.31 -4.302,-9.61 -9.6111,-9.61 -5.309,0 -9.6099,4.3 -9.6099,9.61 0,5.309 4.3009,9.609 9.6099,9.609 5.3091,0 9.6111,-4.3 9.6111,-9.609"
       style="fill:#ffffff;fill-opacity:1;fill-rule:nonzero;stroke:none"
       id="path3145" /><path
       d="m 745.39,367.027 c 0,-5.308 -4.302,-9.609 -9.6109,-9.609 -5.3091,0 -9.6101,4.301 -9.6101,9.609 0,5.31 4.301,9.611 9.6101,9.611 5.3089,0 9.6109,-4.301 9.6109,-9.611"
       style="fill:#ffffff;fill-opacity:1;fill-rule:nonzero;stroke:none"
       id="path3147" /><path
       d="m 730.152,359.045 c 0,-5.31 -4.2999,-9.611 -9.6099,-9.611 -5.3091,0 -9.6091,4.301 -9.6091,9.611 0,5.309 4.3,9.609 9.6091,9.609 5.31,0 9.6099,-4.3 9.6099,-9.609"
       style="fill:#ffffff;fill-opacity:1;fill-rule:nonzero;stroke:none"
       id="path3149" /><path
       d="m 726.0341,348.062 c 0,-5.31 -4.302,-9.611 -9.6111,-9.611 -5.309,0 -9.609,4.301 -9.609,9.611 0,5.309 4.3,9.61 9.609,9.61 5.3091,0 9.6111,-4.301 9.6111,-9.61"
       style="fill:#ffffff;fill-opacity:1;fill-rule:nonzero;stroke:none"
       id="path3151" /><path
       d="m 717.796,334.333 c 0,-5.31 -4.3009,-9.611 -9.609,-9.611 -5.31,0 -9.611,4.301 -9.611,9.611 0,5.309 4.301,9.609 9.611,9.609 5.3081,0 9.609,-4.3 9.609,-9.609"
       style="fill:#ffffff;fill-opacity:1;fill-rule:nonzero;stroke:none"
       id="path3153" /><path
       d="m 702.694,328.841 c 0,-5.31 -4.3,-9.61 -9.61,-9.61 -5.309,0 -9.609,4.3 -9.609,9.61 0,5.309 4.3,9.61 9.609,9.61 5.31,0 9.61,-4.301 9.61,-9.61"
       style="fill:#ffffff;fill-opacity:1;fill-rule:nonzero;stroke:none"
       id="path3155" /><path
       d="m 690.338,317.858 c 0,-5.309 -4.301,-9.611 -9.609,-9.611 -5.31,0 -9.612,4.302 -9.612,9.611 0,5.309 4.302,9.61 9.612,9.61 5.308,0 9.609,-4.301 9.609,-9.61"
       style="fill:#ffffff;fill-opacity:1;fill-rule:nonzero;stroke:none"
       id="path3157" /><path
       d="m 677.9821,310.993 c 0,-5.309 -4.3001,-9.61 -9.6091,-9.61 -5.31,0 -9.611,4.301 -9.611,9.61 0,5.309 4.301,9.61 9.611,9.61 5.309,0 9.6091,-4.301 9.6091,-9.61"
       style="fill:#ffffff;fill-opacity:1;fill-rule:nonzero;stroke:none"
       id="path3159" /><path
       d="m 662.881,309.62 c 0,-5.31 -4.301,-9.61 -9.6099,-9.61 -5.3091,0 -9.6111,4.3 -9.6111,9.61 0,5.31 4.302,9.611 9.6111,9.611 5.3089,0 9.6099,-4.301 9.6099,-9.611"
       style="fill:#ffffff;fill-opacity:1;fill-rule:nonzero;stroke:none"
       id="path3161" /><path
       d="m 642.287,312.366 c 0,-5.309 -4.301,-9.61 -9.61,-9.61 -5.31,0 -9.611,4.301 -9.611,9.61 0,5.309 4.301,9.61 9.611,9.61 5.309,0 9.61,-4.301 9.61,-9.61"
       style="fill:#ffffff;fill-opacity:1;fill-rule:nonzero;stroke:none"
       id="path3163" /><path
       d="m 627.1851,312.366 c 0,-5.309 -4.3001,-9.61 -9.6101,-9.61 -5.3089,0 -9.61,4.301 -9.61,9.61 0,5.309 4.3011,9.61 9.61,9.61 5.31,0 9.6101,-4.301 9.6101,-9.61"
       style="fill:#ffffff;fill-opacity:1;fill-rule:nonzero;stroke:none"
       id="path3165" /><path
       d="m 606.592,310.993 c 0,-5.309 -4.301,-9.61 -9.611,-9.61 -5.308,0 -9.61,4.301 -9.61,9.61 0,5.309 4.302,9.61 9.61,9.61 5.31,0 9.611,-4.301 9.611,-9.61"
       style="fill:#ffffff;fill-opacity:1;fill-rule:nonzero;stroke:none"
       id="path3167" /><path
       d="m 594.236,309.62 c 0,-5.31 -4.301,-9.61 -9.61,-9.61 -5.309,0 -9.6099,4.3 -9.6099,9.61 0,5.31 4.3009,9.611 9.6099,9.611 5.309,0 9.61,-4.301 9.61,-9.611"
       style="fill:#ffffff;fill-opacity:1;fill-rule:nonzero;stroke:none"
       id="path3169" /><path
       d="m 562.659,316.485 c 0,-5.309 -4.301,-9.611 -9.61,-9.611 -5.309,0 -9.609,4.302 -9.609,9.611 0,5.309 4.3,9.61 9.609,9.61 5.309,0 9.61,-4.301 9.61,-9.61"
       style="fill:#ffffff;fill-opacity:1;fill-rule:nonzero;stroke:none"
       id="path3171" /><path
       d="m 484.404,312.366 c 0,-5.309 -4.3,-9.61 -9.61,-9.61 -5.309,0 -9.61,4.301 -9.61,9.61 0,5.309 4.301,9.61 9.61,9.61 5.31,0 9.61,-4.301 9.61,-9.61"
       style="fill:#ffffff;fill-opacity:1;fill-rule:nonzero;stroke:none"
       id="path3173" /><path
       d="m 465.184,313.739 c 0,-5.309 -4.301,-9.61 -9.61,-9.61 -5.309,0 -9.61,4.301 -9.61,9.61 0,5.309 4.301,9.61 9.61,9.61 5.309,0 9.61,-4.301 9.61,-9.61"
       style="fill:#ffffff;fill-opacity:1;fill-rule:nonzero;stroke:none"
       id="path3175" /><path
       d="m 451.455,316.485 c 0,-5.309 -4.301,-9.611 -9.61,-9.611 -5.309,0 -9.61,4.302 -9.61,9.611 0,5.309 4.301,9.61 9.61,9.61 5.309,0 9.61,-4.301 9.61,-9.61"
       style="fill:#ffffff;fill-opacity:1;fill-rule:nonzero;stroke:none"
       id="path3177" /><path
       d="m 392.421,331.587 c 0,-5.31 -4.301,-9.611 -9.61,-9.611 -5.309,0 -9.611,4.301 -9.611,9.611 0,5.309 4.302,9.61 9.611,9.61 5.309,0 9.61,-4.301 9.61,-9.61"
       style="fill:#ffffff;fill-opacity:1;fill-rule:nonzero;stroke:none"
       id="path3179" /><path
       d="m 371.827,352.18 c 0,-5.31 -4.301,-9.611 -9.61,-9.611 -5.309,0 -9.61,4.301 -9.61,9.611 0,5.309 4.301,9.611 9.61,9.611 5.309,0 9.61,-4.302 9.61,-9.611"
       style="fill:#ffffff;fill-opacity:1;fill-rule:nonzero;stroke:none"
       id="path3181" /><path
       d="m 378.692,341.197 c 0,-5.309 -4.301,-9.61 -9.61,-9.61 -5.31,0 -9.611,4.301 -9.611,9.61 0,5.309 4.301,9.61 9.611,9.61 5.309,0 9.61,-4.301 9.61,-9.61"
       style="fill:#ffffff;fill-opacity:1;fill-rule:nonzero;stroke:none"
       id="path3183" /><path
       d="m 423.998,321.976 c 0,-5.309 -4.301,-9.61 -9.611,-9.61 -5.309,0 -9.61,4.301 -9.61,9.61 0,5.309 4.301,9.611 9.61,9.611 5.31,0 9.611,-4.302 9.611,-9.611"
       style="fill:#ffffff;fill-opacity:1;fill-rule:nonzero;stroke:none"
       id="path3185" /><path
       d="m 391.048,319.231 c 0,-5.309 -4.301,-9.611 -9.611,-9.611 -5.309,0 -9.61,4.302 -9.61,9.611 0,5.309 4.301,9.61 9.61,9.61 5.31,0 9.611,-4.301 9.611,-9.61"
       style="fill:#ffffff;fill-opacity:1;fill-rule:nonzero;stroke:none"
       id="path3187" /><path
       d="m 404.777,305.502 c 0,-5.309 -4.301,-9.61 -9.61,-9.61 -5.31,0 -9.61,4.301 -9.61,9.61 0,5.31 4.3,9.61 9.61,9.61 5.309,0 9.61,-4.3 9.61,-9.61"
       style="fill:#ffffff;fill-opacity:1;fill-rule:nonzero;stroke:none"
       id="path3189" /><path
       d="m 413.015,264.315 c 0,-5.31 -4.302,-9.611 -9.611,-9.611 -5.309,0 -9.61,4.301 -9.61,9.611 0,5.31 4.301,9.611 9.61,9.611 5.309,0 9.611,-4.301 9.611,-9.611"
       style="fill:#ffffff;fill-opacity:1;fill-rule:nonzero;stroke:none"
       id="path3191" /><path
       d="m 415.015,311.315 c 0,-5.31 -4.302,-9.611 -9.611,-9.611 -5.309,0 -9.61,4.301 -9.61,9.611 0,5.31 4.301,9.611 9.61,9.611 5.309,0 9.611,-4.301 9.611,-9.611"
       style="fill:#ffffff;fill-opacity:1;fill-rule:nonzero;stroke:none"
       id="path3193" /><path
       d="m 398.015,314.315 c 0,-5.31 -4.302,-9.611 -9.611,-9.611 -5.309,0 -9.61,4.301 -9.61,9.611 0,5.31 4.301,9.611 9.61,9.611 5.309,0 9.611,-4.301 9.611,-9.611"
       style="fill:#ffffff;fill-opacity:1;fill-rule:nonzero;stroke:none"
       id="path3195" /><path
       d="m 413.015,296.315 c 0,-5.31 -4.302,-9.611 -9.611,-9.611 -5.309,0 -9.61,4.301 -9.61,9.611 0,5.31 4.301,9.611 9.61,9.611 5.309,0 9.611,-4.301 9.611,-9.611"
       style="fill:#ffffff;fill-opacity:1;fill-rule:nonzero;stroke:none"
       id="path3197" /><path
       d="m 386.015,289.315 c 0,-5.31 -4.302,-9.611 -9.611,-9.611 -5.309,0 -9.61,4.301 -9.61,9.611 0,5.31 4.301,9.611 9.61,9.611 5.309,0 9.611,-4.301 9.611,-9.611"
       style="fill:#ffffff;fill-opacity:1;fill-rule:nonzero;stroke:none"
       id="path3199" /><path
       d="m 717.015,322.315 c 0,-5.31 -4.302,-9.611 -9.6109,-9.611 -5.3091,0 -9.6111,4.301 -9.6111,9.611 0,5.31 4.302,9.611 9.6111,9.611 5.3089,0 9.6109,-4.301 9.6109,-9.611"
       style="fill:#ffffff;fill-opacity:1;fill-rule:nonzero;stroke:none"
       id="path3201" /><path
       d="m 599.015,117.315 c 0,-5.31 -4.302,-9.611 -9.6109,-9.611 -5.3091,0 -9.6111,4.301 -9.6111,9.611 0,5.31 4.302,9.611 9.6111,9.611 5.3089,0 9.6109,-4.301 9.6109,-9.611"
       style="fill:#ffffff;fill-opacity:1;fill-rule:nonzero;stroke:none"
       id="path3203" /><path
       d="m 475.015,306.315 c 0,-5.31 -4.302,-9.611 -9.611,-9.611 -5.309,0 -9.611,4.301 -9.611,9.611 0,5.31 4.302,9.611 9.611,9.611 5.309,0 9.611,-4.301 9.611,-9.611"
       style="fill:#ffffff;fill-opacity:1;fill-rule:nonzero;stroke:none"
       id="path3205" /><path
       d="m 445.015,306.315 c 0,-5.31 -4.302,-9.611 -9.611,-9.611 -5.309,0 -9.611,4.301 -9.611,9.611 0,5.31 4.302,9.611 9.611,9.611 5.309,0 9.611,-4.301 9.611,-9.611"
       style="fill:#ffffff;fill-opacity:1;fill-rule:nonzero;stroke:none"
       id="path3207" /><path
       d="m 508.015,302.315 c 0,-5.31 -4.302,-9.611 -9.611,-9.611 -5.309,0 -9.611,4.301 -9.611,9.611 0,5.31 4.302,9.611 9.611,9.611 5.309,0 9.611,-4.301 9.611,-9.611"
       style="fill:#ffffff;fill-opacity:1;fill-rule:nonzero;stroke:none"
       id="path3209" /><path
       d="m 413.015,187.433 c 0,-5.309 -4.302,-9.61 -9.611,-9.61 -5.309,0 -9.61,4.301 -9.61,9.61 0,5.309 4.301,9.61 9.61,9.61 5.309,0 9.611,-4.301 9.611,-9.61"
       style="fill:#ffffff;fill-opacity:1;fill-rule:nonzero;stroke:none"
       id="path3211" /><path
       d="m 387.015,262.433 c 0,-5.309 -4.302,-9.61 -9.611,-9.61 -5.309,0 -9.611,4.301 -9.611,9.61 0,5.309 4.302,9.61 9.611,9.61 5.309,0 9.611,-4.301 9.611,-9.61"
       style="fill:#ffffff;fill-opacity:1;fill-rule:nonzero;stroke:none"
       id="path3213" /><path
       d="m 706.015,268.433 c 0,-5.309 -4.302,-9.61 -9.6109,-9.61 -5.3091,0 -9.6111,4.301 -9.6111,9.61 0,5.309 4.302,9.61 9.6111,9.61 5.3089,0 9.6109,-4.301 9.6109,-9.61"
       style="fill:#ffffff;fill-opacity:1;fill-rule:nonzero;stroke:none"
       id="path3215" /><path
       d="m 656.015,114.433 c 0,-5.309 -4.302,-9.61 -9.6109,-9.61 -5.3091,0 -9.6111,4.301 -9.6111,9.61 0,5.309 4.302,9.61 9.6111,9.61 5.3089,0 9.6109,-4.301 9.6109,-9.61"
       style="fill:#ffffff;fill-opacity:1;fill-rule:nonzero;stroke:none"
       id="path3217" /><path
       d="m 650.015,28.433 c 0,-5.309 -4.302,-9.61 -9.6109,-9.61 -5.3091,0 -9.6111,4.301 -9.6111,9.61 0,5.309 4.302,9.61 9.6111,9.61 5.3089,0 9.6109,-4.301 9.6109,-9.61"
       style="fill:#ffffff;fill-opacity:1;fill-rule:nonzero;stroke:none"
       id="path3219" /><path
       d="m 456.947,305.502 c 0,-5.309 -4.301,-9.61 -9.611,-9.61 -5.308,0 -9.609,4.301 -9.609,9.61 0,5.31 4.301,9.61 9.609,9.61 5.31,0 9.611,-4.3 9.611,-9.61"
       style="fill:#ffffff;fill-opacity:1;fill-rule:nonzero;stroke:none"
       id="path3221" /><path
       d="m 495.388,305.502 c 0,-5.309 -4.301,-9.61 -9.611,-9.61 -5.308,0 -9.609,4.301 -9.609,9.61 0,5.31 4.301,9.61 9.609,9.61 5.31,0 9.611,-4.3 9.611,-9.61"
       style="fill:#ffffff;fill-opacity:1;fill-rule:nonzero;stroke:none"
       id="path3223" /><path
       d="m 470.675,291.773 c 0,-5.31 -4.3,-9.611 -9.609,-9.611 -5.31,0 -9.611,4.301 -9.611,9.611 0,5.309 4.301,9.61 9.611,9.61 5.309,0 9.609,-4.301 9.609,-9.61"
       style="fill:#ffffff;fill-opacity:1;fill-rule:nonzero;stroke:none"
       id="path3225" /><path
       d="m 602.473,300.01 c 0,-5.309 -4.3009,-9.61 -9.61,-9.61 -5.309,0 -9.6099,4.301 -9.6099,9.61 0,5.309 4.3009,9.61 9.6099,9.61 5.3091,0 9.61,-4.301 9.61,-9.61"
       style="fill:#ffffff;fill-opacity:1;fill-rule:nonzero;stroke:none"
       id="path3227" /><path
       d="m 632.677,305.502 c 0,-5.309 -4.301,-9.61 -9.611,-9.61 -5.3079,0 -9.609,4.301 -9.609,9.61 0,5.31 4.3011,9.61 9.609,9.61 5.31,0 9.611,-4.3 9.611,-9.61"
       style="fill:#ffffff;fill-opacity:1;fill-rule:nonzero;stroke:none"
       id="path3229" /><path
       d="m 682.1021,286.281 c 0,-5.309 -4.3021,-9.61 -9.6121,-9.61 -5.308,0 -9.609,4.301 -9.609,9.61 0,5.31 4.301,9.611 9.609,9.611 5.31,0 9.6121,-4.301 9.6121,-9.611"
       style="fill:#ffffff;fill-opacity:1;fill-rule:nonzero;stroke:none"
       id="path3231" /><path
       d="m 673.863,267.061 c 0,-5.31 -4.301,-9.611 -9.609,-9.611 -5.31,0 -9.61,4.301 -9.61,9.611 0,5.308 4.3,9.61 9.61,9.61 5.308,0 9.609,-4.302 9.609,-9.61"
       style="fill:#ffffff;fill-opacity:1;fill-rule:nonzero;stroke:none"
       id="path3233" /><path
       d="m 691.863,293.06 c 0,-5.309 -4.3,-9.61 -9.609,-9.61 -5.31,0 -9.61,4.301 -9.61,9.61 0,5.309 4.3,9.611 9.61,9.611 5.309,0 9.609,-4.302 9.609,-9.611"
       style="fill:#ffffff;fill-opacity:1;fill-rule:nonzero;stroke:none"
       id="path3235" /><path
       d="m 711.863,305.06 c 0,-5.309 -4.301,-9.61 -9.609,-9.61 -5.31,0 -9.61,4.301 -9.61,9.61 0,5.309 4.3,9.611 9.61,9.611 5.308,0 9.609,-4.302 9.609,-9.611"
       style="fill:#ffffff;fill-opacity:1;fill-rule:nonzero;stroke:none"
       id="path3237" /><path
       d="m 673.863,184.687 c 0,-5.309 -4.301,-9.61 -9.609,-9.61 -5.31,0 -9.61,4.301 -9.61,9.61 0,5.309 4.3,9.61 9.61,9.61 5.308,0 9.609,-4.301 9.609,-9.61"
       style="fill:#ffffff;fill-opacity:1;fill-rule:nonzero;stroke:none"
       id="path3239" /><path
       d="m 599.7271,245.095 c 0,-5.31 -4.3011,-9.611 -9.6101,-9.611 -5.308,0 -9.6089,4.301 -9.6089,9.611 0,5.308 4.3009,9.609 9.6089,9.609 5.309,0 9.6101,-4.301 9.6101,-9.609"
       style="fill:#ffffff;fill-opacity:1;fill-rule:nonzero;stroke:none"
       id="path3241" /><path
       d="m 598.7271,279.095 c 0,-5.31 -4.3011,-9.611 -9.6101,-9.611 -5.308,0 -9.6089,4.301 -9.6089,9.611 0,5.308 4.3009,9.609 9.6089,9.609 5.309,0 9.6101,-4.301 9.6101,-9.609"
       style="fill:#ffffff;fill-opacity:1;fill-rule:nonzero;stroke:none"
       id="path3243" /><path
       d="m 628.7271,283.095 c 0,-5.31 -4.3011,-9.611 -9.6101,-9.611 -5.308,0 -9.6089,4.301 -9.6089,9.611 0,5.308 4.3009,9.609 9.6089,9.609 5.309,0 9.6101,-4.301 9.6101,-9.609"
       style="fill:#ffffff;fill-opacity:1;fill-rule:nonzero;stroke:none"
       id="path3245" /><path
       d="m 613.7271,277.095 c 0,-5.31 -4.3011,-9.611 -9.6101,-9.611 -5.308,0 -9.6089,4.301 -9.6089,9.611 0,5.308 4.3009,9.609 9.6089,9.609 5.309,0 9.6101,-4.301 9.6101,-9.609"
       style="fill:#ffffff;fill-opacity:1;fill-rule:nonzero;stroke:none"
       id="path3247" /><path
       d="m 625.7271,269.095 c 0,-5.31 -4.3011,-9.611 -9.6101,-9.611 -5.308,0 -9.6089,4.301 -9.6089,9.611 0,5.308 4.3009,9.609 9.6089,9.609 5.309,0 9.6101,-4.301 9.6101,-9.609"
       style="fill:#ffffff;fill-opacity:1;fill-rule:nonzero;stroke:none"
       id="path3249" /><path
       d="m 547.7271,289.095 c 0,-5.31 -4.3011,-9.611 -9.6101,-9.611 -5.308,0 -9.609,4.301 -9.609,9.611 0,5.308 4.301,9.609 9.609,9.609 5.309,0 9.6101,-4.301 9.6101,-9.609"
       style="fill:#ffffff;fill-opacity:1;fill-rule:nonzero;stroke:none"
       id="path3251" /><path
       d="m 506.727,279.095 c 0,-5.31 -4.301,-9.611 -9.61,-9.611 -5.308,0 -9.609,4.301 -9.609,9.611 0,5.308 4.301,9.609 9.609,9.609 5.309,0 9.61,-4.301 9.61,-9.609"
       style="fill:#ffffff;fill-opacity:1;fill-rule:nonzero;stroke:none"
       id="path3253" /><path
       d="m 454.727,282.095 c 0,-5.31 -4.301,-9.611 -9.61,-9.611 -5.308,0 -9.609,4.301 -9.609,9.611 0,5.308 4.301,9.609 9.609,9.609 5.309,0 9.61,-4.301 9.61,-9.609"
       style="fill:#ffffff;fill-opacity:1;fill-rule:nonzero;stroke:none"
       id="path3255" /><path
       d="m 465.727,265.095 c 0,-5.31 -4.301,-9.611 -9.61,-9.611 -5.308,0 -9.609,4.301 -9.609,9.611 0,5.308 4.301,9.609 9.609,9.609 5.309,0 9.61,-4.301 9.61,-9.609"
       style="fill:#ffffff;fill-opacity:1;fill-rule:nonzero;stroke:none"
       id="path3257" /><path
       d="m 481.727,272.095 c 0,-5.31 -4.301,-9.611 -9.61,-9.611 -5.308,0 -9.609,4.301 -9.609,9.611 0,5.308 4.301,9.609 9.609,9.609 5.309,0 9.61,-4.301 9.61,-9.609"
       style="fill:#ffffff;fill-opacity:1;fill-rule:nonzero;stroke:none"
       id="path3259" /><path
       d="m 487.727,244.095 c 0,-5.31 -4.301,-9.611 -9.61,-9.611 -5.308,0 -9.609,4.301 -9.609,9.611 0,5.308 4.301,9.609 9.609,9.609 5.309,0 9.61,-4.301 9.61,-9.609"
       style="fill:#ffffff;fill-opacity:1;fill-rule:nonzero;stroke:none"
       id="path3261" /><path
       d="m 498.727,266.095 c 0,-5.31 -4.301,-9.611 -9.61,-9.611 -5.308,0 -9.609,4.301 -9.609,9.611 0,5.308 4.301,9.609 9.609,9.609 5.309,0 9.61,-4.301 9.61,-9.609"
       style="fill:#ffffff;fill-opacity:1;fill-rule:nonzero;stroke:none"
       id="path3263" /><path
       d="m 528.7271,282.095 c 0,-5.31 -4.3011,-9.611 -9.6101,-9.611 -5.308,0 -9.609,4.301 -9.609,9.611 0,5.308 4.301,9.609 9.609,9.609 5.309,0 9.6101,-4.301 9.6101,-9.609"
       style="fill:#ffffff;fill-opacity:1;fill-rule:nonzero;stroke:none"
       id="path3265" /><path
       d="m 599.7271,297.265 c 0,-5.31 -4.3011,-9.611 -9.6101,-9.611 -5.308,0 -9.6089,4.301 -9.6089,9.611 0,5.308 4.3009,9.609 9.6089,9.609 5.309,0 9.6101,-4.301 9.6101,-9.609"
       style="fill:#ffffff;fill-opacity:1;fill-rule:nonzero;stroke:none"
       id="path3267" /><path
       d="m 588.7271,291.265 c 0,-5.31 -4.3011,-9.611 -9.6101,-9.611 -5.308,0 -9.6089,4.301 -9.6089,9.611 0,5.308 4.3009,9.609 9.6089,9.609 5.309,0 9.6101,-4.301 9.6101,-9.609"
       style="fill:#ffffff;fill-opacity:1;fill-rule:nonzero;stroke:none"
       id="path3269" /><path
       d="m 585.7271,276.265 c 0,-5.31 -4.3011,-9.611 -9.6101,-9.611 -5.308,0 -9.6089,4.301 -9.6089,9.611 0,5.308 4.3009,9.609 9.6089,9.609 5.309,0 9.6101,-4.301 9.6101,-9.609"
       style="fill:#ffffff;fill-opacity:1;fill-rule:nonzero;stroke:none"
       id="path3271" /><path
       d="m 550.304,297.265 c 0,-5.31 -4.3009,-9.611 -9.6109,-9.611 -5.3081,0 -9.6101,4.301 -9.6101,9.611 0,5.308 4.302,9.609 9.6101,9.609 5.31,0 9.6109,-4.301 9.6109,-9.609"
       style="fill:#ffffff;fill-opacity:1;fill-rule:nonzero;stroke:none"
       id="path3273" /><path
       d="m 542.066,264.315 c 0,-5.31 -4.301,-9.611 -9.611,-9.611 -5.308,0 -9.609,4.301 -9.609,9.611 0,5.31 4.301,9.611 9.609,9.611 5.31,0 9.611,-4.301 9.611,-9.611"
       style="fill:#ffffff;fill-opacity:1;fill-rule:nonzero;stroke:none"
       id="path3275" /><path
       d="m 536.575,286.281 c 0,-5.309 -4.301,-9.61 -9.61,-9.61 -5.31,0 -9.611,4.301 -9.611,9.61 0,5.31 4.301,9.611 9.611,9.611 5.309,0 9.61,-4.301 9.61,-9.611"
       style="fill:#ffffff;fill-opacity:1;fill-rule:nonzero;stroke:none"
       id="path3277" /><path
       d="m 549.575,273.281 c 0,-5.309 -4.301,-9.61 -9.61,-9.61 -5.31,0 -9.611,4.301 -9.611,9.61 0,5.31 4.301,9.611 9.611,9.611 5.309,0 9.61,-4.301 9.61,-9.611"
       style="fill:#ffffff;fill-opacity:1;fill-rule:nonzero;stroke:none"
       id="path3279" /><path
       d="m 561.575,261.281 c 0,-5.309 -4.301,-9.61 -9.61,-9.61 -5.31,0 -9.611,4.301 -9.611,9.61 0,5.31 4.301,9.611 9.611,9.611 5.309,0 9.61,-4.301 9.61,-9.611"
       style="fill:#ffffff;fill-opacity:1;fill-rule:nonzero;stroke:none"
       id="path3281" /><path
       d="m 536.575,240.281 c 0,-5.309 -4.301,-9.61 -9.61,-9.61 -5.31,0 -9.611,4.301 -9.611,9.61 0,5.31 4.301,9.611 9.611,9.611 5.309,0 9.61,-4.301 9.61,-9.611"
       style="fill:#ffffff;fill-opacity:1;fill-rule:nonzero;stroke:none"
       id="path3283" /><path
       d="m 544.575,159.281 c 0,-5.309 -4.301,-9.61 -9.61,-9.61 -5.31,0 -9.611,4.301 -9.611,9.61 0,5.31 4.301,9.611 9.611,9.611 5.309,0 9.61,-4.301 9.61,-9.611"
       style="fill:#ffffff;fill-opacity:1;fill-rule:nonzero;stroke:none"
       id="path3285" /><path
       d="m 563.575,303.281 c 0,-5.309 -4.301,-9.61 -9.61,-9.61 -5.31,0 -9.611,4.301 -9.611,9.61 0,5.31 4.301,9.611 9.611,9.611 5.309,0 9.61,-4.301 9.61,-9.611"
       style="fill:#ffffff;fill-opacity:1;fill-rule:nonzero;stroke:none"
       id="path3287" /><path
       d="m 616.575,303.281 c 0,-5.309 -4.301,-9.61 -9.61,-9.61 -5.31,0 -9.611,4.301 -9.611,9.61 0,5.31 4.301,9.611 9.611,9.611 5.309,0 9.61,-4.301 9.61,-9.611"
       style="fill:#ffffff;fill-opacity:1;fill-rule:nonzero;stroke:none"
       id="path3289" /><path
       d="m 702.575,316.281 c 0,-5.309 -4.301,-9.61 -9.61,-9.61 -5.31,0 -9.611,4.301 -9.611,9.61 0,5.31 4.301,9.611 9.611,9.611 5.309,0 9.61,-4.301 9.61,-9.611"
       style="fill:#ffffff;fill-opacity:1;fill-rule:nonzero;stroke:none"
       id="path3291" /><path
       d="m 377.575,326.281 c 0,-5.309 -4.301,-9.61 -9.61,-9.61 -5.31,0 -9.611,4.301 -9.611,9.61 0,5.31 4.301,9.611 9.611,9.611 5.309,0 9.61,-4.301 9.61,-9.611"
       style="fill:#ffffff;fill-opacity:1;fill-rule:nonzero;stroke:none"
       id="path3293" /><path
       d="m 364.575,340.281 c 0,-5.309 -4.301,-9.61 -9.61,-9.61 -5.31,0 -9.612,4.301 -9.612,9.61 0,5.31 4.302,9.611 9.612,9.611 5.309,0 9.61,-4.301 9.61,-9.611"
       style="fill:#ffffff;fill-opacity:1;fill-rule:nonzero;stroke:none"
       id="path3295" /><path
       d="m 358.575,351.281 c 0,-5.309 -4.301,-9.61 -9.61,-9.61 -5.31,0 -9.612,4.301 -9.612,9.61 0,5.31 4.302,9.611 9.612,9.611 5.309,0 9.61,-4.301 9.61,-9.611"
       style="fill:#ffffff;fill-opacity:1;fill-rule:nonzero;stroke:none"
       id="path3297" /><path
       d="m 355.575,368.281 c 0,-5.309 -4.301,-9.61 -9.61,-9.61 -5.31,0 -9.612,4.301 -9.612,9.61 0,5.31 4.302,9.611 9.612,9.611 5.309,0 9.61,-4.301 9.61,-9.611"
       style="fill:#ffffff;fill-opacity:1;fill-rule:nonzero;stroke:none"
       id="path3299" /><path
       d="m 729.575,337.281 c 0,-5.309 -4.301,-9.61 -9.61,-9.61 -5.31,0 -9.611,4.301 -9.611,9.61 0,5.31 4.301,9.611 9.611,9.611 5.309,0 9.61,-4.301 9.61,-9.611"
       style="fill:#ffffff;fill-opacity:1;fill-rule:nonzero;stroke:none"
       id="path3301" /><path
       d="m 736.575,353.281 c 0,-5.309 -4.301,-9.61 -9.61,-9.61 -5.31,0 -9.611,4.301 -9.611,9.61 0,5.31 4.301,9.611 9.611,9.611 5.309,0 9.61,-4.301 9.61,-9.611"
       style="fill:#ffffff;fill-opacity:1;fill-rule:nonzero;stroke:none"
       id="path3303" /><path
       d="m 343.575,383.281 c 0,-5.309 -4.301,-9.61 -9.61,-9.61 -5.31,0 -9.611,4.301 -9.611,9.61 0,5.31 4.301,9.611 9.611,9.611 5.309,0 9.61,-4.301 9.61,-9.611"
       style="fill:#ffffff;fill-opacity:1;fill-rule:nonzero;stroke:none"
       id="path3305" /><path
       d="m 350.575,357.281 c 0,-5.309 -4.301,-9.61 -9.61,-9.61 -5.31,0 -9.611,4.301 -9.611,9.61 0,5.31 4.301,9.611 9.611,9.611 5.309,0 9.61,-4.301 9.61,-9.611"
       style="fill:#ffffff;fill-opacity:1;fill-rule:nonzero;stroke:none"
       id="path3307" /><path
       d="m 365.575,327.281 c 0,-5.309 -4.301,-9.61 -9.61,-9.61 -5.31,0 -9.611,4.301 -9.611,9.61 0,5.31 4.301,9.611 9.611,9.611 5.309,0 9.61,-4.301 9.61,-9.611"
       style="fill:#ffffff;fill-opacity:1;fill-rule:nonzero;stroke:none"
       id="path3309" /><path
       d="m 340.575,413.281 c 0,-5.309 -4.301,-9.61 -9.61,-9.61 -5.31,0 -9.611,4.301 -9.611,9.61 0,5.31 4.301,9.611 9.611,9.611 5.309,0 9.61,-4.301 9.61,-9.611"
       style="fill:#ffffff;fill-opacity:1;fill-rule:nonzero;stroke:none"
       id="path3311" /><path
       d="m 503.625,291.773 c 0,-5.31 -4.301,-9.611 -9.61,-9.611 -5.31,0 -9.611,4.301 -9.611,9.611 0,5.309 4.301,9.61 9.611,9.61 5.309,0 9.61,-4.301 9.61,-9.61"
       style="fill:#ffffff;fill-opacity:1;fill-rule:nonzero;stroke:none"
       id="path3313" /><path
       d="m 437.727,315.112 c 0,-5.309 -4.301,-9.61 -9.611,-9.61 -5.309,0 -9.61,4.301 -9.61,9.61 0,5.309 4.301,9.61 9.61,9.61 5.31,0 9.611,-4.301 9.611,-9.61"
       style="fill:#ffffff;fill-opacity:1;fill-rule:nonzero;stroke:none"
       id="path3315" /><path
       d="m 437.727,280.789 c 0,-5.309 -4.301,-9.609 -9.611,-9.609 -5.309,0 -9.61,4.3 -9.61,9.609 0,5.31 4.301,9.611 9.61,9.611 5.31,0 9.611,-4.301 9.611,-9.611"
       style="fill:#ffffff;fill-opacity:1;fill-rule:nonzero;stroke:none"
       id="path3317" /><path
       d="m 437.727,232.738 c 0,-5.308 -4.301,-9.61 -9.611,-9.61 -5.309,0 -9.61,4.302 -9.61,9.61 0,5.31 4.301,9.611 9.61,9.611 5.31,0 9.611,-4.301 9.611,-9.611"
       style="fill:#ffffff;fill-opacity:1;fill-rule:nonzero;stroke:none"
       id="path3319" /><path
       d="m 662.881,286.281 c 0,-5.309 -4.301,-9.61 -9.6099,-9.61 -5.3091,0 -9.6111,4.301 -9.6111,9.61 0,5.31 4.302,9.611 9.6111,9.611 5.3089,0 9.6099,-4.301 9.6099,-9.611"
       style="fill:#ffffff;fill-opacity:1;fill-rule:nonzero;stroke:none"
       id="path3321" /><path
       d="m 675.881,298.281 c 0,-5.309 -4.301,-9.61 -9.6099,-9.61 -5.3091,0 -9.6111,4.301 -9.6111,9.61 0,5.31 4.302,9.611 9.6111,9.611 5.3089,0 9.6099,-4.301 9.6099,-9.611"
       style="fill:#ffffff;fill-opacity:1;fill-rule:nonzero;stroke:none"
       id="path3323" /><path
       d="m 579.881,297.281 c 0,-5.309 -4.301,-9.61 -9.6099,-9.61 -5.3091,0 -9.6111,4.301 -9.6111,9.61 0,5.31 4.302,9.611 9.6111,9.611 5.3089,0 9.6099,-4.301 9.6099,-9.611"
       style="fill:#ffffff;fill-opacity:1;fill-rule:nonzero;stroke:none"
       id="path3325" /><path
       d="m 519.881,290.281 c 0,-5.309 -4.301,-9.61 -9.61,-9.61 -5.309,0 -9.611,4.301 -9.611,9.61 0,5.31 4.302,9.611 9.611,9.611 5.309,0 9.61,-4.301 9.61,-9.611"
       style="fill:#ffffff;fill-opacity:1;fill-rule:nonzero;stroke:none"
       id="path3327" /><path
       d="m 484.881,296.281 c 0,-5.309 -4.301,-9.61 -9.61,-9.61 -5.309,0 -9.611,4.301 -9.611,9.61 0,5.31 4.302,9.611 9.611,9.611 5.309,0 9.61,-4.301 9.61,-9.611"
       style="fill:#ffffff;fill-opacity:1;fill-rule:nonzero;stroke:none"
       id="path3329" /><path
       d="m 472.881,299.281 c 0,-5.309 -4.301,-9.61 -9.61,-9.61 -5.309,0 -9.611,4.301 -9.611,9.61 0,5.31 4.302,9.611 9.611,9.611 5.309,0 9.61,-4.301 9.61,-9.611"
       style="fill:#ffffff;fill-opacity:1;fill-rule:nonzero;stroke:none"
       id="path3331" /><path
       d="m 455.881,290.281 c 0,-5.309 -4.301,-9.61 -9.61,-9.61 -5.309,0 -9.611,4.301 -9.611,9.61 0,5.31 4.302,9.611 9.611,9.611 5.309,0 9.61,-4.301 9.61,-9.611"
       style="fill:#ffffff;fill-opacity:1;fill-rule:nonzero;stroke:none"
       id="path3333" /><path
       d="m 430.881,292.281 c 0,-5.309 -4.301,-9.61 -9.61,-9.61 -5.309,0 -9.611,4.301 -9.611,9.61 0,5.31 4.302,9.611 9.611,9.611 5.309,0 9.61,-4.301 9.61,-9.611"
       style="fill:#ffffff;fill-opacity:1;fill-rule:nonzero;stroke:none"
       id="path3335" /><path
       d="m 386.881,306.281 c 0,-5.309 -4.301,-9.61 -9.61,-9.61 -5.309,0 -9.611,4.301 -9.611,9.61 0,5.31 4.302,9.611 9.611,9.611 5.309,0 9.61,-4.301 9.61,-9.611"
       style="fill:#ffffff;fill-opacity:1;fill-rule:nonzero;stroke:none"
       id="path3337" /><path
       d="m 375.881,314.281 c 0,-5.309 -4.301,-9.61 -9.61,-9.61 -5.309,0 -9.611,4.301 -9.611,9.61 0,5.31 4.302,9.611 9.611,9.611 5.309,0 9.61,-4.301 9.61,-9.611"
       style="fill:#ffffff;fill-opacity:1;fill-rule:nonzero;stroke:none"
       id="path3339" /><path
       d="m 466.881,277.281 c 0,-5.309 -4.301,-9.61 -9.61,-9.61 -5.309,0 -9.611,4.301 -9.611,9.61 0,5.31 4.302,9.611 9.611,9.611 5.309,0 9.61,-4.301 9.61,-9.611"
       style="fill:#ffffff;fill-opacity:1;fill-rule:nonzero;stroke:none"
       id="path3341" /><path
       d="m 478.881,286.281 c 0,-5.309 -4.301,-9.61 -9.61,-9.61 -5.309,0 -9.611,4.301 -9.611,9.61 0,5.31 4.302,9.611 9.611,9.611 5.309,0 9.61,-4.301 9.61,-9.611"
       style="fill:#ffffff;fill-opacity:1;fill-rule:nonzero;stroke:none"
       id="path3343" /><path
       d="m 493.881,285.281 c 0,-5.309 -4.301,-9.61 -9.61,-9.61 -5.309,0 -9.611,4.301 -9.611,9.61 0,5.31 4.302,9.611 9.611,9.611 5.309,0 9.61,-4.301 9.61,-9.611"
       style="fill:#ffffff;fill-opacity:1;fill-rule:nonzero;stroke:none"
       id="path3345" /><path
       d="m 661.5081,245.095 c 0,-5.31 -4.3011,-9.611 -9.6101,-9.611 -5.3089,0 -9.611,4.301 -9.611,9.611 0,5.308 4.3021,9.609 9.611,9.609 5.309,0 9.6101,-4.301 9.6101,-9.609"
       style="fill:#ffffff;fill-opacity:1;fill-rule:nonzero;stroke:none"
       id="path3347" /><path
       d="m 693.084,304.129 c 0,-5.309 -4.301,-9.61 -9.609,-9.61 -5.3109,0 -9.612,4.301 -9.612,9.61 0,5.31 4.3011,9.61 9.612,9.61 5.308,0 9.609,-4.3 9.609,-9.61"
       style="fill:#ffffff;fill-opacity:1;fill-rule:nonzero;stroke:none"
       id="path3349" /><path
       d="m 649.151,305.502 c 0,-5.309 -4.3,-9.61 -9.6089,-9.61 -5.31,0 -9.6111,4.301 -9.6111,9.61 0,5.31 4.3011,9.61 9.6111,9.61 5.3089,0 9.6089,-4.3 9.6089,-9.61"
       style="fill:#ffffff;fill-opacity:1;fill-rule:nonzero;stroke:none"
       id="path3351" /><path
       d="m 580.5081,310.993 c 0,-5.309 -4.3011,-9.61 -9.6101,-9.61 -5.31,0 -9.612,4.301 -9.612,9.61 0,5.309 4.302,9.61 9.612,9.61 5.309,0 9.6101,-4.301 9.6101,-9.61"
       style="fill:#ffffff;fill-opacity:1;fill-rule:nonzero;stroke:none"
       id="path3353" /><path
       d="m 542.066,310.993 c 0,-5.309 -4.301,-9.61 -9.611,-9.61 -5.308,0 -9.609,4.301 -9.609,9.61 0,5.309 4.301,9.61 9.609,9.61 5.31,0 9.611,-4.301 9.611,-9.61"
       style="fill:#ffffff;fill-opacity:1;fill-rule:nonzero;stroke:none"
       id="path3355" /><path
       d="m 573.643,286.281 c 0,-5.309 -4.301,-9.61 -9.611,-9.61 -5.308,0 -9.609,4.301 -9.609,9.61 0,5.31 4.301,9.611 9.609,9.611 5.31,0 9.611,-4.301 9.611,-9.611"
       style="fill:#ffffff;fill-opacity:1;fill-rule:nonzero;stroke:none"
       id="path3357" /><path
       d="m 524.2191,202.535 c 0,-5.309 -4.3011,-9.61 -9.6111,-9.61 -5.308,0 -9.61,4.301 -9.61,9.61 0,5.309 4.302,9.61 9.61,9.61 5.31,0 9.6111,-4.301 9.6111,-9.61"
       style="fill:#ffffff;fill-opacity:1;fill-rule:nonzero;stroke:none"
       id="path3359" /><path
       d="m 478.913,109.179 c 0,-5.311 -4.301,-9.612 -9.61,-9.612 -5.309,0 -9.61,4.301 -9.61,9.612 0,5.308 4.301,9.609 9.61,9.609 5.309,0 9.61,-4.301 9.61,-9.609"
       style="fill:#ffffff;fill-opacity:1;fill-rule:nonzero;stroke:none"
       id="path3361" /><path
       d="m 419.913,281.179 c 0,-5.311 -4.301,-9.612 -9.61,-9.612 -5.309,0 -9.61,4.301 -9.61,9.612 0,5.308 4.301,9.609 9.61,9.609 5.309,0 9.61,-4.301 9.61,-9.609"
       style="fill:#ffffff;fill-opacity:1;fill-rule:nonzero;stroke:none"
       id="path3363" /><path
       d="m 397.913,294.179 c 0,-5.311 -4.301,-9.612 -9.61,-9.612 -5.309,0 -9.61,4.301 -9.61,9.612 0,5.308 4.301,9.609 9.61,9.609 5.309,0 9.61,-4.301 9.61,-9.609"
       style="fill:#ffffff;fill-opacity:1;fill-rule:nonzero;stroke:none"
       id="path3365" /><path
       d="m 402.913,283.179 c 0,-5.311 -4.301,-9.612 -9.61,-9.612 -5.309,0 -9.61,4.301 -9.61,9.612 0,5.308 4.301,9.609 9.61,9.609 5.309,0 9.61,-4.301 9.61,-9.609"
       style="fill:#ffffff;fill-opacity:1;fill-rule:nonzero;stroke:none"
       id="path3367" /><path
       d="m 438.913,267.179 c 0,-5.311 -4.301,-9.612 -9.61,-9.612 -5.309,0 -9.61,4.301 -9.61,9.612 0,5.308 4.301,9.609 9.61,9.609 5.309,0 9.61,-4.301 9.61,-9.609"
       style="fill:#ffffff;fill-opacity:1;fill-rule:nonzero;stroke:none"
       id="path3369" /><path
       d="m 598.913,269.179 c 0,-5.311 -4.301,-9.612 -9.61,-9.612 -5.309,0 -9.6099,4.301 -9.6099,9.612 0,5.308 4.3009,9.609 9.6099,9.609 5.309,0 9.61,-4.301 9.61,-9.609"
       style="fill:#ffffff;fill-opacity:1;fill-rule:nonzero;stroke:none"
       id="path3371" /><path
       d="m 626.913,220.179 c 0,-5.311 -4.301,-9.612 -9.61,-9.612 -5.309,0 -9.6099,4.301 -9.6099,9.612 0,5.308 4.3009,9.609 9.6099,9.609 5.309,0 9.61,-4.301 9.61,-9.609"
       style="fill:#ffffff;fill-opacity:1;fill-rule:nonzero;stroke:none"
       id="path3373" /><path
       d="m 593.913,56.179 c 0,-5.311 -4.301,-9.612 -9.61,-9.612 -5.309,0 -9.6099,4.301 -9.6099,9.612 0,5.308 4.3009,9.609 9.6099,9.609 5.309,0 9.61,-4.301 9.61,-9.609"
       style="fill:#ffffff;fill-opacity:1;fill-rule:nonzero;stroke:none"
       id="path3375" /><path
       d="m 513.913,34.179 c 0,-5.311 -4.301,-9.612 -9.61,-9.612 -5.309,0 -9.61,4.301 -9.61,9.612 0,5.308 4.301,9.609 9.61,9.609 5.309,0 9.61,-4.301 9.61,-9.609"
       style="fill:#ffffff;fill-opacity:1;fill-rule:nonzero;stroke:none"
       id="path3377" /><path
       d="m 376.853,464.795 c 7.788,14.94 28.263,42.114 74.605,43.438 0,0 117.154,1.83 192.204,1.83 0,0 47.323,-2.907 63.264,-50.567 3.765,1.475 7.192,3.716 10.097,6.591 -6.0099,20.569 -20.1579,40.849 -50.287,51.055 -29.594,10.0121 -85.333,3.217 -124.788,3.217 -44.668,0 -92.434,2.494 -124.828,-6.344 -26.438,-7.24 -40.354,-23.197 -47.431,-40.248 1.868,-3.451 4.314,-6.476 7.164,-8.972"
       style="fill:#e3e78f;fill-opacity:1;fill-rule:nonzero;stroke:none"
       id="path3379" /><path
       d="m 200,197.275 c 0,0 -154,-25.252 -161,-197.126 l 117,0 c 0,0 6,64.126 55,68.126 0,0 78,121 -11,129"
       style="fill:#83cb39;fill-opacity:1;fill-rule:nonzero;stroke:none"
       id="path3381" /><path
       d="m 789,197.275 c 0,0 154,-25.252 161,-197.126 l -117,0 c 0,0 -6,64.126 -55,68.126 0,0 -78,121 11,129"
       style="fill:#83cb39;fill-opacity:1;fill-rule:nonzero;stroke:none"
       id="path3383" /></g></svg>