<?xml version="1.0" encoding="UTF-8" standalone="no"?>
<!-- Created with Inkscape (http://www.inkscape.org/) -->

<svg
   xmlns:dc="http://purl.org/dc/elements/1.1/"
   xmlns:cc="http://creativecommons.org/ns#"
   xmlns:rdf="http://www.w3.org/1999/02/22-rdf-syntax-ns#"
   xmlns:svg="http://www.w3.org/2000/svg"
   xmlns="http://www.w3.org/2000/svg"
   xmlns:sodipodi="http://sodipodi.sourceforge.net/DTD/sodipodi-0.dtd"
   xmlns:inkscape="http://www.inkscape.org/namespaces/inkscape"
   id="svg2897"
   version="1.1"
   inkscape:version="0.47 r22583"
   width="1241.25"
   height="1241.25"
   xml:space="preserve"
   sodipodi:docname="t-shirt.svg"><metadata
     id="metadata2903"><rdf:RDF><cc:Work
         rdf:about=""><dc:format>image/svg+xml</dc:format><dc:type
           rdf:resource="http://purl.org/dc/dcmitype/StillImage" /><dc:title></dc:title></cc:Work></rdf:RDF></metadata><defs
     id="defs2901"><inkscape:perspective
   sodipodi:type="inkscape:persp3d"
   inkscape:vp_x="0 : 0.5 : 1"
   inkscape:vp_y="0 : 1000 : 0"
   inkscape:vp_z="1 : 0.5 : 1"
   inkscape:persp3d-origin="0.5 : 0.33333333 : 1"
   id="perspective2905" /><clipPath
   clipPathUnits="userSpaceOnUse"
   id="clipPath2915"><path
     d="M 0,0 993,0 993,993 0,993 0,0 z"
     id="path2917" /></clipPath><clipPath
   id="clipPath657"
   clipPathUnits="userSpaceOnUse"><path
     id="path659"
     d="M 0,1190.551 L 841.89,1190.551 L 841.89,0 L 0,0 L 0,1190.551 z" /></clipPath><linearGradient
   id="linearGradient645"
   spreadMethod="pad"
   gradientTransform="matrix(0,-16.839844,-16.839844,0,296.52637,116.13867)"
   gradientUnits="userSpaceOnUse"
   y2="0"
   x2="1"
   y1="0"
   x1="0"><stop
     id="stop647"
     offset="0"
     style="stop-opacity:1;stop-color:#cee18a" /><stop
     id="stop649"
     offset="1"
     style="stop-opacity:1;stop-color:#b6c378" /></linearGradient><linearGradient
   id="linearGradient625"
   spreadMethod="pad"
   gradientTransform="matrix(0,6.6132812,6.6132812,0,296.52686,138.16699)"
   gradientUnits="userSpaceOnUse"
   y2="0"
   x2="1"
   y1="0"
   x1="0"><stop
     id="stop627"
     offset="0"
     style="stop-opacity:1;stop-color:#cee18a" /><stop
     id="stop629"
     offset="1"
     style="stop-opacity:1;stop-color:#fff8cc" /></linearGradient><clipPath
   id="clipPath565"
   clipPathUnits="userSpaceOnUse"><path
     id="path567"
     d="M 0,1190.551 L 841.89,1190.551 L 841.89,0 L 0,0 L 0,1190.551 z" /></clipPath><linearGradient
   id="linearGradient553"
   spreadMethod="pad"
   gradientTransform="matrix(0,-18.004883,-18.004883,0,390.2793,292.30859)"
   gradientUnits="userSpaceOnUse"
   y2="0"
   x2="1"
   y1="0"
   x1="0"><stop
     id="stop555"
     offset="0"
     style="stop-opacity:1;stop-color:#cee18a" /><stop
     id="stop557"
     offset="1"
     style="stop-opacity:1;stop-color:#b6c378" /></linearGradient><linearGradient
   id="linearGradient533"
   spreadMethod="pad"
   gradientTransform="matrix(0,7.0712891,7.0712891,0,390.27979,315.85937)"
   gradientUnits="userSpaceOnUse"
   y2="0"
   x2="1"
   y1="0"
   x1="0"><stop
     id="stop535"
     offset="0"
     style="stop-opacity:1;stop-color:#cee18a" /><stop
     id="stop537"
     offset="1"
     style="stop-opacity:1;stop-color:#fff8cc" /></linearGradient><clipPath
   id="clipPath473"
   clipPathUnits="userSpaceOnUse"><path
     id="path475"
     d="M 0,1190.551 L 841.89,1190.551 L 841.89,0 L 0,0 L 0,1190.551 z" /></clipPath><linearGradient
   id="linearGradient461"
   spreadMethod="pad"
   gradientTransform="matrix(0,-14.078125,-14.078125,0,317.48242,1082.1602)"
   gradientUnits="userSpaceOnUse"
   y2="0"
   x2="1"
   y1="0"
   x1="0"><stop
     id="stop463"
     offset="0"
     style="stop-opacity:1;stop-color:#cee18a" /><stop
     id="stop465"
     offset="1"
     style="stop-opacity:1;stop-color:#b6c378" /></linearGradient><linearGradient
   id="linearGradient441"
   spreadMethod="pad"
   gradientTransform="matrix(0,5.5292969,5.5292969,0,317.48291,1100.5757)"
   gradientUnits="userSpaceOnUse"
   y2="0"
   x2="1"
   y1="0"
   x1="0"><stop
     id="stop443"
     offset="0"
     style="stop-opacity:1;stop-color:#cee18a" /><stop
     id="stop445"
     offset="1"
     style="stop-opacity:1;stop-color:#fff8cc" /></linearGradient><clipPath
   id="clipPath377"
   clipPathUnits="userSpaceOnUse"><path
     id="path379"
     d="M 0,1190.551 L 841.89,1190.551 L 841.89,0 L 0,0 L 0,1190.551 z" /></clipPath><linearGradient
   id="linearGradient365"
   spreadMethod="pad"
   gradientTransform="matrix(0,-16.84082,-16.84082,0,382.95508,944.22559)"
   gradientUnits="userSpaceOnUse"
   y2="0"
   x2="1"
   y1="0"
   x1="0"><stop
     id="stop367"
     offset="0"
     style="stop-opacity:1;stop-color:#cee18a" /><stop
     id="stop369"
     offset="1"
     style="stop-opacity:1;stop-color:#b6c378" /></linearGradient><linearGradient
   id="linearGradient345"
   spreadMethod="pad"
   gradientTransform="matrix(0,6.6137695,6.6137695,0,382.95508,966.25244)"
   gradientUnits="userSpaceOnUse"
   y2="0"
   x2="1"
   y1="0"
   x1="0"><stop
     id="stop347"
     offset="0"
     style="stop-opacity:1;stop-color:#cee18a" /><stop
     id="stop349"
     offset="1"
     style="stop-opacity:1;stop-color:#fff8cc" /></linearGradient><clipPath
   id="clipPath281"
   clipPathUnits="userSpaceOnUse"><path
     id="path283"
     d="M 0,1190.551 L 841.89,1190.551 L 841.89,0 L 0,0 L 0,1190.551 z" /></clipPath><linearGradient
   id="linearGradient269"
   spreadMethod="pad"
   gradientTransform="matrix(0,-16.841797,-16.841797,0,406.97168,774.14062)"
   gradientUnits="userSpaceOnUse"
   y2="0"
   x2="1"
   y1="0"
   x1="0"><stop
     id="stop271"
     offset="0"
     style="stop-opacity:1;stop-color:#cee18a" /><stop
     id="stop273"
     offset="1"
     style="stop-opacity:1;stop-color:#b6c378" /></linearGradient><linearGradient
   id="linearGradient249"
   spreadMethod="pad"
   gradientTransform="matrix(0,6.6137695,6.6137695,0,406.97217,796.16699)"
   gradientUnits="userSpaceOnUse"
   y2="0"
   x2="1"
   y1="0"
   x1="0"><stop
     id="stop251"
     offset="0"
     style="stop-opacity:1;stop-color:#cee18a" /><stop
     id="stop253"
     offset="1"
     style="stop-opacity:1;stop-color:#fff8cc" /></linearGradient><clipPath
   id="clipPath189"
   clipPathUnits="userSpaceOnUse"><path
     id="path191"
     d="M 0,1190.551 L 841.89,1190.551 L 841.89,0 L 0,0 L 0,1190.551 z" /></clipPath><linearGradient
   id="linearGradient177"
   spreadMethod="pad"
   gradientTransform="matrix(0,-18.005371,-18.005371,0,366.45312,631.24316)"
   gradientUnits="userSpaceOnUse"
   y2="0"
   x2="1"
   y1="0"
   x1="0"><stop
     id="stop179"
     offset="0"
     style="stop-opacity:1;stop-color:#cee18a" /><stop
     id="stop181"
     offset="1"
     style="stop-opacity:1;stop-color:#b6c378" /></linearGradient><linearGradient
   id="linearGradient157"
   spreadMethod="pad"
   gradientTransform="matrix(0,7.0712891,7.0712891,0,366.45361,654.79492)"
   gradientUnits="userSpaceOnUse"
   y2="0"
   x2="1"
   y1="0"
   x1="0"><stop
     id="stop159"
     offset="0"
     style="stop-opacity:1;stop-color:#cee18a" /><stop
     id="stop161"
     offset="1"
     style="stop-opacity:1;stop-color:#fff8cc" /></linearGradient><clipPath
   id="clipPath97"
   clipPathUnits="userSpaceOnUse"><path
     id="path99"
     d="M 0,1190.551 L 841.89,1190.551 L 841.89,0 L 0,0 L 0,1190.551 z" /></clipPath><linearGradient
   id="linearGradient85"
   spreadMethod="pad"
   gradientTransform="matrix(0,-18.005859,-18.005859,0,390.2793,467.13477)"
   gradientUnits="userSpaceOnUse"
   y2="0"
   x2="1"
   y1="0"
   x1="0"><stop
     id="stop87"
     offset="0"
     style="stop-opacity:1;stop-color:#cee18a" /><stop
     id="stop89"
     offset="1"
     style="stop-opacity:1;stop-color:#b6c378" /></linearGradient><linearGradient
   id="linearGradient65"
   spreadMethod="pad"
   gradientTransform="matrix(0,7.0703125,7.0703125,0,390.27979,490.68555)"
   gradientUnits="userSpaceOnUse"
   y2="0"
   x2="1"
   y1="0"
   x1="0"><stop
     id="stop67"
     offset="0"
     style="stop-opacity:1;stop-color:#cee18a" /><stop
     id="stop69"
     offset="1"
     style="stop-opacity:1;stop-color:#fff8cc" /></linearGradient><clipPath
   id="clipPath17"
   clipPathUnits="userSpaceOnUse"><path
     id="path19"
     d="M 0,1190.551 L 841.89,1190.551 L 841.89,0 L 0,0 L 0,1190.551 z" /></clipPath><inkscape:perspective
   id="perspective9"
   inkscape:persp3d-origin="372.04724 : 350.78739 : 1"
   inkscape:vp_z="744.09448 : 526.18109 : 1"
   inkscape:vp_y="0 : 1000 : 0"
   inkscape:vp_x="0 : 526.18109 : 1"
   sodipodi:type="inkscape:persp3d" />


















</defs><sodipodi:namedview
     pagecolor="#ffffff"
     bordercolor="#666666"
     borderopacity="1"
     objecttolerance="10"
     gridtolerance="10"
     guidetolerance="10"
     inkscape:pageopacity="0"
     inkscape:pageshadow="2"
     inkscape:window-width="1443"
     inkscape:window-height="769"
     id="namedview2899"
     showgrid="false"
     inkscape:zoom="0.53777145"
     inkscape:cx="313.15389"
     inkscape:cy="896.90718"
     inkscape:window-x="0"
     inkscape:window-y="0"
     inkscape:window-maximized="0"
     inkscape:current-layer="g2907" /><g
     id="g2907"
     inkscape:groupmode="layer"
     inkscape:label="foaming_cuke_3975520_illustration"
     transform="matrix(1.25,0,0,-1.25,0,1241.25)"
     style="display:inline"><g
       id="g2909" /><path
       d="m 245.60115,269.40837 306.1817,0 -0.0513,359.49693 c 0,71.92099 -0.3989,115.2563 -72.32306,115.2563 l -165.38273,5.24676 c -71.92725,0 -69.42703,-48.58207 -69.42703,-120.50306 l 1.00241,-359.49693"
       style="fill:#83cb39;fill-opacity:1;fill-rule:nonzero;stroke:none"
       id="path2921" /><path
       d="m 371.57152,594.86041 c 0,-9.00699 -7.27638,-16.29431 -16.3131,-16.29431 -8.99664,0 -16.30419,7.28732 -16.30419,16.29431 0,8.98006 7.30755,16.31521 16.30419,16.31521 9.03672,0 16.3131,-7.33515 16.3131,-16.31521"
       style="fill:#905440;fill-opacity:1;fill-rule:nonzero;stroke:none"
       id="path2923" /><path
       d="m 506.13778,594.16888 c 0,-8.99664 -7.28115,-16.2887 -16.31106,-16.2887 -8.99877,0 -16.30537,7.29206 -16.30537,16.2887 0,8.98407 7.3066,16.3235 16.30537,16.3235 9.02991,0 16.31106,-7.33943 16.31106,-16.3235"
       style="fill:#905440;fill-opacity:1;fill-rule:nonzero;stroke:none"
       id="path2925" /><path
       d="m 330.39334,489.73287 c 0,0 -5.98894,51.66053 49.40988,52.4063 0,0 60.64158,0 80.10757,0 0,0 56.89698,6.73665 59.14439,-41.92968 0,0 0,-26.94152 -5.99154,-35.93086 0,0 -10.48169,-22.46125 -40.42669,-22.46125 0,0 -75.60959,0 -92.83373,1.49918 0,0 -47.16144,-2.99511 -49.40988,46.41631"
       style="fill:#ef2c3b;fill-opacity:1;fill-rule:nonzero;stroke:none"
       id="path2927" /><path
       d="m 459.41826,551.86794 c -0.97085,0 -79.61504,0 -79.61504,0 -19.9422,-0.26529 -35.25789,-6.39867 -45.65344,-18.22986 -11.99486,-13.64244 -13.67085,-31.04134 -13.67085,-39.678 0,-3.09564 0.21781,-5.05924 0.25219,-5.35147 l -0.058,0.68022 c 0.80075,-17.66259 6.75687,-31.59561 17.70877,-41.41648 15.89505,-14.24345 36.85388,-14.42596 41.22089,-14.29391 18.45559,-1.47259 89.96364,-1.4919 93.03441,-1.4919 34.28961,0 47.59195,24.7404 49.08279,27.75124 6.52657,11.00532 7.06629,33.55593 7.06629,40.37171 l 0,0.23557 -0.007,0.21887 c -0.73273,15.8181 -6.47565,28.39657 -17.06453,37.38271 -19.19449,16.27833 -47.67888,14.27311 -52.29552,13.8213 z m 1.04319,-19.45974 0.5683,0.0648 c 0.24026,0.0237 24.19691,2.58131 38.14926,-9.31953 6.32582,-5.39664 9.64042,-13.01368 10.13804,-23.25096 -0.042,-11.5707 -1.78053,-26.36906 -4.34934,-30.22278 l -0.34941,-0.52267 -0.32923,-0.67076 c -0.34219,-0.68909 -8.62841,-16.93762 -31.65212,-16.93762 -0.74946,0 -75.38441,0.0269 -91.98602,1.46429 l -0.68079,0.0601 -0.73573,-0.0447 c -0.16232,-0.003 -16.70945,-0.76589 -27.9732,9.43248 -6.84173,6.20208 -10.58742,15.5247 -11.14428,27.71737 l -0.016,0.29473 -0.0342,0.33857 c -0.0165,0.17835 -1.78985,18.14556 8.79802,30.08283 6.60669,7.45023 17.06241,11.32263 31.07247,11.51348 l 80.5245,0"
       style="fill:#ffffff;fill-opacity:1;fill-rule:nonzero;stroke:none"
       id="path2929" /><path
       d="m 490.38667,524.39029 c 0,-9.45636 -7.0158,-17.12282 -15.66412,-17.12282 -8.656,0 -15.66987,7.66646 -15.66987,17.12282 0,-9.45636 -7.01019,-17.12282 -15.66569,-17.12282 -8.64871,0 -15.66258,7.66646 -15.66258,17.12282 0,-9.45636 -7.01646,-17.12282 -15.66412,-17.12282 -8.65601,0 -15.66569,7.66646 -15.66569,17.12282 0,-9.45636 -7.01179,-17.12282 -15.6657,-17.12282 -8.65599,0 -15.66571,7.66646 -15.66571,17.12282 0,-9.45636 -7.01853,-17.12282 -15.66518,-17.12282 -5.74401,0 -10.75432,3.39102 -13.47754,8.42518 -2.71232,-6.52401 -3.50429,-13.34392 -3.50429,-18.87835 0,-13.56019 -3.28281,-33.01149 17.8559,-40.91202 15.97509,-5.97893 53.09782,-2.19745 75.22414,-2.19745 21.31293,0 58.05872,-2.96465 73.74517,2.61296 22.1564,7.88544 19.33068,26.55417 19.33068,40.49651 0,4.62751 -0.53765,9.77304 -2.0358,14.88466 -2.77372,-2.74669 -6.44594,-4.43149 -10.49012,-4.43149 -8.64923,0 -15.65948,7.66646 -15.65948,17.12282"
       style="fill:#ef2e4b;fill-opacity:1;fill-rule:nonzero;stroke:none"
       id="path2931" /><path
       d="m 490.38667,538.24794 c -15.38899,5.20627 -44.3736,1.67288 -64.89045,1.67288 -23.22762,0 -48.06624,1.29681 -64.91136,-3.29892 -13.7479,-3.76487 -20.98434,-12.06258 -24.66439,-20.92925 2.72322,-5.03416 7.73353,-8.42518 13.47754,-8.42518 8.64665,0 15.66518,7.66646 15.66518,17.12282 0,-9.45636 7.00972,-17.12282 15.66571,-17.12282 8.65391,0 15.6657,7.66646 15.6657,17.12282 0,-9.45636 7.00968,-17.12282 15.66569,-17.12282 8.64766,0 15.66412,7.66646 15.66412,17.12282 0,-9.45636 7.01387,-17.12282 15.66258,-17.12282 8.6555,0 15.66569,7.66646 15.66569,17.12282 0,-9.45636 7.01387,-17.12282 15.66987,-17.12282 8.64832,0 15.66412,7.66646 15.66412,17.12282 0,-9.45636 7.01025,-17.12282 15.65948,-17.12282 4.04418,0 7.7164,1.6848 10.49012,4.43149 -3.12521,10.69598 -10.48216,21.24171 -26.1496,26.54898"
       style="fill:#f3f6a2;fill-opacity:1;fill-rule:nonzero;stroke:none"
       id="path2933" /><path
       d="m 490.38667,445.3166 c -15.38899,-5.21256 -44.3736,-1.67754 -64.89045,-1.67754 -23.22762,0 -48.06624,-1.29537 -64.91136,3.30721 -13.7479,3.75552 -20.98434,12.05428 -24.66439,20.91677 2.72322,5.03679 7.73353,8.43598 13.47754,8.43598 8.64665,0 15.66518,-7.67739 15.66518,-17.12527 0,9.44788 7.00972,17.12527 15.66571,17.12527 8.65391,0 15.6657,-7.67739 15.6657,-17.12527 0,9.44788 7.00968,17.12527 15.66569,17.12527 8.64766,0 15.66412,-7.67739 15.66412,-17.12527 0,9.44788 7.01387,17.12527 15.66258,17.12527 8.6555,0 15.66569,-7.67739 15.66569,-17.12527 0,9.44788 7.01387,17.12527 15.66987,17.12527 8.64832,0 15.66412,-7.67739 15.66412,-17.12527 0,9.44788 7.01025,17.12527 15.65948,17.12527 4.04418,0 7.7164,-1.69258 10.49012,-4.43931 -3.12521,-10.69802 -10.48216,-21.2334 -26.1496,-26.54311"
       style="fill:#f3f6a2;fill-opacity:1;fill-rule:nonzero;stroke:none"
       id="path2935" /><path
       d="m 278.0698,730.08443 7.23686,-7.78247 c 4.5589,3.3848 10.22652,6.62915 17.22052,9.28372 l -2.43874,8.60502 c -9.30915,-2.48351 -16.51382,-6.18696 -22.01864,-10.10627 z m -1.43728,-1.06134 c -10.98305,-8.33935 -14.56232,-17.2371 -14.56232,-17.2371 l 9.28269,-4.24437 c 2.46221,3.87358 6.42051,8.85989 12.5358,13.67878 l -7.25617,7.80269 z m 18.12531,-16.88561 c 6.03523,4.57501 11.48221,6.35555 11.48221,6.35555 l -3.24796,11.45627 c -6.69449,-2.56578 -12.12134,-5.68374 -16.49666,-8.92702 l 8.26241,-8.8848 z m -21.75089,-5.35034 11.75633,-5.37484 c 2.53095,3.98748 5.58912,7.15268 8.59266,9.62324 l -8.27696,8.90204 c -5.89071,-4.64319 -9.70228,-9.43701 -12.07203,-13.15044"
       style="fill:#fefeed;fill-opacity:1;fill-rule:nonzero;stroke:none"
       id="path2937" /><path
       d="m 356.30839,436.76034 c 0,-2.76071 -2.23705,-4.9972 -4.99725,-4.9972 -2.76018,0 -4.99788,2.23649 -4.99788,4.9972 0,2.76071 2.2377,4.99776 4.99788,4.99776 2.7602,0 4.99725,-2.23705 4.99725,-4.99776"
       style="fill:#ffffff;fill-opacity:1;fill-rule:nonzero;stroke:none"
       id="path2939" /><path
       d="m 366.30282,427.4799 c 0,-2.76072 -2.23652,-4.99737 -4.99724,-4.99737 -2.76018,0 -4.99719,2.23665 -4.99719,4.99737 0,2.76123 2.23701,4.99723 4.99719,4.99723 2.76072,0 4.99724,-2.236 4.99724,-4.99723"
       style="fill:#ffffff;fill-opacity:1;fill-rule:nonzero;stroke:none"
       id="path2941" /><path
       d="m 406.282,432.47713 c 0,-2.76071 -2.23662,-4.99723 -4.99734,-4.99723 -2.76121,0 -4.99774,2.23652 -4.99774,4.99723 0,2.76071 2.23653,4.9972 4.99774,4.9972 2.76072,0 4.99734,-2.23649 4.99734,-4.9972"
       style="fill:#ffffff;fill-opacity:1;fill-rule:nonzero;stroke:none"
       id="path2943" /><path
       d="m 428.41348,429.62118 c 0,-2.76124 -2.2366,-4.9972 -4.99785,-4.9972 -2.76018,0 -4.99671,2.23596 -4.99671,4.9972 0,2.76122 2.23653,4.99788 4.99671,4.99788 2.76125,0 4.99785,-2.23666 4.99785,-4.99788"
       style="fill:#ffffff;fill-opacity:1;fill-rule:nonzero;stroke:none"
       id="path2945" /><path
       d="m 421.98766,426.05192 c 0,-2.76072 -2.23651,-4.99733 -4.99672,-4.99733 -2.76122,0 -4.99772,2.23661 -4.99772,4.99733 0,2.76071 2.2365,4.99723 4.99772,4.99723 2.76021,0 4.99672,-2.23652 4.99672,-4.99723"
       style="fill:#ffffff;fill-opacity:1;fill-rule:nonzero;stroke:none"
       id="path2947" /><path
       d="m 418.41892,430.33517 c 0,-2.76123 -2.23704,-4.9972 -4.9977,-4.9972 -2.76123,0 -4.99791,2.23597 -4.99791,4.9972 0,2.76122 2.23668,4.99776 4.99791,4.99776 2.76066,0 4.9977,-2.23654 4.9977,-4.99776"
       style="fill:#ffffff;fill-opacity:1;fill-rule:nonzero;stroke:none"
       id="path2949" /><path
       d="m 412.70722,428.19375 c 0,-2.76072 -2.23653,-4.99723 -4.99737,-4.99723 -2.7607,0 -4.99725,2.23651 -4.99725,4.99723 0,2.76124 2.23655,4.99733 4.99725,4.99733 2.76084,0 4.99737,-2.23609 4.99737,-4.99733"
       style="fill:#ffffff;fill-opacity:1;fill-rule:nonzero;stroke:none"
       id="path2951" /><path
       d="m 412.70722,414.62889 c 0,-2.76072 -2.23653,-4.99672 -4.99737,-4.99672 -2.7607,0 -4.99725,2.236 -4.99725,4.99672 0,2.76123 2.23655,4.99786 4.99725,4.99786 2.76084,0 4.99737,-2.23663 4.99737,-4.99786"
       style="fill:#ffffff;fill-opacity:1;fill-rule:nonzero;stroke:none"
       id="path2953" /><path
       d="m 412.70722,401.77849 c 0,-2.76071 -2.23653,-4.99668 -4.99737,-4.99668 -2.7607,0 -4.99725,2.23597 -4.99725,4.99668 0,2.76124 2.23655,4.99776 4.99725,4.99776 2.76084,0 4.99737,-2.23652 4.99737,-4.99776"
       style="fill:#ffffff;fill-opacity:1;fill-rule:nonzero;stroke:none"
       id="path2955" /><path
       d="m 375.58392,423.19652 c 0,-2.76125 -2.23649,-4.99772 -4.99772,-4.99772 -2.76072,0 -4.99737,2.23647 -4.99737,4.99772 0,2.76019 2.23665,4.99723 4.99737,4.99723 2.76123,0 4.99772,-2.23704 4.99772,-4.99723"
       style="fill:#ffffff;fill-opacity:1;fill-rule:nonzero;stroke:none"
       id="path2957" /><path
       d="m 448.4025,427.4799 c 0,-2.76072 -2.23662,-4.99737 -4.99733,-4.99737 -2.76072,0 -4.99725,2.23665 -4.99725,4.99737 0,2.76123 2.23653,4.99723 4.99725,4.99723 2.76071,0 4.99733,-2.236 4.99733,-4.99723"
       style="fill:#ffffff;fill-opacity:1;fill-rule:nonzero;stroke:none"
       id="path2959" /><path
       d="m 454.11373,367.51115 c 0,-2.7607 -2.23549,-4.99724 -4.99724,-4.99724 -2.76071,0 -4.99681,2.23654 -4.99681,4.99724 0,2.76072 2.2361,4.99726 4.99681,4.99726 2.76175,0 4.99724,-2.23654 4.99724,-4.99726"
       style="fill:#ffffff;fill-opacity:1;fill-rule:nonzero;stroke:none"
       id="path2961" /><path
       d="m 476.95969,421.76858 c 0,-2.76125 -2.23714,-4.99776 -4.99785,-4.99776 -2.76066,0 -4.99723,2.23651 -4.99723,4.99776 0,2.76019 2.23657,4.99733 4.99723,4.99733 2.76071,0 4.99785,-2.23714 4.99785,-4.99733"
       style="fill:#ffffff;fill-opacity:1;fill-rule:nonzero;stroke:none"
       id="path2963" /><path
       d="m 468.11952,422.28861 c 0,-2.76122 -2.23705,-4.99776 -4.99776,-4.99776 -2.76065,0 -4.99723,2.23654 -4.99723,4.99776 0,2.7602 2.23658,4.99724 4.99723,4.99724 2.76071,0 4.99776,-2.23704 4.99776,-4.99724"
       style="fill:#ffffff;fill-opacity:1;fill-rule:nonzero;stroke:none"
       id="path2965" /><path
       d="m 476.43965,416.04854 c 0,-2.76123 -2.23704,-4.99776 -4.99775,-4.99776 -2.76066,0 -4.99734,2.23653 -4.99734,4.99776 0,2.76018 2.23668,4.99723 4.99734,4.99723 2.76071,0 4.99775,-2.23705 4.99775,-4.99723"
       style="fill:#ffffff;fill-opacity:1;fill-rule:nonzero;stroke:none"
       id="path2967" /><path
       d="m 480.59967,421.76858 c 0,-2.76125 -2.23706,-4.99776 -4.99776,-4.99776 -2.76066,0 -4.99724,2.23651 -4.99724,4.99776 0,2.76019 2.23658,4.99733 4.99724,4.99733 2.7607,0 4.99776,-2.23714 4.99776,-4.99733"
       style="fill:#ffffff;fill-opacity:1;fill-rule:nonzero;stroke:none"
       id="path2969" /><path
       d="m 483.7197,413.44854 c 0,-2.76123 -2.23704,-4.99785 -4.99775,-4.99785 -2.76067,0 -4.99723,2.23662 -4.99723,4.99785 0,2.76019 2.23656,4.99723 4.99723,4.99723 2.76071,0 4.99775,-2.23704 4.99775,-4.99723"
       style="fill:#ffffff;fill-opacity:1;fill-rule:nonzero;stroke:none"
       id="path2971" /><path
       d="m 460.31943,420.20856 c 0,-2.76124 -2.23706,-4.99776 -4.99776,-4.99776 -2.76066,0 -4.99724,2.23652 -4.99724,4.99776 0,2.76019 2.23658,4.99733 4.99724,4.99733 2.7607,0 4.99776,-2.23714 4.99776,-4.99733"
       style="fill:#ffffff;fill-opacity:1;fill-rule:nonzero;stroke:none"
       id="path2973" /><path
       d="m 435.35914,422.80865 c 0,-2.76123 -2.23705,-4.99785 -4.99776,-4.99785 -2.76066,0 -4.99725,2.23662 -4.99725,4.99785 0,2.76019 2.23659,4.99724 4.99725,4.99724 2.76071,0 4.99776,-2.23705 4.99776,-4.99724"
       style="fill:#ffffff;fill-opacity:1;fill-rule:nonzero;stroke:none"
       id="path2975" /><path
       d="m 435.35914,415.5285 c 0,-2.76123 -2.23705,-4.99775 -4.99776,-4.99775 -2.76066,0 -4.99725,2.23652 -4.99725,4.99775 0,2.76019 2.23659,4.99734 4.99725,4.99734 2.76071,0 4.99776,-2.23715 4.99776,-4.99734"
       style="fill:#ffffff;fill-opacity:1;fill-rule:nonzero;stroke:none"
       id="path2977" /><path
       d="m 437.43919,392.12822 c 0,-2.76123 -2.23704,-4.99775 -4.99776,-4.99775 -2.76064,0 -4.99732,2.23652 -4.99732,4.99775 0,2.76019 2.23668,4.99734 4.99732,4.99734 2.76072,0 4.99776,-2.23715 4.99776,-4.99734"
       style="fill:#ffffff;fill-opacity:1;fill-rule:nonzero;stroke:none"
       id="path2979" /><path
       d="m 399.47871,412.92849 c 0,-2.76122 -2.23704,-4.99776 -4.99775,-4.99776 -2.76072,0 -4.99725,2.23654 -4.99725,4.99776 0,2.76021 2.23653,4.99725 4.99725,4.99725 2.76071,0 4.99775,-2.23704 4.99775,-4.99725"
       style="fill:#ffffff;fill-opacity:1;fill-rule:nonzero;stroke:none"
       id="path2981" /><path
       d="m 487.87983,424.36867 c 0,-2.76122 -2.23715,-4.99784 -4.99786,-4.99784 -2.76066,0 -4.99723,2.23662 -4.99723,4.99784 0,2.76019 2.23657,4.99723 4.99723,4.99723 2.76071,0 4.99786,-2.23704 4.99786,-4.99723"
       style="fill:#ffffff;fill-opacity:1;fill-rule:nonzero;stroke:none"
       id="path2983" /><path
       d="m 441.97785,428.19375 c 0,-2.76072 -2.23662,-4.99723 -4.99787,-4.99723 -2.76019,0 -4.99672,2.23651 -4.99672,4.99723 0,2.76124 2.23653,4.99733 4.99672,4.99733 2.76125,0 4.99787,-2.23609 4.99787,-4.99733"
       style="fill:#ffffff;fill-opacity:1;fill-rule:nonzero;stroke:none"
       id="path2985" /><path
       d="m 332.03493,458.17785 c 0,-2.7607 -2.23649,-4.99722 -4.99721,-4.99722 -2.7607,0 -4.99722,2.23652 -4.99722,4.99722 0,2.76123 2.23652,4.99724 4.99722,4.99724 2.76072,0 4.99721,-2.23601 4.99721,-4.99724"
       style="fill:#ffffff;fill-opacity:1;fill-rule:nonzero;stroke:none"
       id="path2987" /><path
       d="m 327.75172,467.45898 c 0,-2.76123 -2.23653,-4.99775 -4.99723,-4.99775 -2.76125,0 -4.99787,2.23652 -4.99787,4.99775 0,2.76019 2.23662,4.99721 4.99787,4.99721 2.7607,0 4.99723,-2.23702 4.99723,-4.99721"
       style="fill:#ffffff;fill-opacity:1;fill-rule:nonzero;stroke:none"
       id="path2989" /><path
       d="m 325.60975,476.02557 c 0,-2.76072 -2.23648,-4.99734 -4.99719,-4.99734 -2.76072,0 -4.99723,2.23662 -4.99723,4.99734 0,2.76123 2.23651,4.99775 4.99723,4.99775 2.76071,0 4.99719,-2.23652 4.99719,-4.99775"
       style="fill:#ffffff;fill-opacity:1;fill-rule:nonzero;stroke:none"
       id="path2991" /><path
       d="m 320.92969,477.06555 c 0,-2.76072 -2.23648,-4.99723 -4.99719,-4.99723 -2.76072,0 -4.99723,2.23651 -4.99723,4.99723 0,2.76124 2.23651,4.99773 4.99723,4.99773 2.76071,0 4.99719,-2.23649 4.99719,-4.99773"
       style="fill:#ffffff;fill-opacity:1;fill-rule:nonzero;stroke:none"
       id="path2993" /><path
       d="m 324.89632,484.59258 c 0,-2.76071 -2.23704,-4.99672 -4.99776,-4.99672 -2.7607,0 -4.99723,2.23601 -4.99723,4.99672 0,2.76123 2.23653,4.99733 4.99723,4.99733 2.76072,0 4.99776,-2.2361 4.99776,-4.99733"
       style="fill:#ffffff;fill-opacity:1;fill-rule:nonzero;stroke:none"
       id="path2995" /><path
       d="m 322.75449,492.44625 c 0,-2.76122 -2.23662,-4.99827 -4.99787,-4.99827 -2.7607,0 -4.99722,2.23705 -4.99722,4.99827 0,2.7602 2.23652,4.99683 4.99722,4.99683 2.76125,0 4.99787,-2.23663 4.99787,-4.99683"
       style="fill:#ffffff;fill-opacity:1;fill-rule:nonzero;stroke:none"
       id="path2997" /><path
       d="m 323.46834,501.01285 c 0,-2.76071 -2.23652,-4.99771 -4.99776,-4.99771 -2.76071,0 -4.99719,2.237 -4.99719,4.99771 0,2.76122 2.23648,4.99723 4.99719,4.99723 2.76124,0 4.99776,-2.23601 4.99776,-4.99723"
       style="fill:#ffffff;fill-opacity:1;fill-rule:nonzero;stroke:none"
       id="path2999" /><path
       d="m 324.18232,508.15202 c 0,-2.76071 -2.23651,-4.99772 -4.99774,-4.99772 -2.76072,0 -4.99721,2.23701 -4.99721,4.99772 0,2.76071 2.23649,4.99723 4.99721,4.99723 2.76123,0 4.99774,-2.23652 4.99774,-4.99723"
       style="fill:#ffffff;fill-opacity:1;fill-rule:nonzero;stroke:none"
       id="path3001" /><path
       d="m 326.32374,516.00517 c 0,-2.76071 -2.23649,-4.99775 -4.99719,-4.99775 -2.76071,0 -4.99737,2.23704 -4.99737,4.99775 0,2.76071 2.23666,4.9972 4.99737,4.9972 2.7607,0 4.99719,-2.23649 4.99719,-4.9972"
       style="fill:#ffffff;fill-opacity:1;fill-rule:nonzero;stroke:none"
       id="path3003" /><path
       d="m 329.89312,521.71635 c 0,-2.7607 -2.23662,-4.99771 -4.9968,-4.99771 -2.76126,0 -4.99776,2.23701 -4.99776,4.99771 0,2.76072 2.2365,4.99725 4.99776,4.99725 2.76018,0 4.9968,-2.23653 4.9968,-4.99725"
       style="fill:#ffffff;fill-opacity:1;fill-rule:nonzero;stroke:none"
       id="path3005" /><path
       d="m 333.4629,528.85553 c 0,-2.76071 -2.23649,-4.99773 -4.99719,-4.99773 -2.76075,0 -4.99737,2.23702 -4.99737,4.99773 0,2.7607 2.23662,4.99723 4.99737,4.99723 2.7607,0 4.99719,-2.23653 4.99719,-4.99723"
       style="fill:#ffffff;fill-opacity:1;fill-rule:nonzero;stroke:none"
       id="path3007" /><path
       d="m 337.74616,535.28018 c 0,-2.76069 -2.23654,-4.99719 -4.99725,-4.99719 -2.7607,0 -4.99719,2.2365 -4.99719,4.99719 0,2.76123 2.23649,4.99725 4.99719,4.99725 2.76071,0 4.99725,-2.23602 4.99725,-4.99725"
       style="fill:#ffffff;fill-opacity:1;fill-rule:nonzero;stroke:none"
       id="path3009" /><path
       d="m 342.744,540.27743 c 0,-2.76071 -2.23713,-4.99725 -4.99784,-4.99725 -2.76072,0 -4.99725,2.23654 -4.99725,4.99725 0,2.76135 2.23653,4.99789 4.99725,4.99789 2.76071,0 4.99784,-2.23654 4.99784,-4.99789"
       style="fill:#ffffff;fill-opacity:1;fill-rule:nonzero;stroke:none"
       id="path3011" /><path
       d="m 349.88317,544.56133 c 0,-2.76072 -2.23714,-4.99724 -4.99785,-4.99724 -2.76072,0 -4.99723,2.23652 -4.99723,4.99724 0,2.76071 2.23651,4.99771 4.99723,4.99771 2.76071,0 4.99785,-2.237 4.99785,-4.99771"
       style="fill:#ffffff;fill-opacity:1;fill-rule:nonzero;stroke:none"
       id="path3013" /><path
       d="m 356.30839,548.84509 c 0,-2.76122 -2.23653,-4.99776 -4.99725,-4.99776 -2.7607,0 -4.99788,2.23654 -4.99788,4.99776 0,2.76071 2.23718,4.99733 4.99788,4.99733 2.76072,0 4.99725,-2.23662 4.99725,-4.99733"
       style="fill:#ffffff;fill-opacity:1;fill-rule:nonzero;stroke:none"
       id="path3015" /><path
       d="m 362.73304,548.84509 c 0,-2.76122 -2.236,-4.99776 -4.99671,-4.99776 -2.76123,0 -4.99785,2.23654 -4.99785,4.99776 0,2.76071 2.23662,4.99733 4.99785,4.99733 2.76071,0 4.99671,-2.23662 4.99671,-4.99733"
       style="fill:#ffffff;fill-opacity:1;fill-rule:nonzero;stroke:none"
       id="path3017" /><path
       d="m 369.87274,550.9865 c 0,-2.76071 -2.23653,-4.99718 -4.99776,-4.99718 -2.76072,0 -4.99734,2.23647 -4.99734,4.99718 0,2.76071 2.23662,4.99723 4.99734,4.99723 2.76123,0 4.99776,-2.23652 4.99776,-4.99723"
       style="fill:#ffffff;fill-opacity:1;fill-rule:nonzero;stroke:none"
       id="path3019" /><path
       d="m 377.01138,550.9865 c 0,-2.76071 -2.23652,-4.99718 -4.99724,-4.99718 -2.76072,0 -4.99734,2.23647 -4.99734,4.99718 0,2.76071 2.23662,4.99723 4.99734,4.99723 2.76072,0 4.99724,-2.23652 4.99724,-4.99723"
       style="fill:#ffffff;fill-opacity:1;fill-rule:nonzero;stroke:none"
       id="path3021" /><path
       d="m 384.15106,552.41448 c 0,-2.76071 -2.23704,-4.99788 -4.99776,-4.99788 -2.7607,0 -4.99732,2.23717 -4.99732,4.99788 0,2.76071 2.23662,4.99725 4.99732,4.99725 2.76072,0 4.99776,-2.23654 4.99776,-4.99725"
       style="fill:#ffffff;fill-opacity:1;fill-rule:nonzero;stroke:none"
       id="path3023" /><path
       d="m 391.29022,553.84242 c 0,-2.76071 -2.23704,-4.99733 -4.99776,-4.99733 -2.7607,0 -4.99735,2.23662 -4.99735,4.99733 0,2.76071 2.23665,4.99723 4.99735,4.99723 2.76072,0 4.99776,-2.23652 4.99776,-4.99723"
       style="fill:#ffffff;fill-opacity:1;fill-rule:nonzero;stroke:none"
       id="path3025" /><path
       d="m 398.4294,555.27026 c 0,-2.76122 -2.23653,-4.9977 -4.99776,-4.9977 -2.76069,0 -4.9979,2.23648 -4.9979,4.9977 0,2.76019 2.23721,4.99734 4.9979,4.99734 2.76123,0 4.99776,-2.23715 4.99776,-4.99734"
       style="fill:#ffffff;fill-opacity:1;fill-rule:nonzero;stroke:none"
       id="path3027" /><path
       d="m 404.85406,553.84242 c 0,-2.76071 -2.23653,-4.99733 -4.99723,-4.99733 -2.76071,0 -4.99733,2.23662 -4.99733,4.99733 0,2.76071 2.23662,4.99723 4.99733,4.99723 2.7607,0 4.99723,-2.23652 4.99723,-4.99723"
       style="fill:#ffffff;fill-opacity:1;fill-rule:nonzero;stroke:none"
       id="path3029" /><path
       d="m 411.99322,553.84242 c 0,-2.76071 -2.23651,-4.99733 -4.99722,-4.99733 -2.76124,0 -4.99734,2.23662 -4.99734,4.99733 0,2.76071 2.2361,4.99723 4.99734,4.99723 2.76071,0 4.99722,-2.23652 4.99722,-4.99723"
       style="fill:#ffffff;fill-opacity:1;fill-rule:nonzero;stroke:none"
       id="path3031" /><path
       d="m 419.13187,553.84242 c 0,-2.76071 -2.23651,-4.99733 -4.99671,-4.99733 -2.76072,0 -4.99734,2.23662 -4.99734,4.99733 0,2.76071 2.23662,4.99723 4.99734,4.99723 2.7602,0 4.99671,-2.23652 4.99671,-4.99723"
       style="fill:#ffffff;fill-opacity:1;fill-rule:nonzero;stroke:none"
       id="path3033" /><path
       d="m 426.27208,553.84242 c 0,-2.76071 -2.23704,-4.99733 -4.99776,-4.99733 -2.76072,0 -4.99728,2.23662 -4.99728,4.99733 0,2.76071 2.23656,4.99723 4.99728,4.99723 2.76072,0 4.99776,-2.23652 4.99776,-4.99723"
       style="fill:#ffffff;fill-opacity:1;fill-rule:nonzero;stroke:none"
       id="path3035" /><path
       d="m 433.41124,553.84242 c 0,-2.76071 -2.23704,-4.99733 -4.99776,-4.99733 -2.76123,0 -4.99785,2.23662 -4.99785,4.99733 0,2.76071 2.23662,4.99723 4.99785,4.99723 2.76072,0 4.99776,-2.23652 4.99776,-4.99723"
       style="fill:#ffffff;fill-opacity:1;fill-rule:nonzero;stroke:none"
       id="path3037" /><path
       d="m 441.97785,560.98159 c 0,-2.76124 -2.23662,-4.99786 -4.99787,-4.99786 -2.76019,0 -4.99672,2.23662 -4.99672,4.99786 0,2.76071 2.23653,4.99723 4.99672,4.99723 2.76125,0 4.99787,-2.23652 4.99787,-4.99723"
       style="fill:#ffffff;fill-opacity:1;fill-rule:nonzero;stroke:none"
       id="path3039" /><path
       d="m 426.27208,560.98159 c 0,-2.76124 -2.23704,-4.99786 -4.99776,-4.99786 -2.76072,0 -4.99728,2.23662 -4.99728,4.99786 0,2.76071 2.23656,4.99723 4.99728,4.99723 2.76072,0 4.99776,-2.23652 4.99776,-4.99723"
       style="fill:#ffffff;fill-opacity:1;fill-rule:nonzero;stroke:none"
       id="path3041" /><path
       d="m 421.59202,558.90153 c 0,-2.76122 -2.23704,-4.99776 -4.99776,-4.99776 -2.7607,0 -4.99732,2.23654 -4.99732,4.99776 0,2.76071 2.23662,4.99721 4.99732,4.99721 2.76072,0 4.99776,-2.2365 4.99776,-4.99721"
       style="fill:#ffffff;fill-opacity:1;fill-rule:nonzero;stroke:none"
       id="path3043" /><path
       d="m 409.13782,560.98159 c 0,-2.76124 -2.236,-4.99786 -4.99722,-4.99786 -2.76124,0 -4.99725,2.23662 -4.99725,4.99786 0,2.76071 2.23601,4.99723 4.99725,4.99723 2.76122,0 4.99722,-2.23652 4.99722,-4.99723"
       style="fill:#ffffff;fill-opacity:1;fill-rule:nonzero;stroke:none"
       id="path3045" /><path
       d="m 416.27704,558.12566 c 0,-2.76071 -2.23657,-4.99723 -4.9978,-4.99723 -2.7602,0 -4.99724,2.23652 -4.99724,4.99723 0,2.76071 2.23704,4.99721 4.99724,4.99721 2.76123,0 4.9978,-2.2365 4.9978,-4.99721"
       style="fill:#ffffff;fill-opacity:1;fill-rule:nonzero;stroke:none"
       id="path3047" /><path
       d="m 386.63664,561.24571 c 0,-2.76071 -2.23652,-4.9972 -4.99775,-4.9972 -2.76019,0 -4.99725,2.23649 -4.99725,4.9972 0,2.76071 2.23706,4.9972 4.99725,4.9972 2.76123,0 4.99775,-2.23649 4.99775,-4.9972"
       style="fill:#ffffff;fill-opacity:1;fill-rule:nonzero;stroke:none"
       id="path3049" /><path
       d="m 477.67317,558.12566 c 0,-2.76071 -2.23664,-4.99723 -4.99734,-4.99723 -2.76126,0 -4.99775,2.23652 -4.99775,4.99723 0,2.76071 2.23649,4.99721 4.99775,4.99721 2.7607,0 4.99734,-2.2365 4.99734,-4.99721"
       style="fill:#ffffff;fill-opacity:1;fill-rule:nonzero;stroke:none"
       id="path3051" /><path
       d="m 464.82268,559.55365 c 0,-2.7607 -2.23653,-4.99738 -4.99723,-4.99738 -2.76074,0 -4.9967,2.23668 -4.9967,4.99738 0,2.76071 2.23596,4.9972 4.9967,4.9972 2.7607,0 4.99723,-2.23649 4.99723,-4.9972"
       style="fill:#ffffff;fill-opacity:1;fill-rule:nonzero;stroke:none"
       id="path3053" /><path
       d="m 456.25618,558.12566 c 0,-2.76071 -2.23663,-4.99723 -4.99786,-4.99723 -2.76071,0 -4.99723,2.23652 -4.99723,4.99723 0,2.76071 2.23652,4.99721 4.99723,4.99721 2.76123,0 4.99786,-2.2365 4.99786,-4.99721"
       style="fill:#ffffff;fill-opacity:1;fill-rule:nonzero;stroke:none"
       id="path3055" /><path
       d="m 384.86449,556.69769 c 0,-2.76071 -2.23662,-4.9972 -4.99732,-4.9972 -2.76071,0 -4.99724,2.23649 -4.99724,4.9972 0,2.76123 2.23653,4.99776 4.99724,4.99776 2.7607,0 4.99732,-2.23653 4.99732,-4.99776"
       style="fill:#ffffff;fill-opacity:1;fill-rule:nonzero;stroke:none"
       id="path3057" /><path
       d="m 372.01414,559.55365 c 0,-2.7607 -2.23662,-4.99738 -4.99734,-4.99738 -2.7607,0 -4.99722,2.23668 -4.99722,4.99738 0,2.76071 2.23652,4.9972 4.99722,4.9972 2.76072,0 4.99734,-2.23649 4.99734,-4.9972"
       style="fill:#ffffff;fill-opacity:1;fill-rule:nonzero;stroke:none"
       id="path3059" /><path
       d="m 378.25422,557.47355 c 0,-2.76065 -2.23662,-4.9972 -4.99733,-4.9972 -2.7607,0 -4.99723,2.23655 -4.99723,4.9972 0,2.7607 2.23653,4.99725 4.99723,4.99725 2.76071,0 4.99733,-2.23655 4.99733,-4.99725"
       style="fill:#ffffff;fill-opacity:1;fill-rule:nonzero;stroke:none"
       id="path3061" /><path
       d="m 393.85492,560.07355 c 0,-2.76066 -2.23714,-4.99723 -4.99785,-4.99723 -2.76072,0 -4.99725,2.23657 -4.99725,4.99723 0,2.76071 2.23653,4.99733 4.99725,4.99733 2.76071,0 4.99785,-2.23662 4.99785,-4.99733"
       style="fill:#ffffff;fill-opacity:1;fill-rule:nonzero;stroke:none"
       id="path3063" /><path
       d="m 433.37532,559.03357 c 0,-2.76066 -2.23652,-4.9972 -4.99826,-4.9972 -2.76021,0 -4.99674,2.23654 -4.99674,4.9972 0,2.76071 2.23653,4.99723 4.99674,4.99723 2.76174,0 4.99826,-2.23652 4.99826,-4.99723"
       style="fill:#ffffff;fill-opacity:1;fill-rule:nonzero;stroke:none"
       id="path3065" /><path
       d="m 448.9755,557.47355 c 0,-2.76065 -2.23652,-4.9972 -4.99827,-4.9972 -2.76018,0 -4.99673,2.23655 -4.99673,4.9972 0,2.7607 2.23655,4.99725 4.99673,4.99725 2.76175,0 4.99827,-2.23655 4.99827,-4.99725"
       style="fill:#ffffff;fill-opacity:1;fill-rule:nonzero;stroke:none"
       id="path3067" /><path
       d="m 357.73633,553.84242 c 0,-2.76071 -2.23713,-4.99733 -4.99785,-4.99733 -2.76072,0 -4.99725,2.23662 -4.99725,4.99733 0,2.76071 2.23653,4.99723 4.99725,4.99723 2.76072,0 4.99785,-2.23652 4.99785,-4.99723"
       style="fill:#ffffff;fill-opacity:1;fill-rule:nonzero;stroke:none"
       id="path3069" /><path
       d="m 369.15874,553.84242 c 0,-2.76071 -2.23653,-4.99733 -4.99723,-4.99733 -2.76071,0 -4.99785,2.23662 -4.99785,4.99733 0,2.76071 2.23714,4.99723 4.99785,4.99723 2.7607,0 4.99723,-2.23652 4.99723,-4.99723"
       style="fill:#ffffff;fill-opacity:1;fill-rule:nonzero;stroke:none"
       id="path3071" /><path
       d="m 364.87498,553.84242 c 0,-2.76071 -2.23662,-4.99733 -4.99734,-4.99733 -2.7607,0 -4.99722,2.23662 -4.99722,4.99733 0,2.76071 2.23652,4.99723 4.99722,4.99723 2.76072,0 4.99734,-2.23652 4.99734,-4.99723"
       style="fill:#ffffff;fill-opacity:1;fill-rule:nonzero;stroke:none"
       id="path3073" /><path
       d="m 347.74123,546.70326 c 0,-2.76071 -2.23653,-4.99728 -4.99723,-4.99728 -2.76071,0 -4.99784,2.23657 -4.99784,4.99728 0,2.76071 2.23713,4.99723 4.99784,4.99723 2.7607,0 4.99723,-2.23652 4.99723,-4.99723"
       style="fill:#ffffff;fill-opacity:1;fill-rule:nonzero;stroke:none"
       id="path3075" /><path
       d="m 337.74616,543.84733 c 0,-2.76071 -2.23654,-4.99723 -4.99725,-4.99723 -2.7607,0 -4.99719,2.23652 -4.99719,4.99723 0,2.76124 2.23649,4.99776 4.99719,4.99776 2.76071,0 4.99725,-2.23652 4.99725,-4.99776"
       style="fill:#ffffff;fill-opacity:1;fill-rule:nonzero;stroke:none"
       id="path3077" /><path
       d="m 327.75172,528.14154 c 0,-2.76124 -2.23653,-4.99773 -4.99723,-4.99773 -2.76125,0 -4.99787,2.23649 -4.99787,4.99773 0,2.76071 2.23662,4.99671 4.99787,4.99671 2.7607,0 4.99723,-2.236 4.99723,-4.99671"
       style="fill:#ffffff;fill-opacity:1;fill-rule:nonzero;stroke:none"
       id="path3079" /><path
       d="m 322.0405,516.71864 c 0,-2.76071 -2.23662,-4.99723 -4.99734,-4.99723 -2.7607,0 -4.99776,2.23652 -4.99776,4.99723 0,2.76071 2.23706,4.99771 4.99776,4.99771 2.76072,0 4.99734,-2.237 4.99734,-4.99771"
       style="fill:#ffffff;fill-opacity:1;fill-rule:nonzero;stroke:none"
       id="path3081" /><path
       d="m 332.03493,536.70816 c 0,-2.7607 -2.23649,-4.99723 -4.99721,-4.99723 -2.7607,0 -4.99722,2.23653 -4.99722,4.99723 0,2.76123 2.23652,4.99782 4.99722,4.99782 2.76072,0 4.99721,-2.23659 4.99721,-4.99782"
       style="fill:#ffffff;fill-opacity:1;fill-rule:nonzero;stroke:none"
       id="path3083" /><path
       d="m 491.95155,556.69769 c 0,-2.76071 -2.23719,-4.9972 -4.99743,-4.9972 -2.76122,0 -4.99771,2.23649 -4.99771,4.9972 0,2.76123 2.23649,4.99776 4.99771,4.99776 2.76024,0 4.99743,-2.23653 4.99743,-4.99776"
       style="fill:#ffffff;fill-opacity:1;fill-rule:nonzero;stroke:none"
       id="path3085" /><path
       d="m 501.94644,550.9865 c 0,-2.76071 -2.23649,-4.99718 -4.99719,-4.99718 -2.76124,0 -4.9977,2.23647 -4.9977,4.99718 0,2.76071 2.23646,4.99723 4.9977,4.99723 2.7607,0 4.99719,-2.23652 4.99719,-4.99723"
       style="fill:#ffffff;fill-opacity:1;fill-rule:nonzero;stroke:none"
       id="path3087" /><path
       d="m 497.26639,553.58649 c 0,-2.7607 -2.2365,-4.99718 -4.9972,-4.99718 -2.76123,0 -4.9977,2.23648 -4.9977,4.99718 0,2.76071 2.23647,4.99734 4.9977,4.99734 2.7607,0 4.9972,-2.23663 4.9972,-4.99734"
       style="fill:#ffffff;fill-opacity:1;fill-rule:nonzero;stroke:none"
       id="path3089" /><path
       d="m 440.5504,553.84242 c 0,-2.76071 -2.23704,-4.99733 -4.99825,-4.99733 -2.76021,0 -4.99683,2.23662 -4.99683,4.99733 0,2.76071 2.23662,4.99723 4.99683,4.99723 2.76121,0 4.99825,-2.23652 4.99825,-4.99723"
       style="fill:#ffffff;fill-opacity:1;fill-rule:nonzero;stroke:none"
       id="path3091" /><path
       d="m 447.68907,553.84242 c 0,-2.76071 -2.23704,-4.99733 -4.99719,-4.99733 -2.76122,0 -4.99794,2.23662 -4.99794,4.99733 0,2.76071 2.23672,4.99723 4.99794,4.99723 2.76015,0 4.99719,-2.23652 4.99719,-4.99723"
       style="fill:#ffffff;fill-opacity:1;fill-rule:nonzero;stroke:none"
       id="path3093" /><path
       d="m 454.82875,553.84242 c 0,-2.76071 -2.23705,-4.99733 -4.99827,-4.99733 -2.76084,0 -4.99737,2.23662 -4.99737,4.99733 0,2.76071 2.23653,4.99723 4.99737,4.99723 2.76122,0 4.99827,-2.23652 4.99827,-4.99723"
       style="fill:#ffffff;fill-opacity:1;fill-rule:nonzero;stroke:none"
       id="path3095" /><path
       d="m 461.96741,553.84242 c 0,-2.76071 -2.23706,-4.99733 -4.99789,-4.99733 -2.76071,0 -4.99725,2.23662 -4.99725,4.99733 0,2.76071 2.23654,4.99723 4.99725,4.99723 2.76083,0 4.99789,-2.23652 4.99789,-4.99723"
       style="fill:#ffffff;fill-opacity:1;fill-rule:nonzero;stroke:none"
       id="path3097" /><path
       d="m 469.10605,553.84242 c 0,-2.76071 -2.23665,-4.99733 -4.99736,-4.99733 -2.76071,0 -4.99723,2.23662 -4.99723,4.99733 0,2.76071 2.23652,4.99723 4.99723,4.99723 2.76071,0 4.99736,-2.23652 4.99736,-4.99723"
       style="fill:#ffffff;fill-opacity:1;fill-rule:nonzero;stroke:none"
       id="path3099" /><path
       d="m 476.24579,553.84242 c 0,-2.76071 -2.23723,-4.99733 -4.99794,-4.99733 -2.76071,0 -4.99775,2.23662 -4.99775,4.99733 0,2.76071 2.23704,4.99723 4.99775,4.99723 2.76071,0 4.99794,-2.23652 4.99794,-4.99723"
       style="fill:#ffffff;fill-opacity:1;fill-rule:nonzero;stroke:none"
       id="path3101" /><path
       d="m 471.04566,558.00245 c 0,-2.76072 -2.23706,-4.99726 -4.99777,-4.99726 -2.76071,0 -4.99788,2.23654 -4.99788,4.99726 0,2.7607 2.23717,4.99719 4.99788,4.99719 2.76071,0 4.99777,-2.23649 4.99777,-4.99719"
       style="fill:#ffffff;fill-opacity:1;fill-rule:nonzero;stroke:none"
       id="path3103" /><path
       d="m 401.36482,560.6024 c 0,-2.76071 -2.23716,-4.99719 -4.99786,-4.99719 -2.76071,0 -4.99776,2.23648 -4.99776,4.99719 0,2.76071 2.23705,4.99737 4.99776,4.99737 2.7607,0 4.99786,-2.23666 4.99786,-4.99737"
       style="fill:#ffffff;fill-opacity:1;fill-rule:nonzero;stroke:none"
       id="path3105" /><path
       d="m 483.38491,553.84242 c 0,-2.76071 -2.23713,-4.99733 -4.99789,-4.99733 -2.76072,0 -4.99724,2.23662 -4.99724,4.99733 0,2.76071 2.23652,4.99723 4.99724,4.99723 2.76076,0 4.99789,-2.23652 4.99789,-4.99723"
       style="fill:#ffffff;fill-opacity:1;fill-rule:nonzero;stroke:none"
       id="path3107" /><path
       d="m 491.23803,550.27256 c 0,-2.76075 -2.23715,-4.99724 -4.99786,-4.99724 -2.76122,0 -4.99775,2.23649 -4.99775,4.99724 0,2.76118 2.23653,4.9977 4.99775,4.9977 2.76071,0 4.99786,-2.23652 4.99786,-4.9977"
       style="fill:#ffffff;fill-opacity:1;fill-rule:nonzero;stroke:none"
       id="path3109" /><path
       d="m 497.6632,548.13059 c 0,-2.76072 -2.23662,-4.99672 -4.99837,-4.99672 -2.7602,0 -4.99666,2.236 -4.99666,4.99672 0,2.76122 2.23646,4.99784 4.99666,4.99784 2.76175,0 4.99837,-2.23662 4.99837,-4.99784"
       style="fill:#ffffff;fill-opacity:1;fill-rule:nonzero;stroke:none"
       id="path3111" /><path
       d="m 507.65721,545.98932 c 0,-2.76076 -2.23607,-4.99738 -4.99728,-4.99738 -2.76066,0 -4.99673,2.23662 -4.99673,4.99738 0,2.76066 2.23607,4.99718 4.99673,4.99718 2.76121,0 4.99728,-2.23652 4.99728,-4.99718"
       style="fill:#ffffff;fill-opacity:1;fill-rule:nonzero;stroke:none"
       id="path3113" /><path
       d="m 514.08337,542.41988 c 0,-2.76123 -2.23704,-4.99773 -4.99827,-4.99773 -2.76071,0 -4.9972,2.2365 -4.9972,4.99773 0,2.76071 2.23649,4.99672 4.9972,4.99672 2.76123,0 4.99827,-2.23601 4.99827,-4.99672"
       style="fill:#ffffff;fill-opacity:1;fill-rule:nonzero;stroke:none"
       id="path3115" /><path
       d="m 521.54814,539.11473 c 0,-2.7607 -2.23705,-4.99772 -4.99776,-4.99772 -2.76083,0 -4.99736,2.23702 -4.99736,4.99772 0,2.76071 2.23653,4.99724 4.99736,4.99724 2.76071,0 4.99776,-2.23653 4.99776,-4.99724"
       style="fill:#ffffff;fill-opacity:1;fill-rule:nonzero;stroke:none"
       id="path3117" /><path
       d="m 526.54587,531.78165 c 0,-2.76123 -2.2365,-4.99776 -4.99773,-4.99776 -2.76066,0 -4.99776,2.23653 -4.99776,4.99776 0,2.76071 2.2371,4.99668 4.99776,4.99668 2.76123,0 4.99773,-2.23597 4.99773,-4.99668"
       style="fill:#ffffff;fill-opacity:1;fill-rule:nonzero;stroke:none"
       id="path3119" /><path
       d="m 529.72726,524.31636 c 0,-2.76071 -2.23702,-4.99776 -4.99768,-4.99776 -2.76075,0 -4.99728,2.23705 -4.99728,4.99776 0,2.76071 2.23653,4.99737 4.99728,4.99737 2.76066,0 4.99768,-2.23666 4.99768,-4.99737"
       style="fill:#ffffff;fill-opacity:1;fill-rule:nonzero;stroke:none"
       id="path3121" /><path
       d="m 532.19466,517.75859 c 0,-2.76071 -2.23649,-4.99721 -4.99721,-4.99721 -2.76066,0 -4.99723,2.2365 -4.99723,4.99721 0,2.76072 2.23657,4.99776 4.99723,4.99776 2.76072,0 4.99721,-2.23704 4.99721,-4.99776"
       style="fill:#ffffff;fill-opacity:1;fill-rule:nonzero;stroke:none"
       id="path3123" /><path
       d="m 530.50259,510.29347 c 0,-2.76076 -2.23649,-4.99738 -4.99714,-4.99738 -2.7608,0 -4.99742,2.23662 -4.99742,4.99738 0,2.76071 2.23662,4.99771 4.99742,4.99771 2.76065,0 4.99714,-2.237 4.99714,-4.99771"
       style="fill:#ffffff;fill-opacity:1;fill-rule:nonzero;stroke:none"
       id="path3125" /><path
       d="m 534.14267,504.19424 c 0,-2.76071 -2.23662,-4.99719 -4.99727,-4.99719 -2.76077,0 -4.9973,2.23648 -4.9973,4.99719 0,2.76071 2.23653,4.99775 4.9973,4.99775 2.76065,0 4.99727,-2.23704 4.99727,-4.99775"
       style="fill:#ffffff;fill-opacity:1;fill-rule:nonzero;stroke:none"
       id="path3127" /><path
       d="m 531.60445,496.66722 c 0,-2.76072 -2.23652,-4.99734 -4.99723,-4.99734 -2.76066,0 -4.99767,2.23662 -4.99767,4.99734 0,2.76122 2.23701,4.99775 4.99767,4.99775 2.76071,0 4.99723,-2.23653 4.99723,-4.99775"
       style="fill:#ffffff;fill-opacity:1;fill-rule:nonzero;stroke:none"
       id="path3129" /><path
       d="m 534.01063,489.39588 c 0,-2.76072 -2.23665,-4.99725 -4.99736,-4.99725 -2.76072,0 -4.99772,2.23653 -4.99772,4.99725 0,2.76122 2.237,4.99839 4.99772,4.99839 2.76071,0 4.99736,-2.23717 4.99736,-4.99839"
       style="fill:#ffffff;fill-opacity:1;fill-rule:nonzero;stroke:none"
       id="path3131" /><path
       d="m 531.21659,483.87872 c 0,-2.76084 -2.23648,-4.99685 -4.99672,-4.99685 -2.76123,0 -4.99779,2.23601 -4.99779,4.99685 0,2.76124 2.23656,4.99723 4.99779,4.99723 2.76024,0 4.99672,-2.23599 4.99672,-4.99723"
       style="fill:#ffffff;fill-opacity:1;fill-rule:nonzero;stroke:none"
       id="path3133" /><path
       d="m 536.93663,482.83861 c 0,-2.76071 -2.23648,-4.99668 -4.99672,-4.99668 -2.76123,0 -4.99771,2.23597 -4.99771,4.99668 0,2.76072 2.23648,4.99724 4.99771,4.99724 2.76024,0 4.99672,-2.23652 4.99672,-4.99724"
       style="fill:#ffffff;fill-opacity:1;fill-rule:nonzero;stroke:none"
       id="path3135" /><path
       d="m 536.93663,496.35887 c 0,-2.76084 -2.23648,-4.99685 -4.99672,-4.99685 -2.76123,0 -4.99771,2.23601 -4.99771,4.99685 0,2.76122 2.23648,4.99724 4.99771,4.99724 2.76024,0 4.99672,-2.23602 4.99672,-4.99724"
       style="fill:#ffffff;fill-opacity:1;fill-rule:nonzero;stroke:none"
       id="path3137" /><path
       d="m 537.97669,511.43901 c 0,-2.7607 -2.23656,-4.99671 -4.99732,-4.99671 -2.76071,0 -4.99719,2.23601 -4.99719,4.99671 0,2.76124 2.23648,4.9972 4.99719,4.9972 2.76076,0 4.99732,-2.23596 4.99732,-4.9972"
       style="fill:#ffffff;fill-opacity:1;fill-rule:nonzero;stroke:none"
       id="path3139" /><path
       d="m 516.13644,546.27945 c 0,-2.7607 -2.23657,-4.99683 -4.99733,-4.99683 -2.7607,0 -4.99719,2.23613 -4.99719,4.99683 0,2.76072 2.23649,4.99725 4.99719,4.99725 2.76076,0 4.99733,-2.23653 4.99733,-4.99725"
       style="fill:#ffffff;fill-opacity:1;fill-rule:nonzero;stroke:none"
       id="path3141" /><path
       d="m 533.42878,475.69945 c 0,-2.76071 -2.23659,-4.99721 -4.99729,-4.99721 -2.76066,0 -4.99738,2.2365 -4.99738,4.99721 0,2.76122 2.23672,4.99776 4.99738,4.99776 2.7607,0 4.99729,-2.23654 4.99729,-4.99776"
       style="fill:#ffffff;fill-opacity:1;fill-rule:nonzero;stroke:none"
       id="path3143" /><path
       d="m 533.0413,468.04089 c 0,-2.76123 -2.23705,-4.99734 -4.99781,-4.99734 -2.76071,0 -4.99715,2.23611 -4.99715,4.99734 0,2.76071 2.23644,4.99672 4.99715,4.99672 2.76076,0 4.99781,-2.23601 4.99781,-4.99672"
       style="fill:#ffffff;fill-opacity:1;fill-rule:nonzero;stroke:none"
       id="path3145" /><path
       d="m 531.28728,460.18722 c 0,-2.76019 -2.23701,-4.99681 -4.99767,-4.99681 -2.76076,0 -4.9973,2.23662 -4.9973,4.99681 0,2.76122 2.23654,4.99775 4.9973,4.99775 2.76066,0 4.99767,-2.23653 4.99767,-4.99775"
       style="fill:#ffffff;fill-opacity:1;fill-rule:nonzero;stroke:none"
       id="path3147" /><path
       d="m 523.36343,456.03644 c 0,-2.76123 -2.23591,-4.99777 -4.99715,-4.99777 -2.76075,0 -4.99689,2.23654 -4.99689,4.99777 0,2.7607 2.23614,4.99681 4.99689,4.99681 2.76124,0 4.99715,-2.23611 4.99715,-4.99681"
       style="fill:#ffffff;fill-opacity:1;fill-rule:nonzero;stroke:none"
       id="path3149" /><path
       d="m 521.22208,450.32523 c 0,-2.76121 -2.23705,-4.99774 -4.99781,-4.99774 -2.76071,0 -4.99668,2.23653 -4.99668,4.99774 0,2.76072 2.23597,4.99734 4.99668,4.99734 2.76076,0 4.99781,-2.23662 4.99781,-4.99734"
       style="fill:#ffffff;fill-opacity:1;fill-rule:nonzero;stroke:none"
       id="path3151" /><path
       d="m 516.93826,443.18607 c 0,-2.76122 -2.23648,-4.99774 -4.99672,-4.99774 -2.76123,0 -4.99785,2.23652 -4.99785,4.99774 0,2.76071 2.23662,4.99682 4.99785,4.99682 2.76024,0 4.99672,-2.23611 4.99672,-4.99682"
       style="fill:#ffffff;fill-opacity:1;fill-rule:nonzero;stroke:none"
       id="path3153" /><path
       d="m 509.0851,440.33025 c 0,-2.76123 -2.23599,-4.99732 -4.9972,-4.99732 -2.76071,0 -4.99673,2.23609 -4.99673,4.99732 0,2.76071 2.23602,4.99724 4.99673,4.99724 2.76121,0 4.9972,-2.23653 4.9972,-4.99724"
       style="fill:#ffffff;fill-opacity:1;fill-rule:nonzero;stroke:none"
       id="path3155" /><path
       d="m 502.65993,434.61906 c 0,-2.76084 -2.23654,-4.99788 -4.99673,-4.99788 -2.76123,0 -4.99837,2.23704 -4.99837,4.99788 0,2.76072 2.23714,4.99724 4.99837,4.99724 2.76019,0 4.99673,-2.23652 4.99673,-4.99724"
       style="fill:#ffffff;fill-opacity:1;fill-rule:nonzero;stroke:none"
       id="path3157" /><path
       d="m 496.23479,431.04915 c 0,-2.7607 -2.23606,-4.99723 -4.99676,-4.99723 -2.76124,0 -4.99786,2.23653 -4.99786,4.99723 0,2.76071 2.23662,4.99724 4.99786,4.99724 2.7607,0 4.99676,-2.23653 4.99676,-4.99724"
       style="fill:#ffffff;fill-opacity:1;fill-rule:nonzero;stroke:none"
       id="path3159" /><path
       d="m 488.3821,430.33517 c 0,-2.76123 -2.23649,-4.9972 -4.99719,-4.9972 -2.76075,0 -4.99789,2.23597 -4.99789,4.9972 0,2.76122 2.23714,4.99776 4.99789,4.99776 2.7607,0 4.99719,-2.23654 4.99719,-4.99776"
       style="fill:#ffffff;fill-opacity:1;fill-rule:nonzero;stroke:none"
       id="path3161" /><path
       d="m 477.67317,431.76314 c 0,-2.76071 -2.23664,-4.99723 -4.99734,-4.99723 -2.76126,0 -4.99775,2.23652 -4.99775,4.99723 0,2.76071 2.23649,4.9972 4.99775,4.9972 2.7607,0 4.99734,-2.23649 4.99734,-4.9972"
       style="fill:#ffffff;fill-opacity:1;fill-rule:nonzero;stroke:none"
       id="path3163" /><path
       d="m 469.82005,431.76314 c 0,-2.76071 -2.23615,-4.99723 -4.99737,-4.99723 -2.76066,0 -4.99723,2.23652 -4.99723,4.99723 0,2.76071 2.23657,4.9972 4.99723,4.9972 2.76122,0 4.99737,-2.23649 4.99737,-4.9972"
       style="fill:#ffffff;fill-opacity:1;fill-rule:nonzero;stroke:none"
       id="path3165" /><path
       d="m 459.11146,431.04915 c 0,-2.7607 -2.23651,-4.99723 -4.99773,-4.99723 -2.7602,0 -4.99724,2.23653 -4.99724,4.99723 0,2.76071 2.23704,4.99724 4.99724,4.99724 2.76122,0 4.99773,-2.23653 4.99773,-4.99724"
       style="fill:#ffffff;fill-opacity:1;fill-rule:nonzero;stroke:none"
       id="path3167" /><path
       d="m 452.68626,430.33517 c 0,-2.76123 -2.23649,-4.9972 -4.99719,-4.9972 -2.76071,0 -4.99719,2.23597 -4.99719,4.9972 0,2.76122 2.23648,4.99776 4.99719,4.99776 2.7607,0 4.99719,-2.23654 4.99719,-4.99776"
       style="fill:#ffffff;fill-opacity:1;fill-rule:nonzero;stroke:none"
       id="path3169" /><path
       d="m 436.266,433.90507 c 0,-2.76071 -2.23652,-4.99784 -4.99724,-4.99784 -2.76072,0 -4.99668,2.23713 -4.99668,4.99784 0,2.76072 2.23596,4.99724 4.99668,4.99724 2.76072,0 4.99724,-2.23652 4.99724,-4.99724"
       style="fill:#ffffff;fill-opacity:1;fill-rule:nonzero;stroke:none"
       id="path3171" /><path
       d="m 395.57293,431.76314 c 0,-2.76071 -2.23599,-4.99723 -4.9972,-4.99723 -2.76071,0 -4.99725,2.23652 -4.99725,4.99723 0,2.76071 2.23654,4.9972 4.99725,4.9972 2.76121,0 4.9972,-2.23649 4.9972,-4.9972"
       style="fill:#ffffff;fill-opacity:1;fill-rule:nonzero;stroke:none"
       id="path3173" /><path
       d="m 385.57848,432.47713 c 0,-2.76071 -2.23662,-4.99723 -4.99733,-4.99723 -2.7607,0 -4.99723,2.23652 -4.99723,4.99723 0,2.76071 2.23653,4.9972 4.99723,4.9972 2.76071,0 4.99733,-2.23649 4.99733,-4.9972"
       style="fill:#ffffff;fill-opacity:1;fill-rule:nonzero;stroke:none"
       id="path3175" /><path
       d="m 378.43932,433.90507 c 0,-2.76071 -2.23662,-4.99784 -4.99733,-4.99784 -2.7607,0 -4.99725,2.23713 -4.99725,4.99784 0,2.76072 2.23655,4.99724 4.99725,4.99724 2.76071,0 4.99733,-2.23652 4.99733,-4.99724"
       style="fill:#ffffff;fill-opacity:1;fill-rule:nonzero;stroke:none"
       id="path3177" /><path
       d="m 347.74123,441.7581 c 0,-2.76124 -2.23653,-4.99776 -4.99723,-4.99776 -2.76071,0 -4.99784,2.23652 -4.99784,4.99776 0,2.76084 2.23713,4.99736 4.99784,4.99736 2.7607,0 4.99723,-2.23652 4.99723,-4.99736"
       style="fill:#ffffff;fill-opacity:1;fill-rule:nonzero;stroke:none"
       id="path3179" /><path
       d="m 337.03228,452.46665 c 0,-2.76122 -2.23662,-4.99775 -4.99735,-4.99775 -2.76071,0 -4.99721,2.23653 -4.99721,4.99775 0,2.7607 2.2365,4.99777 4.99721,4.99777 2.76073,0 4.99735,-2.23707 4.99735,-4.99777"
       style="fill:#ffffff;fill-opacity:1;fill-rule:nonzero;stroke:none"
       id="path3181" /><path
       d="m 340.60207,446.75546 c 0,-2.76071 -2.23648,-4.99736 -4.99723,-4.99736 -2.76123,0 -4.99785,2.23665 -4.99785,4.99736 0,2.76071 2.23662,4.9972 4.99785,4.9972 2.76075,0 4.99723,-2.23649 4.99723,-4.9972"
       style="fill:#ffffff;fill-opacity:1;fill-rule:nonzero;stroke:none"
       id="path3183" /><path
       d="m 364.16151,436.76034 c 0,-2.76071 -2.23662,-4.9972 -4.99785,-4.9972 -2.76071,0 -4.99724,2.23649 -4.99724,4.9972 0,2.76071 2.23653,4.99776 4.99724,4.99776 2.76123,0 4.99785,-2.23705 4.99785,-4.99776"
       style="fill:#ffffff;fill-opacity:1;fill-rule:nonzero;stroke:none"
       id="path3185" /><path
       d="m 347.02725,435.33293 c 0,-2.76072 -2.23649,-4.99776 -4.99772,-4.99776 -2.7607,0 -4.99725,2.23704 -4.99725,4.99776 0,2.7607 2.23655,4.99732 4.99725,4.99732 2.76123,0 4.99772,-2.23662 4.99772,-4.99732"
       style="fill:#ffffff;fill-opacity:1;fill-rule:nonzero;stroke:none"
       id="path3187" /><path
       d="m 354.16642,428.19375 c 0,-2.76072 -2.2365,-4.99723 -4.99722,-4.99723 -2.7612,0 -4.99722,2.23651 -4.99722,4.99723 0,2.76124 2.23602,4.99733 4.99722,4.99733 2.76072,0 4.99722,-2.23609 4.99722,-4.99733"
       style="fill:#ffffff;fill-opacity:1;fill-rule:nonzero;stroke:none"
       id="path3189" /><path
       d="m 358.45032,406.77625 c 0,-2.76124 -2.23718,-4.99776 -4.99788,-4.99776 -2.76072,0 -4.99722,2.23652 -4.99722,4.99776 0,2.76122 2.2365,4.99788 4.99722,4.99788 2.7607,0 4.99788,-2.23666 4.99788,-4.99788"
       style="fill:#ffffff;fill-opacity:1;fill-rule:nonzero;stroke:none"
       id="path3191" /><path
       d="m 359.4903,431.21663 c 0,-2.76122 -2.23706,-4.99775 -4.99776,-4.99775 -2.76071,0 -4.99733,2.23653 -4.99733,4.99775 0,2.76124 2.23662,4.99773 4.99733,4.99773 2.7607,0 4.99776,-2.23649 4.99776,-4.99773"
       style="fill:#ffffff;fill-opacity:1;fill-rule:nonzero;stroke:none"
       id="path3193" /><path
       d="m 350.65023,432.77665 c 0,-2.76122 -2.23719,-4.99775 -4.9979,-4.99775 -2.7607,0 -4.99719,2.23653 -4.99719,4.99775 0,2.76124 2.23649,4.99772 4.99719,4.99772 2.76071,0 4.9979,-2.23648 4.9979,-4.99772"
       style="fill:#ffffff;fill-opacity:1;fill-rule:nonzero;stroke:none"
       id="path3195" /><path
       d="m 358.45032,423.41654 c 0,-2.76122 -2.23718,-4.99776 -4.99788,-4.99776 -2.76072,0 -4.99722,2.23654 -4.99722,4.99776 0,2.76123 2.2365,4.99773 4.99722,4.99773 2.7607,0 4.99788,-2.2365 4.99788,-4.99773"
       style="fill:#ffffff;fill-opacity:1;fill-rule:nonzero;stroke:none"
       id="path3197" /><path
       d="m 344.41002,419.77644 c 0,-2.76123 -2.23704,-4.99773 -4.99775,-4.99773 -2.7607,0 -4.9972,2.2365 -4.9972,4.99773 0,2.76122 2.2365,4.99776 4.9972,4.99776 2.76071,0 4.99775,-2.23654 4.99775,-4.99776"
       style="fill:#ffffff;fill-opacity:1;fill-rule:nonzero;stroke:none"
       id="path3199" /><path
       d="m 516.53208,436.93663 c 0,-2.76122 -2.237,-4.99771 -4.99766,-4.99771 -2.76077,0 -4.99781,2.23649 -4.99781,4.99771 0,2.76124 2.23704,4.99776 4.99781,4.99776 2.76066,0 4.99766,-2.23652 4.99766,-4.99776"
       style="fill:#ffffff;fill-opacity:1;fill-rule:nonzero;stroke:none"
       id="path3201" /><path
       d="m 455.17145,330.3354 c 0,-2.76123 -2.23717,-4.99777 -4.99783,-4.99777 -2.76076,0 -4.99777,2.23654 -4.99777,4.99777 0,2.76124 2.23701,4.99777 4.99777,4.99777 2.76066,0 4.99783,-2.23653 4.99783,-4.99777"
       style="fill:#ffffff;fill-opacity:1;fill-rule:nonzero;stroke:none"
       id="path3203" /><path
       d="m 390.69066,428.61651 c 0,-2.76123 -2.23704,-4.99776 -4.99776,-4.99776 -2.76071,0 -4.99788,2.23653 -4.99788,4.99776 0,2.76122 2.23717,4.99788 4.99788,4.99788 2.76072,0 4.99776,-2.23666 4.99776,-4.99788"
       style="fill:#ffffff;fill-opacity:1;fill-rule:nonzero;stroke:none"
       id="path3205" /><path
       d="m 375.09048,428.61651 c 0,-2.76123 -2.23704,-4.99776 -4.99775,-4.99776 -2.76072,0 -4.99789,2.23653 -4.99789,4.99776 0,2.76122 2.23717,4.99788 4.99789,4.99788 2.76071,0 4.99775,-2.23666 4.99775,-4.99788"
       style="fill:#ffffff;fill-opacity:1;fill-rule:nonzero;stroke:none"
       id="path3207" /><path
       d="m 407.85087,426.53658 c 0,-2.76123 -2.23704,-4.99776 -4.99775,-4.99776 -2.76072,0 -4.99786,2.23653 -4.99786,4.99776 0,2.76123 2.23714,4.99772 4.99786,4.99772 2.76071,0 4.99775,-2.23649 4.99775,-4.99772"
       style="fill:#ffffff;fill-opacity:1;fill-rule:nonzero;stroke:none"
       id="path3209" /><path
       d="m 358.45032,366.79718 c 0,-2.76071 -2.23718,-4.99725 -4.99788,-4.99725 -2.76072,0 -4.99722,2.23654 -4.99722,4.99725 0,2.76073 2.2365,4.99727 4.99722,4.99727 2.7607,0 4.99788,-2.23654 4.99788,-4.99727"
       style="fill:#ffffff;fill-opacity:1;fill-rule:nonzero;stroke:none"
       id="path3211" /><path
       d="m 344.93007,405.79763 c 0,-2.76071 -2.23703,-4.9972 -4.99773,-4.9972 -2.76071,0 -4.99775,2.23649 -4.99775,4.9972 0,2.7607 2.23704,4.99723 4.99775,4.99723 2.7607,0 4.99773,-2.23653 4.99773,-4.99723"
       style="fill:#ffffff;fill-opacity:1;fill-rule:nonzero;stroke:none"
       id="path3213" /><path
       d="m 510.81209,408.91767 c 0,-2.76072 -2.23705,-4.9972 -4.9977,-4.9972 -2.76077,0 -4.9979,2.23648 -4.9979,4.9972 0,2.76071 2.23713,4.99724 4.9979,4.99724 2.76065,0 4.9977,-2.23653 4.9977,-4.99724"
       style="fill:#ffffff;fill-opacity:1;fill-rule:nonzero;stroke:none"
       id="path3215" /><path
       d="m 484.81181,328.83675 c 0,-2.76071 -2.23718,-4.99726 -4.99784,-4.99726 -2.76076,0 -4.99776,2.23655 -4.99776,4.99726 0,2.76071 2.237,4.99725 4.99776,4.99725 2.76066,0 4.99784,-2.23654 4.99784,-4.99725"
       style="fill:#ffffff;fill-opacity:1;fill-rule:nonzero;stroke:none"
       id="path3217" /><path
       d="m 481.69177,284.11622 c 0,-2.76072 -2.23718,-4.99726 -4.99783,-4.99726 -2.76077,0 -4.99777,2.23654 -4.99777,4.99726 0,2.76071 2.237,4.99725 4.99777,4.99725 2.76065,0 4.99783,-2.23654 4.99783,-4.99725"
       style="fill:#ffffff;fill-opacity:1;fill-rule:nonzero;stroke:none"
       id="path3219" /><path
       d="m 381.29511,428.19375 c 0,-2.76072 -2.23649,-4.99723 -4.99772,-4.99723 -2.76019,0 -4.99671,2.23651 -4.99671,4.99723 0,2.76124 2.23652,4.99733 4.99671,4.99733 2.76123,0 4.99772,-2.23609 4.99772,-4.99733"
       style="fill:#ffffff;fill-opacity:1;fill-rule:nonzero;stroke:none"
       id="path3221" /><path
       d="m 401.28466,428.19375 c 0,-2.76072 -2.23653,-4.99723 -4.99774,-4.99723 -2.7602,0 -4.9967,2.23651 -4.9967,4.99723 0,2.76124 2.2365,4.99733 4.9967,4.99733 2.76121,0 4.99774,-2.23609 4.99774,-4.99733"
       style="fill:#ffffff;fill-opacity:1;fill-rule:nonzero;stroke:none"
       id="path3223" /><path
       d="m 388.43374,421.05459 c 0,-2.76124 -2.23596,-4.99776 -4.99668,-4.99776 -2.76121,0 -4.99774,2.23652 -4.99774,4.99776 0,2.76071 2.23653,4.99733 4.99774,4.99733 2.76072,0 4.99668,-2.23662 4.99668,-4.99733"
       style="fill:#ffffff;fill-opacity:1;fill-rule:nonzero;stroke:none"
       id="path3225" /><path
       d="m 456.96952,425.33797 c 0,-2.76072 -2.23648,-4.99723 -4.99725,-4.99723 -2.7607,0 -4.99714,2.23651 -4.99714,4.99723 0,2.76071 2.23644,4.9972 4.99714,4.9972 2.76077,0 4.99725,-2.23649 4.99725,-4.9972"
       style="fill:#ffffff;fill-opacity:1;fill-rule:nonzero;stroke:none"
       id="path3227" /><path
       d="m 472.67583,428.19375 c 0,-2.76072 -2.23653,-4.99723 -4.99775,-4.99723 -2.76015,0 -4.99672,2.23651 -4.99672,4.99723 0,2.76124 2.23657,4.99733 4.99672,4.99733 2.76122,0 4.99775,-2.23609 4.99775,-4.99733"
       style="fill:#ffffff;fill-opacity:1;fill-rule:nonzero;stroke:none"
       id="path3229" /><path
       d="m 498.37723,418.1988 c 0,-2.76072 -2.23718,-4.99723 -4.99842,-4.99723 -2.76019,0 -4.99671,2.23651 -4.99671,4.99723 0,2.76123 2.23652,4.99772 4.99671,4.99772 2.76124,0 4.99842,-2.23649 4.99842,-4.99772"
       style="fill:#ffffff;fill-opacity:1;fill-rule:nonzero;stroke:none"
       id="path3231" /><path
       d="m 494.09277,408.20423 c 0,-2.76126 -2.23649,-4.99776 -4.99668,-4.99776 -2.76123,0 -4.99724,2.2365 -4.99724,4.99776 0,2.7602 2.23601,4.99734 4.99724,4.99734 2.76019,0 4.99668,-2.23714 4.99668,-4.99734"
       style="fill:#ffffff;fill-opacity:1;fill-rule:nonzero;stroke:none"
       id="path3233" /><path
       d="m 503.45287,421.72393 c 0,-2.76071 -2.23596,-4.99733 -4.99666,-4.99733 -2.76124,0 -4.99725,2.23662 -4.99725,4.99733 0,2.76071 2.23601,4.99776 4.99725,4.99776 2.7607,0 4.99666,-2.23705 4.99666,-4.99776"
       style="fill:#ffffff;fill-opacity:1;fill-rule:nonzero;stroke:none"
       id="path3235" /><path
       d="m 513.85311,427.964 c 0,-2.76071 -2.23662,-4.99734 -4.99682,-4.99734 -2.76126,0 -4.99723,2.23663 -4.99723,4.99734 0,2.76072 2.23597,4.99776 4.99723,4.99776 2.7602,0 4.99682,-2.23704 4.99682,-4.99776"
       style="fill:#ffffff;fill-opacity:1;fill-rule:nonzero;stroke:none"
       id="path3237" /><path
       d="m 494.09277,365.36925 c 0,-2.7607 -2.23649,-4.99726 -4.99668,-4.99726 -2.76123,0 -4.99724,2.23656 -4.99724,4.99726 0,2.76072 2.23601,4.99726 4.99724,4.99726 2.76019,0 4.99668,-2.23654 4.99668,-4.99726"
       style="fill:#ffffff;fill-opacity:1;fill-rule:nonzero;stroke:none"
       id="path3239" /><path
       d="m 455.54172,396.78181 c 0,-2.76122 -2.23668,-4.99775 -4.99739,-4.99775 -2.76019,0 -4.99666,2.23653 -4.99666,4.99775 0,2.76019 2.23647,4.99668 4.99666,4.99668 2.76071,0 4.99739,-2.23649 4.99739,-4.99668"
       style="fill:#ffffff;fill-opacity:1;fill-rule:nonzero;stroke:none"
       id="path3241" /><path
       d="m 455.02168,414.46206 c 0,-2.76123 -2.23657,-4.99785 -4.99728,-4.99785 -2.76021,0 -4.99677,2.23662 -4.99677,4.99785 0,2.76019 2.23656,4.99671 4.99677,4.99671 2.76071,0 4.99728,-2.23652 4.99728,-4.99671"
       style="fill:#ffffff;fill-opacity:1;fill-rule:nonzero;stroke:none"
       id="path3243" /><path
       d="m 470.62187,416.54197 c 0,-2.76122 -2.23655,-4.99771 -4.99729,-4.99771 -2.76019,0 -4.99675,2.23649 -4.99675,4.99771 0,2.7602 2.23656,4.99685 4.99675,4.99685 2.76074,0 4.99729,-2.23665 4.99729,-4.99685"
       style="fill:#ffffff;fill-opacity:1;fill-rule:nonzero;stroke:none"
       id="path3245" /><path
       d="m 462.82176,413.42195 c 0,-2.76124 -2.23652,-4.99773 -4.99728,-4.99773 -2.76019,0 -4.99676,2.23649 -4.99676,4.99773 0,2.76018 2.23657,4.99683 4.99676,4.99683 2.76076,0 4.99728,-2.23665 4.99728,-4.99683"
       style="fill:#ffffff;fill-opacity:1;fill-rule:nonzero;stroke:none"
       id="path3247" /><path
       d="m 469.06185,409.26195 c 0,-2.76122 -2.23655,-4.99774 -4.9973,-4.99774 -2.76018,0 -4.99675,2.23652 -4.99675,4.99774 0,2.7602 2.23657,4.9967 4.99675,4.9967 2.76075,0 4.9973,-2.2365 4.9973,-4.9967"
       style="fill:#ffffff;fill-opacity:1;fill-rule:nonzero;stroke:none"
       id="path3249" /><path
       d="m 428.50138,419.66202 c 0,-2.76123 -2.2366,-4.99773 -4.99731,-4.99773 -2.76019,0 -4.99681,2.2365 -4.99681,4.99773 0,2.76019 2.23662,4.99685 4.99681,4.99685 2.76071,0 4.99731,-2.23666 4.99731,-4.99685"
       style="fill:#ffffff;fill-opacity:1;fill-rule:nonzero;stroke:none"
       id="path3251" /><path
       d="m 407.1811,414.46206 c 0,-2.76123 -2.23663,-4.99785 -4.99734,-4.99785 -2.76018,0 -4.99672,2.23662 -4.99672,4.99785 0,2.76019 2.23654,4.99671 4.99672,4.99671 2.76071,0 4.99734,-2.23652 4.99734,-4.99671"
       style="fill:#ffffff;fill-opacity:1;fill-rule:nonzero;stroke:none"
       id="path3253" /><path
       d="m 380.14075,416.02207 c 0,-2.76122 -2.23653,-4.99786 -4.99725,-4.99786 -2.76018,0 -4.9968,2.23664 -4.9968,4.99786 0,2.7602 2.23662,4.99673 4.9968,4.99673 2.76072,0 4.99725,-2.23653 4.99725,-4.99673"
       style="fill:#ffffff;fill-opacity:1;fill-rule:nonzero;stroke:none"
       id="path3255" /><path
       d="m 385.86078,407.18186 c 0,-2.76122 -2.23652,-4.99771 -4.99724,-4.99771 -2.76018,0 -4.99668,2.23649 -4.99668,4.99771 0,2.76021 2.2365,4.99685 4.99668,4.99685 2.76072,0 4.99724,-2.23664 4.99724,-4.99685"
       style="fill:#ffffff;fill-opacity:1;fill-rule:nonzero;stroke:none"
       id="path3257" /><path
       d="m 394.1809,410.82198 c 0,-2.76123 -2.23653,-4.99775 -4.99723,-4.99775 -2.7602,0 -4.99682,2.23652 -4.99682,4.99775 0,2.76019 2.23662,4.99668 4.99682,4.99668 2.7607,0 4.99723,-2.23649 4.99723,-4.99668"
       style="fill:#ffffff;fill-opacity:1;fill-rule:nonzero;stroke:none"
       id="path3259" /><path
       d="m 397.30095,396.26174 c 0,-2.76122 -2.23653,-4.99771 -4.99724,-4.99771 -2.76019,0 -4.99681,2.23649 -4.99681,4.99771 0,2.76019 2.23662,4.99685 4.99681,4.99685 2.76071,0 4.99724,-2.23666 4.99724,-4.99685"
       style="fill:#ffffff;fill-opacity:1;fill-rule:nonzero;stroke:none"
       id="path3261" /><path
       d="m 403.02099,407.70193 c 0,-2.76121 -2.23653,-4.99775 -4.99725,-4.99775 -2.7602,0 -4.99668,2.23654 -4.99668,4.99775 0,2.7602 2.23648,4.99669 4.99668,4.99669 2.76072,0 4.99725,-2.23649 4.99725,-4.99669"
       style="fill:#ffffff;fill-opacity:1;fill-rule:nonzero;stroke:none"
       id="path3263" /><path
       d="m 418.62121,416.02207 c 0,-2.76122 -2.23657,-4.99786 -4.99728,-4.99786 -2.76019,0 -4.99668,2.23664 -4.99668,4.99786 0,2.7602 2.23649,4.99673 4.99668,4.99673 2.76071,0 4.99728,-2.23653 4.99728,-4.99673"
       style="fill:#ffffff;fill-opacity:1;fill-rule:nonzero;stroke:none"
       id="path3265" /><path
       d="m 455.54172,423.91051 c 0,-2.76124 -2.23668,-4.99776 -4.99739,-4.99776 -2.76019,0 -4.99666,2.23652 -4.99666,4.99776 0,2.76019 2.23647,4.99672 4.99666,4.99672 2.76071,0 4.99739,-2.23653 4.99739,-4.99672"
       style="fill:#ffffff;fill-opacity:1;fill-rule:nonzero;stroke:none"
       id="path3267" /><path
       d="m 449.82159,420.79046 c 0,-2.76122 -2.23658,-4.99775 -4.99728,-4.99775 -2.7602,0 -4.99664,2.23653 -4.99664,4.99775 0,2.76019 2.23644,4.99672 4.99664,4.99672 2.7607,0 4.99728,-2.23653 4.99728,-4.99672"
       style="fill:#ffffff;fill-opacity:1;fill-rule:nonzero;stroke:none"
       id="path3269" /><path
       d="m 448.26156,412.99038 c 0,-2.76123 -2.23657,-4.99776 -4.99728,-4.99776 -2.7602,0 -4.99664,2.23653 -4.99664,4.99776 0,2.76019 2.23644,4.99671 4.99664,4.99671 2.76071,0 4.99728,-2.23652 4.99728,-4.99671"
       style="fill:#ffffff;fill-opacity:1;fill-rule:nonzero;stroke:none"
       id="path3271" /><path
       d="m 429.84133,423.91051 c 0,-2.76124 -2.23647,-4.99776 -4.9977,-4.99776 -2.76024,0 -4.99725,2.23652 -4.99725,4.99776 0,2.76019 2.23701,4.99672 4.99725,4.99672 2.76123,0 4.9977,-2.23653 4.9977,-4.99672"
       style="fill:#ffffff;fill-opacity:1;fill-rule:nonzero;stroke:none"
       id="path3273" /><path
       d="m 425.55757,406.77625 c 0,-2.76124 -2.23651,-4.99776 -4.99776,-4.99776 -2.76019,0 -4.99681,2.23652 -4.99681,4.99776 0,2.76122 2.23662,4.99788 4.99681,4.99788 2.76125,0 4.99776,-2.23666 4.99776,-4.99788"
       style="fill:#ffffff;fill-opacity:1;fill-rule:nonzero;stroke:none"
       id="path3275" /><path
       d="m 422.70217,418.1988 c 0,-2.76072 -2.23653,-4.99723 -4.99725,-4.99723 -2.76121,0 -4.9977,2.23651 -4.9977,4.99723 0,2.76123 2.23649,4.99772 4.9977,4.99772 2.76072,0 4.99725,-2.23649 4.99725,-4.99772"
       style="fill:#ffffff;fill-opacity:1;fill-rule:nonzero;stroke:none"
       id="path3277" /><path
       d="m 429.46228,411.43866 c 0,-2.76071 -2.2365,-4.99722 -4.99723,-4.99722 -2.76123,0 -4.99785,2.23651 -4.99785,4.99722 0,2.76121 2.23662,4.99775 4.99785,4.99775 2.76073,0 4.99723,-2.23654 4.99723,-4.99775"
       style="fill:#ffffff;fill-opacity:1;fill-rule:nonzero;stroke:none"
       id="path3279" /><path
       d="m 435.70236,405.19857 c 0,-2.7607 -2.23649,-4.99719 -4.99724,-4.99719 -2.76123,0 -4.99785,2.23649 -4.99785,4.99719 0,2.76124 2.23662,4.99776 4.99785,4.99776 2.76075,0 4.99724,-2.23652 4.99724,-4.99776"
       style="fill:#ffffff;fill-opacity:1;fill-rule:nonzero;stroke:none"
       id="path3281" /><path
       d="m 422.70217,394.27844 c 0,-2.76071 -2.23653,-4.99719 -4.99725,-4.99719 -2.76121,0 -4.9977,2.23648 -4.9977,4.99719 0,2.76124 2.23649,4.99776 4.9977,4.99776 2.76072,0 4.99725,-2.23652 4.99725,-4.99776"
       style="fill:#ffffff;fill-opacity:1;fill-rule:nonzero;stroke:none"
       id="path3283" /><path
       d="m 426.86229,352.15799 c 0,-2.76072 -2.23662,-4.99726 -4.99733,-4.99726 -2.76124,0 -4.99776,2.23654 -4.99776,4.99726 0,2.76123 2.23652,4.99778 4.99776,4.99778 2.76071,0 4.99733,-2.23655 4.99733,-4.99778"
       style="fill:#ffffff;fill-opacity:1;fill-rule:nonzero;stroke:none"
       id="path3285" /><path
       d="m 436.74234,427.03883 c 0,-2.76071 -2.23653,-4.9972 -4.99724,-4.9972 -2.76123,0 -4.99771,2.23649 -4.99771,4.9972 0,2.76123 2.23648,4.99776 4.99771,4.99776 2.76071,0 4.99724,-2.23653 4.99724,-4.99776"
       style="fill:#ffffff;fill-opacity:1;fill-rule:nonzero;stroke:none"
       id="path3287" /><path
       d="m 464.30273,427.03883 c 0,-2.76071 -2.23663,-4.9972 -4.99734,-4.9972 -2.76122,0 -4.99775,2.23649 -4.99775,4.9972 0,2.76123 2.23653,4.99776 4.99775,4.99776 2.76071,0 4.99734,-2.23653 4.99734,-4.99776"
       style="fill:#ffffff;fill-opacity:1;fill-rule:nonzero;stroke:none"
       id="path3289" /><path
       d="m 509.02323,433.79898 c 0,-2.76071 -2.23649,-4.99723 -4.9972,-4.99723 -2.76127,0 -4.99789,2.23652 -4.99789,4.99723 0,2.76122 2.23662,4.99771 4.99789,4.99771 2.76071,0 4.9972,-2.23649 4.9972,-4.99771"
       style="fill:#ffffff;fill-opacity:1;fill-rule:nonzero;stroke:none"
       id="path3291" /><path
       d="m 340.02118,438.99907 c 0,-2.76084 -2.2365,-4.99736 -4.99722,-4.99736 -2.76123,0 -4.99771,2.23652 -4.99771,4.99736 0,2.76122 2.23648,4.99775 4.99771,4.99775 2.76072,0 4.99722,-2.23653 4.99722,-4.99775"
       style="fill:#ffffff;fill-opacity:1;fill-rule:nonzero;stroke:none"
       id="path3293" /><path
       d="m 333.26118,446.27913 c 0,-2.7607 -2.23662,-4.99723 -4.99733,-4.99723 -2.76123,0 -4.99827,2.23653 -4.99827,4.99723 0,2.76123 2.23704,4.99772 4.99827,4.99772 2.76071,0 4.99733,-2.23649 4.99733,-4.99772"
       style="fill:#ffffff;fill-opacity:1;fill-rule:nonzero;stroke:none"
       id="path3295" /><path
       d="m 330.14116,451.99913 c 0,-2.76071 -2.23663,-4.9972 -4.99734,-4.9972 -2.76123,0 -4.99828,2.23649 -4.99828,4.9972 0,2.76122 2.23705,4.99776 4.99828,4.99776 2.76071,0 4.99734,-2.23654 4.99734,-4.99776"
       style="fill:#ffffff;fill-opacity:1;fill-rule:nonzero;stroke:none"
       id="path3297" /><path
       d="m 328.58113,460.83933 c 0,-2.7607 -2.23662,-4.99736 -4.99732,-4.99736 -2.76125,0 -4.99829,2.23666 -4.99829,4.99736 0,2.76123 2.23704,4.99775 4.99829,4.99775 2.7607,0 4.99732,-2.23652 4.99732,-4.99775"
       style="fill:#ffffff;fill-opacity:1;fill-rule:nonzero;stroke:none"
       id="path3299" /><path
       d="m 523.06339,444.71911 c 0,-2.76071 -2.23648,-4.99723 -4.99719,-4.99723 -2.76127,0 -4.99789,2.23652 -4.99789,4.99723 0,2.76122 2.23662,4.99772 4.99789,4.99772 2.76071,0 4.99719,-2.2365 4.99719,-4.99772"
       style="fill:#ffffff;fill-opacity:1;fill-rule:nonzero;stroke:none"
       id="path3301" /><path
       d="m 526.70346,453.03924 c 0,-2.76072 -2.23662,-4.99738 -4.99733,-4.99738 -2.76123,0 -4.99776,2.23666 -4.99776,4.99738 0,2.76122 2.23653,4.99775 4.99776,4.99775 2.76071,0 4.99733,-2.23653 4.99733,-4.99775"
       style="fill:#ffffff;fill-opacity:1;fill-rule:nonzero;stroke:none"
       id="path3303" /><path
       d="m 322.34104,468.63942 c 0,-2.76071 -2.23662,-4.99737 -4.99732,-4.99737 -2.76122,0 -4.99775,2.23666 -4.99775,4.99737 0,2.76123 2.23653,4.99776 4.99775,4.99776 2.7607,0 4.99732,-2.23653 4.99732,-4.99776"
       style="fill:#ffffff;fill-opacity:1;fill-rule:nonzero;stroke:none"
       id="path3305" /><path
       d="m 325.98103,455.11917 c 0,-2.7607 -2.23653,-4.99722 -4.99723,-4.99722 -2.76122,0 -4.99772,2.23652 -4.99772,4.99722 0,2.76122 2.2365,4.99775 4.99772,4.99775 2.7607,0 4.99723,-2.23653 4.99723,-4.99775"
       style="fill:#ffffff;fill-opacity:1;fill-rule:nonzero;stroke:none"
       id="path3307" /><path
       d="m 333.78112,439.51898 c 0,-2.76071 -2.23651,-4.99721 -4.99722,-4.99721 -2.76124,0 -4.99773,2.2365 -4.99773,4.99721 0,2.76123 2.23649,4.99776 4.99773,4.99776 2.76071,0 4.99722,-2.23653 4.99722,-4.99776"
       style="fill:#ffffff;fill-opacity:1;fill-rule:nonzero;stroke:none"
       id="path3309" /><path
       d="m 320.78104,484.23961 c 0,-2.76071 -2.23662,-4.99738 -4.99734,-4.99738 -2.76121,0 -4.99776,2.23667 -4.99776,4.99738 0,2.76122 2.23655,4.99775 4.99776,4.99775 2.76072,0 4.99734,-2.23653 4.99734,-4.99775"
       style="fill:#ffffff;fill-opacity:1;fill-rule:nonzero;stroke:none"
       id="path3311" /><path
       d="m 405.56805,421.05459 c 0,-2.76124 -2.23653,-4.99776 -4.99724,-4.99776 -2.76135,0 -4.99788,2.23652 -4.99788,4.99776 0,2.76071 2.23653,4.99733 4.99788,4.99733 2.76071,0 4.99724,-2.23662 4.99724,-4.99733"
       style="fill:#ffffff;fill-opacity:1;fill-rule:nonzero;stroke:none"
       id="path3313" /><path
       d="m 371.30068,433.19108 c 0,-2.76071 -2.23662,-4.99733 -4.99786,-4.99733 -2.76071,0 -4.99724,2.23662 -4.99724,4.99733 0,2.76071 2.23653,4.99725 4.99724,4.99725 2.76124,0 4.99786,-2.23654 4.99786,-4.99725"
       style="fill:#ffffff;fill-opacity:1;fill-rule:nonzero;stroke:none"
       id="path3315" /><path
       d="m 371.30068,415.34285 c 0,-2.76072 -2.23662,-4.9967 -4.99786,-4.9967 -2.76071,0 -4.99724,2.23598 -4.99724,4.9967 0,2.76127 2.23653,4.99789 4.99724,4.99789 2.76124,0 4.99786,-2.23662 4.99786,-4.99789"
       style="fill:#ffffff;fill-opacity:1;fill-rule:nonzero;stroke:none"
       id="path3317" /><path
       d="m 371.30068,390.35612 c 0,-2.76024 -2.23662,-4.99731 -4.99786,-4.99731 -2.76071,0 -4.99724,2.23707 -4.99724,4.99731 0,2.76123 2.23653,4.99771 4.99724,4.99771 2.76124,0 4.99786,-2.23648 4.99786,-4.99771"
       style="fill:#ffffff;fill-opacity:1;fill-rule:nonzero;stroke:none"
       id="path3319" /><path
       d="m 488.3821,418.1988 c 0,-2.76072 -2.23649,-4.99723 -4.99719,-4.99723 -2.76075,0 -4.99789,2.23651 -4.99789,4.99723 0,2.76123 2.23714,4.99772 4.99789,4.99772 2.7607,0 4.99719,-2.23649 4.99719,-4.99772"
       style="fill:#ffffff;fill-opacity:1;fill-rule:nonzero;stroke:none"
       id="path3321" /><path
       d="m 495.14221,424.43887 c 0,-2.76071 -2.23662,-4.99723 -4.99728,-4.99723 -2.76075,0 -4.9978,2.23652 -4.9978,4.99723 0,2.76122 2.23705,4.99771 4.9978,4.99771 2.76066,0 4.99728,-2.23649 4.99728,-4.99771"
       style="fill:#ffffff;fill-opacity:1;fill-rule:nonzero;stroke:none"
       id="path3323" /><path
       d="m 445.22164,423.9188 c 0,-2.76072 -2.23663,-4.99721 -4.99729,-4.99721 -2.76077,0 -4.99781,2.23649 -4.99781,4.99721 0,2.76123 2.23704,4.99775 4.99781,4.99775 2.76066,0 4.99729,-2.23652 4.99729,-4.99775"
       style="fill:#ffffff;fill-opacity:1;fill-rule:nonzero;stroke:none"
       id="path3325" /><path
       d="m 414.02125,420.27885 c 0,-2.76085 -2.23662,-4.99737 -4.99732,-4.99737 -2.76071,0 -4.99775,2.23652 -4.99775,4.99737 0,2.76123 2.23704,4.99775 4.99775,4.99775 2.7607,0 4.99732,-2.23652 4.99732,-4.99775"
       style="fill:#ffffff;fill-opacity:1;fill-rule:nonzero;stroke:none"
       id="path3327" /><path
       d="m 395.82097,423.39889 c 0,-2.76084 -2.23653,-4.99738 -4.99723,-4.99738 -2.76071,0 -4.99772,2.23654 -4.99772,4.99738 0,2.76124 2.23701,4.99776 4.99772,4.99776 2.7607,0 4.99723,-2.23652 4.99723,-4.99776"
       style="fill:#ffffff;fill-opacity:1;fill-rule:nonzero;stroke:none"
       id="path3329" /><path
       d="m 389.5809,424.9589 c 0,-2.76084 -2.23652,-4.99736 -4.99724,-4.99736 -2.7607,0 -4.99771,2.23652 -4.99771,4.99736 0,2.76124 2.23701,4.99776 4.99771,4.99776 2.76072,0 4.99724,-2.23652 4.99724,-4.99776"
       style="fill:#ffffff;fill-opacity:1;fill-rule:nonzero;stroke:none"
       id="path3331" /><path
       d="m 380.74084,420.27885 c 0,-2.76085 -2.23654,-4.99737 -4.99725,-4.99737 -2.7607,0 -4.99785,2.23652 -4.99785,4.99737 0,2.76123 2.23715,4.99775 4.99785,4.99775 2.76071,0 4.99725,-2.23652 4.99725,-4.99775"
       style="fill:#ffffff;fill-opacity:1;fill-rule:nonzero;stroke:none"
       id="path3333" /><path
       d="m 367.74064,421.31883 c 0,-2.7607 -2.23651,-4.99723 -4.99722,-4.99723 -2.76072,0 -4.99773,2.23653 -4.99773,4.99723 0,2.76124 2.23701,4.99773 4.99773,4.99773 2.76071,0 4.99722,-2.23649 4.99722,-4.99773"
       style="fill:#ffffff;fill-opacity:1;fill-rule:nonzero;stroke:none"
       id="path3335" /><path
       d="m 344.86041,428.59885 c 0,-2.76071 -2.23653,-4.9972 -4.99724,-4.9972 -2.7607,0 -4.99785,2.23649 -4.99785,4.9972 0,2.76124 2.23715,4.99776 4.99785,4.99776 2.76071,0 4.99724,-2.23652 4.99724,-4.99776"
       style="fill:#ffffff;fill-opacity:1;fill-rule:nonzero;stroke:none"
       id="path3337" /><path
       d="m 339.14038,432.759 c 0,-2.76084 -2.23662,-4.99737 -4.99734,-4.99737 -2.7607,0 -4.99774,2.23653 -4.99774,4.99737 0,2.76123 2.23704,4.99776 4.99774,4.99776 2.76072,0 4.99734,-2.23653 4.99734,-4.99776"
       style="fill:#ffffff;fill-opacity:1;fill-rule:nonzero;stroke:none"
       id="path3339" /><path
       d="m 386.46087,413.51875 c 0,-2.76072 -2.23653,-4.99723 -4.99724,-4.99723 -2.7607,0 -4.99771,2.23651 -4.99771,4.99723 0,2.76122 2.23701,4.99771 4.99771,4.99771 2.76071,0 4.99724,-2.23649 4.99724,-4.99771"
       style="fill:#ffffff;fill-opacity:1;fill-rule:nonzero;stroke:none"
       id="path3341" /><path
       d="m 392.70094,418.1988 c 0,-2.76072 -2.23651,-4.99723 -4.99722,-4.99723 -2.76073,0 -4.99773,2.23651 -4.99773,4.99723 0,2.76123 2.237,4.99772 4.99773,4.99772 2.76071,0 4.99722,-2.23649 4.99722,-4.99772"
       style="fill:#ffffff;fill-opacity:1;fill-rule:nonzero;stroke:none"
       id="path3343" /><path
       d="m 400.50103,417.67872 c 0,-2.76071 -2.23653,-4.9972 -4.99723,-4.9972 -2.76071,0 -4.99772,2.23649 -4.99772,4.9972 0,2.76123 2.23701,4.99776 4.99772,4.99776 2.7607,0 4.99723,-2.23653 4.99723,-4.99776"
       style="fill:#ffffff;fill-opacity:1;fill-rule:nonzero;stroke:none"
       id="path3345" /><path
       d="m 487.66817,396.78181 c 0,-2.76122 -2.23655,-4.99775 -4.99726,-4.99775 -2.76066,0 -4.99774,2.23653 -4.99774,4.99775 0,2.76019 2.23708,4.99668 4.99774,4.99668 2.76071,0 4.99726,-2.23649 4.99726,-4.99668"
       style="fill:#ffffff;fill-opacity:1;fill-rule:nonzero;stroke:none"
       id="path3347" /><path
       d="m 504.0879,427.4799 c 0,-2.76072 -2.23653,-4.99737 -4.99673,-4.99737 -2.76181,0 -4.9984,2.23665 -4.9984,4.99737 0,2.76123 2.23659,4.99723 4.9984,4.99723 2.7602,0 4.99673,-2.236 4.99673,-4.99723"
       style="fill:#ffffff;fill-opacity:1;fill-rule:nonzero;stroke:none"
       id="path3349" /><path
       d="m 481.24242,428.19375 c 0,-2.76072 -2.23597,-4.99723 -4.99663,-4.99723 -2.76126,0 -4.99794,2.23651 -4.99794,4.99723 0,2.76124 2.23668,4.99733 4.99794,4.99733 2.76066,0 4.99663,-2.23609 4.99663,-4.99733"
       style="fill:#ffffff;fill-opacity:1;fill-rule:nonzero;stroke:none"
       id="path3351" /><path
       d="m 445.54767,431.04915 c 0,-2.7607 -2.23655,-4.99723 -4.99727,-4.99723 -2.76121,0 -4.99825,2.23653 -4.99825,4.99723 0,2.76071 2.23704,4.99724 4.99825,4.99724 2.76072,0 4.99727,-2.23653 4.99727,-4.99724"
       style="fill:#ffffff;fill-opacity:1;fill-rule:nonzero;stroke:none"
       id="path3353" /><path
       d="m 425.55757,431.04915 c 0,-2.7607 -2.23651,-4.99723 -4.99776,-4.99723 -2.76019,0 -4.99681,2.23653 -4.99681,4.99723 0,2.76071 2.23662,4.99724 4.99681,4.99724 2.76125,0 4.99776,-2.23653 4.99776,-4.99724"
       style="fill:#ffffff;fill-opacity:1;fill-rule:nonzero;stroke:none"
       id="path3355" /><path
       d="m 441.97785,418.1988 c 0,-2.76072 -2.23662,-4.99723 -4.99787,-4.99723 -2.76019,0 -4.99672,2.23651 -4.99672,4.99723 0,2.76123 2.23653,4.99772 4.99672,4.99772 2.76125,0 4.99787,-2.23649 4.99787,-4.99772"
       style="fill:#ffffff;fill-opacity:1;fill-rule:nonzero;stroke:none"
       id="path3357" /><path
       d="m 416.27704,374.65033 c 0,-2.76072 -2.23657,-4.99727 -4.9978,-4.99727 -2.7602,0 -4.99724,2.23655 -4.99724,4.99727 0,2.7607 2.23704,4.99726 4.99724,4.99726 2.76123,0 4.9978,-2.23656 4.9978,-4.99726"
       style="fill:#ffffff;fill-opacity:1;fill-rule:nonzero;stroke:none"
       id="path3359" /><path
       d="m 392.71765,326.10463 c 0,-2.76175 -2.23662,-4.9983 -4.99732,-4.9983 -2.76072,0 -4.99725,2.23655 -4.99725,4.9983 0,2.76019 2.23653,4.99674 4.99725,4.99674 2.7607,0 4.99732,-2.23655 4.99732,-4.99674"
       style="fill:#ffffff;fill-opacity:1;fill-rule:nonzero;stroke:none"
       id="path3361" /><path
       d="m 362.03724,415.54573 c 0,-2.76174 -2.23653,-4.99836 -4.99724,-4.99836 -2.76072,0 -4.99725,2.23662 -4.99725,4.99836 0,2.7602 2.23653,4.99673 4.99725,4.99673 2.76071,0 4.99724,-2.23653 4.99724,-4.99673"
       style="fill:#ffffff;fill-opacity:1;fill-rule:nonzero;stroke:none"
       id="path3363" /><path
       d="m 350.59716,422.30574 c 0,-2.76173 -2.23662,-4.99825 -4.99734,-4.99825 -2.76071,0 -4.99724,2.23652 -4.99724,4.99825 0,2.7602 2.23653,4.99682 4.99724,4.99682 2.76072,0 4.99734,-2.23662 4.99734,-4.99682"
       style="fill:#ffffff;fill-opacity:1;fill-rule:nonzero;stroke:none"
       id="path3365" /><path
       d="m 353.19715,416.58571 c 0,-2.76175 -2.23651,-4.99828 -4.99723,-4.99828 -2.76071,0 -4.99733,2.23653 -4.99733,4.99828 0,2.76019 2.23662,4.99668 4.99733,4.99668 2.76072,0 4.99723,-2.23649 4.99723,-4.99668"
       style="fill:#ffffff;fill-opacity:1;fill-rule:nonzero;stroke:none"
       id="path3367" /><path
       d="m 371.91738,408.26558 c 0,-2.76174 -2.23652,-4.99826 -4.99724,-4.99826 -2.76072,0 -4.99734,2.23652 -4.99734,4.99826 0,2.76019 2.23662,4.99683 4.99734,4.99683 2.76072,0 4.99724,-2.23664 4.99724,-4.99683"
       style="fill:#ffffff;fill-opacity:1;fill-rule:nonzero;stroke:none"
       id="path3369" /><path
       d="m 455.11839,409.30566 c 0,-2.76175 -2.23661,-4.99837 -4.99733,-4.99837 -2.76071,0 -4.99719,2.23662 -4.99719,4.99837 0,2.76019 2.23648,4.99671 4.99719,4.99671 2.76072,0 4.99733,-2.23652 4.99733,-4.99671"
       style="fill:#ffffff;fill-opacity:1;fill-rule:nonzero;stroke:none"
       id="path3371" /><path
       d="m 469.6785,383.82531 c 0,-2.76175 -2.23652,-4.9983 -4.99723,-4.9983 -2.76071,0 -4.99718,2.23655 -4.99718,4.9983 0,2.7602 2.23647,4.99674 4.99718,4.99674 2.76071,0 4.99723,-2.23654 4.99723,-4.99674"
       style="fill:#ffffff;fill-opacity:1;fill-rule:nonzero;stroke:none"
       id="path3373" /><path
       d="m 452.51831,298.54431 c 0,-2.76175 -2.23654,-4.9983 -4.99726,-4.9983 -2.7607,0 -4.99717,2.23655 -4.99717,4.9983 0,2.76019 2.23647,4.99674 4.99717,4.99674 2.76072,0 4.99726,-2.23655 4.99726,-4.99674"
       style="fill:#ffffff;fill-opacity:1;fill-rule:nonzero;stroke:none"
       id="path3375" /><path
       d="m 410.91784,287.10417 c 0,-2.76175 -2.23651,-4.9983 -4.99723,-4.9983 -2.76072,0 -4.99734,2.23655 -4.99734,4.9983 0,2.76019 2.23662,4.99674 4.99734,4.99674 2.76072,0 4.99723,-2.23655 4.99723,-4.99674"
       style="fill:#ffffff;fill-opacity:1;fill-rule:nonzero;stroke:none"
       id="path3377" /><path
       d="m 247.68111,371.91509 c 0,0 -80.08092,-13.13118 -83.72096,-102.50672 l 60.84072,0 c 0,0 3.12003,33.34591 28.60037,35.42593 0,0 40.56046,62.92075 -5.72013,67.08079"
       style="fill:#83cb39;fill-opacity:1;fill-rule:nonzero;stroke:none"
       id="path3381" /><path
       d="m 553.96475,371.91509 c 0,0 80.081,-13.13118 83.72096,-102.50672 l -60.84073,0 c 0,0 -3.12003,33.34591 -28.60027,35.42593 0,0 -40.56047,62.92075 5.72004,67.08079"
       style="fill:#83cb39;fill-opacity:1;fill-rule:nonzero;stroke:none"
       id="path3383" /><text
       transform="scale(1,-1)"
       id="text21"
       x="-223.19569"
       y="-126.63646"
       inkscape:export-filename="/Users/aslakhellesoy/scm/cucumber_site/images/cuke_logo.png"
       inkscape:export-xdpi="83.060699"
       inkscape:export-ydpi="83.060699"><tspan
         style="font-size:83.10620117px;font-variant:normal;font-weight:500;font-stretch:normal;writing-mode:lr-tb;fill:#204c23;fill-opacity:1;fill-rule:nonzero;stroke:none;font-family:Amasis MT;-inkscape-font-specification:AmasisMT-Medium"
         sodipodi:role="line"
         id="tspan23"
         x="-223.19569"
         y="-126.63646" /></text>
<text
       transform="scale(1,-1)"
       id="text25"
       x="-234.7377"
       y="-290.19016"
       inkscape:export-filename="/Users/aslakhellesoy/scm/cucumber_site/images/cuke_logo.png"
       inkscape:export-xdpi="83.060699"
       inkscape:export-ydpi="83.060699"><tspan
         style="font-size:90.76989746px;font-variant:normal;font-weight:500;font-stretch:normal;writing-mode:lr-tb;fill:#204c23;fill-opacity:1;fill-rule:nonzero;stroke:none;font-family:Aachen Medium Plain;-inkscape-font-specification:AachenMediumPlain"
         sodipodi:role="line"
         id="tspan27"
         x="-234.7377"
         y="-290.19016" /></text>
<text
       transform="scale(1,-1)"
       id="text29"
       sodipodi:linespacing="125%"
       style="line-height:125%"
       x="-237.9818"
       y="-447.43423"
       inkscape:export-filename="/Users/aslakhellesoy/scm/cucumber_site/images/cuke_logo.png"
       inkscape:export-xdpi="83.060699"
       inkscape:export-ydpi="83.060699"><tspan
         style="font-size:72px;font-style:normal;font-variant:normal;font-weight:bold;font-stretch:normal;text-align:start;line-height:125%;writing-mode:lr-tb;text-anchor:start;fill:#204c23;fill-opacity:1;fill-rule:nonzero;stroke:none;font-family:Kozuka Mincho Pro B;-inkscape-font-specification:Kozuka Mincho Pro B Bold"
         x="-237.9818"
         y="-447.43423"
         sodipodi:role="line"
         id="tspan31" /></text>
<text
       transform="scale(1,-1)"
       id="text33"
       x="-224.72009"
       y="49.454426"
       inkscape:export-filename="/Users/aslakhellesoy/scm/cucumber_site/images/cuke_logo.png"
       inkscape:export-xdpi="83.060699"
       inkscape:export-ydpi="83.060699"><tspan
         style="font-size:79.5809021px;font-variant:normal;font-weight:bold;font-stretch:normal;writing-mode:lr-tb;fill:#204c23;fill-opacity:1;fill-rule:nonzero;stroke:none;font-family:Alte Haas Grotesk;-inkscape-font-specification:AlteHaasGrotesk_Bold"
         sodipodi:role="line"
         id="tspan35"
         x="-224.72009"
         y="49.454426" /></text>
<text
       transform="scale(1,-1)"
       id="text37"
       x="-215.17039"
       y="223.25912"
       inkscape:export-filename="/Users/aslakhellesoy/scm/cucumber_site/images/cuke_logo.png"
       inkscape:export-xdpi="83.060699"
       inkscape:export-ydpi="83.060699"><tspan
         style="font-size:79.5809021px;font-variant:normal;font-weight:500;font-stretch:normal;writing-mode:lr-tb;fill:#204c23;fill-opacity:1;fill-rule:nonzero;stroke:none;font-family:Haettenschweiler;-inkscape-font-specification:Haettenschweiler"
         x="-215.17039"
         y="223.25912"
         sodipodi:role="line"
         id="tspan39" /></text>
<g
       id="g225"
       transform="matrix(5.6935963,0,0,5.6935963,993.648,799.37745)"><path
         d="m -20.118532,-2.6127964 c 0,-5.683 -4.607,-10.2909996 -10.291,-10.2909996 l -17.674,0 -17.493,-12.348 c -3.088,-1.929 -4.501,-0.514 -3.627,1.158 l 5.043,11.19 -2.573,0 c -5.684,0 -10.291,4.6079996 -10.291,10.2909996 l 0,21.2240004 c 0,5.683 4.607,10.29 10.291,10.29 l 36.324,0 c 5.684,0 10.291,-4.607 10.291,-10.29 l 0,-21.2240004 z"
         style="fill:#f3f6a2;fill-opacity:1;fill-rule:nonzero;stroke:none"
         id="path227" /><text
         xml:space="preserve"
         style="font-size:5.62034941px;font-style:normal;font-weight:normal;line-height:125%;fill:#000000;fill-opacity:1;stroke:none;font-family:Bitstream Vera Sans"
         x="-71.314819"
         y="-10.240535"
         id="text5243"
         transform="scale(1,-1)"
         sodipodi:linespacing="125%"><tspan
           sodipodi:role="line"
           id="tspan5245"
           x="-71.314819"
           y="-10.240535"
           style="font-size:10.11662865px;font-style:normal;font-variant:normal;font-weight:bold;font-stretch:normal;text-align:start;line-height:125%;writing-mode:lr-tb;text-anchor:start;fill:#225c2b;fill-opacity:1;font-family:Kozuka Gothic Pro;-inkscape-font-specification:Kozuka Gothic Pro Bold">You made</tspan><tspan
           sodipodi:role="line"
           x="-71.314819"
           y="2.405251"
           id="tspan5247"
           style="font-size:10.11662865px;font-style:normal;font-variant:normal;font-weight:bold;font-stretch:normal;text-align:start;line-height:125%;writing-mode:lr-tb;text-anchor:start;fill:#225c2b;fill-opacity:1;font-family:Kozuka Gothic Pro;-inkscape-font-specification:Kozuka Gothic Pro Bold">me Cuke!</tspan></text>
</g><g
       id="g229"
       transform="matrix(5.6935963,0,0,5.6935963,879.1012,784.50124)"><path
         d="m 0,0 c 0,-5.683 -4.607,-10.291 -10.291,-10.291 l -17.674,0 -17.493,-12.348 c -3.088,-1.929 -4.501,-0.514 -3.627,1.158 l 5.043,11.19 -2.573,0 c -5.684,0 -10.291,4.608 -10.291,10.291 l 0,21.224 c 0,5.683 4.607,10.29 10.291,10.29 l 6.915018,0 29.408982,0 C -4.607,31.514 0,26.907 0,21.224 L 0,0 z"
         style="fill:none;stroke:#225c2b;stroke-width:2.44300008;stroke-linecap:butt;stroke-linejoin:miter;stroke-miterlimit:4;stroke-opacity:1;stroke-dasharray:none"
         id="path231"
         sodipodi:nodetypes="cccccccccccccc" /></g><g
       id="g233"
       transform="matrix(5.6935963,0,0,5.6935963,573.76559,905.34555)"><path
         d="m 0,0 0,-21.226 c 0.008,-3.86 3.15,-7.002 7.012,-7.009 l 2.574,0 5.072,0 -2.083,-4.627 -2.563,-5.686 13.759,9.712 0.849,0.601 0.39,0 0.652,0 17.675,0 c 3.862,0.007 7.004,3.149 7.011,7.009 l 0,21.226 c -0.007,3.862 -3.149,7.004 -7.011,7.011 l -36.325,0 C 3.15,7.004 0.008,3.862 0,0 m 10.347,-31.859 0.531,1.181 -1.292,0 -2.574,0 c -5.216,0.002 -9.452,4.237 -9.453,9.452 l 0,21.226 c 10e-4,5.216 4.237,9.451 9.453,9.453 l 36.325,0 C 48.554,9.451 52.789,5.216 52.791,0 l 0,-21.226 c -0.002,-5.215 -4.237,-9.45 -9.454,-9.452 l -17.675,0 -0.265,0 -0.218,-0.154 -17.653,-12.034 -2.38,-1.48 5.201,12.487 z"
         style="fill:#83cb39;fill-opacity:1;fill-rule:nonzero;stroke:none"
         id="path235" /></g></g></svg>